<svg width="48" height="48" viewBox="0 0 48 48" fill="none" xmlns="http://www.w3.org/2000/svg">
<path d="M24 6C14.0586 6 6 14.0586 6 24C6 33.9414 14.0586 42 24 42C33.9414 42 42 33.9414 42 24C42 14.0586 33.9414 6 24 6Z" fill="url(#paint0_linear)"/>
<path d="M26.4368 28.7709H31.0952L31.8269 24.0387H26.4368V21.4521C26.4368 19.4865 27.0794 17.7432 28.9181 17.7432H31.8728V13.614C31.3535 13.5438 30.2555 13.3908 28.181 13.3908C23.8484 13.3908 21.3086 15.6786 21.3086 20.8914V24.0396H16.8545V28.7718H21.3077V41.7786C22.1897 41.91 23.0834 42 24.0005 42C24.8294 42 25.6385 41.9244 26.4368 41.8164V28.7709Z" fill="white"/>
<defs>
<linearGradient id="paint0_linear" x1="11.3937" y1="11.3937" x2="38.9535" y2="38.9535" gradientUnits="userSpaceOnUse">
<stop stop-color="#2AA4F4"/>
<stop offset="1" stop-color="#007AD9"/>
</linearGradient>
</defs>
</svg>
