<svg xmlns="http://www.w3.org/2000/svg" xmlns:xlink="http://www.w3.org/1999/xlink" width="530" height="361" fill="none" xmlns:v="https://vecta.io/nano"><style><![CDATA[.B{fill:#bdd0fb}.C{opacity:.81}.D{fill:#91b3fa}.E{fill:#0f6eff}.F{fill:#dce5fe}.G{fill:#7d97f4}.H{opacity:.78}.I{fill:#5a9cff}.J{fill:#6ba6ff}]]></style><path opacity=".656" d="M149.32 351.32s-4.933-56.983-79.828-76.881C19.52 261.161 5.422 246.05 1.576 239.79a.85.85 0 0 0-.411-.348c-.171-.069-.36-.079-.537-.031a.85.85 0 0 0-.448.3c-.113.146-.175.325-.178.51-.113 10.585 3.221 43.9 46.277 70.137 51.888 31.621 82.626 18.551 103.041 40.962z" class="B"/><g class="C"><path d="M358.638 340.278S233.697 210.61 425.811 37.134c0 0 11.425 74.542-35.074 148.968s-51.621 118.862-32.099 154.176z" class="B C"/><path d="M393.932 108.285c-6.443 7.229-12.172 15.101-17.396 23.247-2.622 4.071-5.123 8.221-7.467 12.455s-4.592 8.52-6.674 12.885c-8.361 17.445-14.518 35.942-18.005 54.95-.883 4.751-1.609 9.531-2.132 14.344s-.925 9.62-1.119 14.45c-.136 2.414-.139 4.83-.198 7.247l.094 7.251c.113 4.835.437 9.662.881 14.482 1.849 19.273 6.341 38.277 12.808 56.605.027.07.024.148-.006.216s-.088.122-.158.149-.147.024-.216-.007-.121-.088-.148-.158a228.74 228.74 0 0 1-9.205-27.765 206.84 206.84 0 0 1-5.377-28.807c-2.224-19.5-1.559-39.222 1.974-58.526a190.57 190.57 0 0 1 3.167-14.344 217.33 217.33 0 0 1 4.193-14.082c1.549-4.645 3.307-9.218 5.179-13.736a198.06 198.06 0 0 1 6.112-13.34 235.96 235.96 0 0 1 6.998-12.882c2.471-4.227 5.118-8.325 7.87-12.366s5.688-7.936 8.742-11.737c3.027-3.829 6.268-7.481 9.708-10.941a.28.28 0 0 1 .193-.072c.071.001.139.029.191.078a.29.29 0 0 1 .087.187.28.28 0 0 1-.062.197l-.034.02z" class="C F"/></g><g opacity=".88"><path opacity=".88" d="M119.591 65.082c-2.402-3.821-8.309-1.667-7.71 2.81 3.091 23.081 6.761 63.358-.468 89.687-10.643 38.709-29.776 152.571 78.131 181.398-.01 0-10.288-179.004-69.953-273.895z" class="B"/><path opacity=".88" d="M129.172 112.685c1.174 2.241 2.164 4.574 2.96 6.976l2.126 7.276a120.92 120.92 0 0 1 2.561 14.953l.357 3.779.247 3.786.247 7.585.014 1.897-.047 1.897-.091 3.793c0 1.267-.13 2.523-.195 3.787l-.229 3.786c-.358 5.065-1.07 10.078-1.771 15.049l-2.175 14.839c-1.409 9.853-2.398 19.718-2.418 29.566a121.15 121.15 0 0 0 3.454 29.182c.663 2.36 1.233 4.751 2.052 7.064.392 1.162.74 2.339 1.169 3.489l1.332 3.433.673 1.714.74 1.686 1.492 3.374 1.66 3.294c.553 1.098 1.078 2.226 1.727 3.272l1.842 3.215.93 1.6 1.004 1.556 1.993 3.121.493.784.535.756 1.073 1.514 2.149 3.027c.722 1.004 1.517 1.956 2.274 2.938l2.296 2.928c.78.962 1.603 1.892 2.403 2.842 6.427 7.575 13.519 14.591 20.916 21.333.028.025.05.055.066.088a.27.27 0 0 1 .028.107.29.29 0 0 1-.015.11c-.013.035-.032.068-.057.095-.048.053-.114.085-.184.092a.29.29 0 0 1-.199-.054 186.26 186.26 0 0 1-22.445-20.067l-2.592-2.758-2.467-2.874c-.811-.966-1.662-1.901-2.444-2.893l-2.326-2.997-1.179-1.512-.579-.741-.546-.779-2.173-3.122-1.08-1.565c-.348-.529-.671-1.076-1.006-1.615l-2.015-3.25c-5.261-8.702-9.213-18.217-11.931-28.067-2.661-9.875-3.86-20.121-3.892-30.303-.106-10.197 1.083-20.307 2.555-30.263s3.493-19.766 4.544-29.586l.36-3.71c.106-1.236.273-2.473.325-3.71l.225-3.709.113-1.858c.035-.618.035-1.236.054-1.857.057-2.473.18-4.946.119-7.434l-.045-3.71-.165-3.709a130.67 130.67 0 0 0-1.573-14.797c-.43-2.443-.898-4.887-1.53-7.288-.572-2.416-1.318-4.788-2.232-7.096v-.017c-.016-.033-.026-.07-.028-.107s.003-.074.015-.109.031-.068.056-.096.054-.05.088-.066a.26.26 0 0 1 .106-.028c.037-.002.075.003.11.015s.067.031.095.056.05.054.066.088l-.015.005z" class="F"/></g><path d="M156.833 194.854h-34.309a4.35 4.35 0 0 0-4.344 4.355v147.85a4.35 4.35 0 0 0 4.344 4.355h34.309a4.35 4.35 0 0 0 4.343-4.355v-147.85a4.35 4.35 0 0 0-4.343-4.355z" fill="url(#A)"/><path d="M266.556 176.135h-34.237c-2.398 0-4.386 2.312-4.386 5.008v165.093c0 2.693 1.988 5.178 4.386 5.178h34.237c2.4 0 4.95-2.473 4.95-5.178V181.143c-.017-2.696-2.562-5.008-4.95-5.008z" fill="url(#B)"/><path d="M210.579 146.069h-34.31a4.35 4.35 0 0 0-4.343 4.356v196.634a4.35 4.35 0 0 0 4.343 4.355h34.31a4.35 4.35 0 0 0 4.343-4.355V150.425a4.35 4.35 0 0 0-4.343-4.356z" fill="url(#C)"/><path d="M396.704 76.298h-34.309a4.35 4.35 0 0 0-4.344 4.355v266.406a4.35 4.35 0 0 0 4.344 4.355h34.309a4.35 4.35 0 0 0 4.344-4.355V80.653a4.35 4.35 0 0 0-4.344-4.355z" fill="url(#D)"/><path d="M332.777 114.305h-34.309a4.35 4.35 0 0 0-4.343 4.355v228.399a4.35 4.35 0 0 0 4.343 4.355h34.309a4.35 4.35 0 0 0 4.344-4.355V118.66a4.35 4.35 0 0 0-4.344-4.355z" fill="url(#E)"/><g opacity=".8"><path opacity=".8" d="M156.836 348.793s-48.462 16.817-84.668-36.338c-34.011-49.937-13.566-112.375 1.431-148.048.169-.401.466-.736.843-.953s.815-.304 1.246-.248.832.252 1.142.559.511.705.572 1.137c4.501 30.034 25.442 147.474 82.021 183.812l-2.587.079z" class="D"/><path opacity=".8" d="M151.698 349.99c-6.167-.868-12.116-2.805-17.887-5.127a92.05 92.05 0 0 1-30.805-20.922 101.75 101.75 0 0 1-11.713-14.698c-3.336-5.316-6.245-10.889-8.702-16.666l-1.685-4.393-.819-2.201-.696-2.245-1.386-4.486c-.397-1.514-.755-3.037-1.115-4.561a134.39 134.39 0 0 1-3.335-37.116c-.002-.076.026-.149.078-.204s.123-.086.198-.088.148.026.203.078.086.123.088.199l.863 9.224.599 4.583c.2 1.526.343 3.057.59 4.573l.769 4.543c.249 1.514.469 3.032.834 4.521.681 2.987 1.191 6.012 2.064 8.945l1.177 4.432 1.396 4.363.696 2.178.819 2.137 1.618 4.276c2.359 5.619 5.152 11.045 8.352 16.229 3.263 5.14 6.992 9.969 11.139 14.423 4.145 4.472 8.72 8.523 13.659 12.093 4.954 3.585 10.225 6.708 15.746 9.329 5.548 2.569 11.346 4.726 17.33 6.02h.02c.074.013.139.054.182.116s.059.137.046.211a.28.28 0 0 1-.116.182c-.061.043-.137.06-.211.047l.003.005z" fill="#fff"/></g><g class="E"><path d="M324.744 321.579l79.121-151.983h-16.203c-.671.001-1.328-.19-1.895-.55a3.54 3.54 0 0 1-1.307-1.481 3.55 3.55 0 0 1 .465-3.771l84.325-103.05c3.655-4.466 10.875-1.635 10.537 4.133l-5.92 100.772a10.1 10.1 0 0 1-1.054 3.922 10.07 10.07 0 0 1-2.513 3.185c-1.045.879-2.258 1.536-3.564 1.93a10.03 10.03 0 0 1-4.035.361l-11.301-1.296-78.522 170.469a12.52 12.52 0 0 1-4.611 5.303 12.47 12.47 0 0 1-6.735 1.975h-27.21l-9.578-29.919z"/><path d="M259.33 214.988l55.856 124.409c1.619 3.61 4.242 6.673 7.556 8.823s7.176 3.294 11.123 3.296h28.797c1.877-.001 3.72-.507 5.336-1.463s2.948-2.331 3.856-3.978l1.024-1.85a8.23 8.23 0 0 1-4.299-1.216c-1.294-.795-2.344-1.933-3.034-3.288l-74.422-146.207-31.793 21.474z"/><path d="M298.64 208.283c-1.324-1.049-2.851-1.812-4.483-2.24a12.17 12.17 0 0 0-5.004-.246 12.19 12.19 0 0 0-4.681 1.788 12.23 12.23 0 0 0-3.571 3.522l-82.125 123.715a35.51 35.51 0 0 1-12.782 11.648c-5.152 2.767-10.907 4.215-16.752 4.215h-11.555l-9.405-27.165s76.343-117.376 96.026-135.133c0 0 19.596-17.708 38.919-4.318 5.106 3.536 8.981 8.584 11.346 14.344l4.067 9.87z"/><path d="M58.96 250.464s13.746-17.227 40.387-19.908c0 0 12.65 4.323 37.858 49.61s41.931 65.938 61.572 54.656l-1.626 2.721c-2.634 4.384-6.353 8.012-10.798 10.53s-9.462 3.841-14.567 3.841h-10.853c-5.893.001-11.701-1.404-16.945-4.098s-9.774-6.6-13.216-11.396c-19.623-27.358-59.761-81.709-71.812-85.956z"/></g><path d="M470.263 96.805a.64.64 0 0 1-.096 0 .85.85 0 0 1-.74-.94l.555-4.921a.85.85 0 0 1 .314-.57c.176-.141.401-.206.624-.18a.85.85 0 0 1 .569.315c.14.177.205.402.18.626l-.555 4.921a.85.85 0 0 1-.851.749zm-70.392 62.112a.85.85 0 0 1-.449-.128c-.134-.084-.243-.204-.313-.347a.85.85 0 0 1-.083-.46c.015-.158.075-.309.172-.435l69.632-90.719a2.98 2.98 0 0 1 3.486-.952 2.99 2.99 0 0 1 1.447 1.245 3 3 0 0 1 .4 1.869l-1.234 10.882a.85.85 0 0 1-.314.57.84.84 0 0 1-.624.18.85.85 0 0 1-.569-.315c-.14-.177-.205-.402-.18-.626l1.234-10.882c.031-.28-.03-.563-.174-.805a1.29 1.29 0 0 0-.623-.536 1.28 1.28 0 0 0-.82-.049c-.271.074-.511.234-.682.457l-69.635 90.719c-.079.103-.18.187-.297.244a.82.82 0 0 1-.374.087zm-157.98 95.106a.84.84 0 0 1-.473-.146.85.85 0 0 1-.358-.543c-.043-.222.003-.452.128-.639l36.012-53.523a6.4 6.4 0 0 1 2.521-2.183 6.41 6.41 0 0 1 3.273-.621c1.126.086 2.21.469 3.142 1.11a6.43 6.43 0 0 1 2.163 2.54.86.86 0 0 1 .083.323c.006.112-.01.224-.048.33a.84.84 0 0 1-.437.485.86.86 0 0 1-.323.081.86.86 0 0 1-.329-.05.85.85 0 0 1-.284-.173.84.84 0 0 1-.196-.269 4.73 4.73 0 0 0-1.592-1.873 4.7 4.7 0 0 0-4.725-.359 4.72 4.72 0 0 0-1.855 1.611l-36.011 53.523c-.077.114-.179.207-.3.273a.84.84 0 0 1-.391.103zm-9.348 13.909a.86.86 0 0 1-.474-.146c-.186-.127-.315-.322-.358-.544a.85.85 0 0 1 .129-.638l2.308-3.433a.85.85 0 1 1 1.409.952l-2.299 3.431c-.079.117-.185.213-.31.279s-.264.1-.405.099z" class="D"/><g class="C"><path d="M517.618 156.365c-31.426 13.968-114.903 62.322-150.951 192.618 0 0 48.617.819 85.095-77.359 31.201-66.858 49.14-93.869 68.243-111.651 1.811-1.684-.138-4.612-2.387-3.608z" class="C D"/><path d="M372.708 341.69c1.373-3.912 2.888-7.763 4.459-11.591s3.206-7.63 4.933-11.399l5.286-11.24 2.757-5.565 2.852-5.517c3.833-7.343 7.905-14.562 12.14-21.682s8.748-14.075 13.381-20.945c9.313-13.703 19.465-26.86 30.604-39.132l4.233-4.55c1.418-1.509 2.9-2.968 4.348-4.44l2.183-2.208 2.247-2.144 4.536-4.242a230.96 230.96 0 0 1 19.258-15.637c.06-.041.133-.057.205-.046s.136.05.18.107.065.13.057.203-.042.138-.096.186c-6.398 5.193-12.617 10.597-18.499 16.347-5.829 5.81-11.543 11.728-16.911 17.967-10.793 12.415-20.676 25.609-29.844 39.273-4.586 6.834-8.998 13.783-13.236 20.846-4.247 7.054-8.327 14.208-12.308 21.42-7.924 14.443-15.391 29.16-22.223 44.189-.028.07-.082.125-.151.155a.28.28 0 0 1-.215.002c-.069-.027-.125-.082-.154-.151a.28.28 0 0 1-.003-.216l-.019.01z" class="C F"/><path d="M366.674 350.183s13.877-54.557 89.781-61.892c50.653-4.897 66.754-17.312 71.485-22.783a.84.84 0 0 1 .455-.271.83.83 0 0 1 .526.057c.164.075.3.203.387.362s.118.343.092.523c-1.576 10.3-10.113 42.127-56.118 60.717-55.435 22.404-83.208 4.788-106.608 23.287z" class="B C"/><path d="M370.67 339.645c4.687-4.613 9.867-8.656 15.263-12.388 2.713-1.86 5.466-3.653 8.312-5.302s5.725-3.253 8.683-4.699 5.983-2.78 9.034-4.044c3.071-1.219 6.194-2.322 9.373-3.269l2.383-.708 2.402-.635c1.594-.455 3.229-.742 4.847-1.116 1.631-.311 3.266-.597 4.906-.858l2.466-.329 1.234-.163 1.233-.111 2.486-.22c.826-.087 1.66-.087 2.491-.131l2.491-.099 2.499.024c1.665-.015 3.325.134 4.987.248l2.437.17 2.398.178 4.797.191c1.598 0 3.207.049 4.795 0a81.41 81.41 0 0 0 9.54-.712c6.322-.799 12.545-2.436 18.302-5.164 1.432-.693 2.826-1.462 4.176-2.305 1.357-.838 2.658-1.762 3.897-2.768s2.412-2.099 3.497-3.274c1.102-1.158 2.065-2.44 2.871-3.821v-.02a.29.29 0 0 1 .16-.102c.064-.014.13-.006.188.023a.28.28 0 0 1 .146.326 21.35 21.35 0 0 1-2.59 4.262c-1.013 1.318-2.129 2.554-3.337 3.694-2.395 2.318-5.155 4.225-8.041 5.886a51.9 51.9 0 0 1-9.141 3.992 62.57 62.57 0 0 1-9.669 2.404 85.12 85.12 0 0 1-9.881 1.11c-3.307.228-6.615.176-9.918.08l-2.466-.127-2.432-.116c-1.588-.057-3.172-.166-4.763-.114h-2.383l-2.382.112c-.792.052-1.589.054-2.378.143l-2.375.228c-6.334.643-12.579 2.023-18.726 3.788a139.92 139.92 0 0 0-18.005 6.678c-1.48.653-2.921 1.34-4.379 2.02s-2.895 1.41-4.318 2.164c-2.854 1.497-5.703 3.018-8.485 4.662s-5.555 3.314-8.258 5.102-5.402 3.601-8.004 5.538c-.06.045-.136.064-.21.054s-.142-.051-.187-.111c-.039-.056-.057-.124-.05-.192a.29.29 0 0 1 .084-.179z" class="C F"/></g><path d="M99.529 347.663a37.02 37.02 0 0 0-.446 3.897 1.68 1.68 0 0 0 .398 1.192 1.67 1.67 0 0 0 1.112.581c3.122.305 10.231.863 14.769.208.143-.019.277-.079.387-.172a.77.77 0 0 0 .236-.352c.043-.137.048-.284.012-.424a.76.76 0 0 0-.216-.365c-1.872-1.749-6.393-5.149-13.832-5.893l-2.419 1.328z" class="I"/><path d="M97.977 343.644l1.579 3.88c.104.26.29.478.528.622a1.28 1.28 0 0 0 .796.179c.436-.041.867-.124 1.288-.247.428-.131.786-.427.998-.823s.257-.859.129-1.289l-1.191-3.996-4.127 1.674z" fill="url(#F)"/><path d="M70.984 350.751s3.16 2.654 4.393 6.055c.076.218.098.452.065.681s-.12.447-.255.635-.312.342-.517.447-.433.159-.664.158h-6.497a1.53 1.53 0 0 1-.649-.141c-.203-.094-.384-.231-.528-.403a1.53 1.53 0 0 1-.309-.589 1.54 1.54 0 0 1-.031-.665c.407-2.349 1.601-6.168 4.992-6.178z" class="I"/><path d="M67.066 347.299l1.13 4.699a.59.59 0 0 0 .111.219c.052.065.116.118.189.157a.59.59 0 0 0 .236.066.59.59 0 0 0 .243-.034c.987-.354 1.786-.51 2.368-.43.064.006.13-.001.191-.021s.118-.053.166-.097a.47.47 0 0 0 .112-.156c.026-.06.039-.124.039-.189l.062-4.699-4.847.485z" fill="url(#G)"/><path d="M83.882 283.525l19.239 58.825s-3.7 2.421-5.446 2.32l-22.842-47.273s-3.998 29.128-2.06 50.04l-6.544.495s-10.638-53.441-2.58-71.745l20.233 7.338z" fill="#3987fe"/><path d="M74.947 296.887h-.022a.19.19 0 0 1-.069-.023c-.021-.012-.04-.029-.055-.048s-.026-.042-.033-.066-.008-.049-.005-.073l.74-5.936c.006-.049.031-.093.07-.124s.088-.044.137-.039a.19.19 0 0 1 .069.023c.021.013.04.029.055.048s.026.042.033.066.008.049.005.073l-.74 5.936c-.006.045-.028.086-.062.116s-.078.047-.123.047z" fill="url(#H)"/><path d="M87.487 231.763s-15.581 1.387-13.378 12.516c0 0-8.611 16.253-12.638 35.395-.031.148-.031.301-.002.45a1.13 1.13 0 0 0 .496.727c.127.081.269.136.418.161l25.945 4.452a1.4 1.4 0 0 0 .994-.206c.294-.191.506-.486.594-.826l6.203-24.018 2.417 11.171 7.676-2.006-6.462-32.823s-.905-4.788-12.264-4.993z" fill="#99c1ff"/><path d="M96.249 259.34h-.042c-.05-.011-.093-.041-.121-.084s-.037-.096-.027-.146l2.163-9.959c.011-.05.042-.094.085-.121s.096-.037.146-.026.094.042.121.085.037.096.026.146l-2.163 9.957c-.01.042-.034.08-.068.107s-.076.041-.12.041z" fill="#85b5ff"/><path d="M94.682 288.971a3.69 3.69 0 0 0-2.679-.349l-1.803.448a.66.66 0 0 1-.277.009c-.092-.017-.179-.053-.256-.107s-.141-.123-.189-.203-.078-.17-.088-.263l-1.867-16.672c-2.336 1.111-5.708.99-6.818.898l4.299 19.654h15.046l-5.37-3.415z" fill="url(#I)"/><path d="M134.659 252.806l-.454-1.516c-.129-.43-.353-.826-.655-1.157s-.675-.591-1.091-.759l-8.221-3.317s-.126-1.058 1.727-1.778 1.428-2.809 1.428-2.809l-6.27 3.009c-2.129 1.056-3.325 2.919-3.946 4.321L98.54 271.585l2.187 1.506c.678.467 1.447.785 2.256.934s1.641.124 2.44-.071 1.548-.559 2.198-1.066a5.85 5.85 0 0 0 1.571-1.872l10.098-19.414c5.067 1.518 10.197 1.81 15.369 1.204z" fill="url(#J)"/><path d="M92.534 221.133l-4.8 13.449s4.245 3.326 7.34 2.201l2.415-7.709s-1.838-9.42-4.955-7.941z" fill="url(#K)"/><path d="M106.837 216.303c0 .208-4.617 13.108-4.617 13.108l-7.286-2.797 2.563-12.875s9.34-.903 9.34 2.564z" fill="url(#L)"/><path d="M98.775 216.869l-1.877 6.678c-.025.084-.037.172-.037.26 0 .544.133 2.416 2.035 2.161 1.727-.23 3.305-.415 4.31.057a.97.97 0 0 1 .477.507c.091.223.097.471.016.697-.722 2.044-1.6 4.028-2.627 5.936-.12.208-.312.364-.54.437a.96.96 0 0 1-.693-.039c-1.369-.626-4.218-2.023-6.248-3.687a.97.97 0 0 1-.343-.93l1.312-8.384c.04-1.395-1.522-2.473-2.22-2.862-.109-.065-.204-.152-.279-.255a.95.95 0 0 1-.158-.343c-.217-.898-.4-2.931 2.188-3.381a.97.97 0 0 0 .636-.409c.073-.108.124-.229.149-.357s.025-.259-.001-.386c-.219-1.074-.148-2.656 1.887-3.24s3.369.658 4.033 1.615a.97.97 0 0 0 .54.378.96.96 0 0 0 .656-.057.77.77 0 0 1 .453-.058c.154.028.295.102.405.212a.97.97 0 0 0 .35.179.95.95 0 0 0 .393.022c.131-.02.256-.067.368-.138s.207-.165.28-.276c.602-.89 1.7-1.778 3.555-1.177 3.293 1.068 3.135 4.874 1.929 6.944s-4.712.708-6.371-.665c-1.261-1.041-3.182-.418-4.028-.059a.97.97 0 0 0-.55.62z" fill="url(#M)"/><path d="M93.9 222.998s1.948-3.695.659-4.857-3.47-.97-3.411 1.921c.072 3.594 2.753 2.936 2.753 2.936z" fill="url(#N)"/><path d="M82.216 272.994c-1.063 0-1.823-.081-1.904-.089l-.138-.017-5.673-26.522c-.006-.024-.007-.05-.002-.075s.014-.05.027-.071.032-.04.053-.054.045-.025.07-.03c.05-.01.102 0 .145.028s.073.071.084.121l5.614 26.247c.844.074 5.352.373 7.733-1.316l-4.913-23.042 1.026-1.939c.024-.045.065-.079.113-.094s.102-.01.147.014.079.065.094.114.01.102-.014.147l-.959 1.815 4.933 23.148-.099.075c-1.717 1.293-4.487 1.54-6.336 1.54z" fill="#85b5ff"/><g class="G"><path d="M89.557 361a1.01 1.01 0 0 1-.439-.101 1.27 1.27 0 0 1-.587-1.605l23.432-59.602c.049-.145.128-.277.231-.388a1.09 1.09 0 0 1 .368-.262c.139-.06.29-.09.441-.089s.302.035.44.098a1.27 1.27 0 0 1 .603.69 1.28 1.28 0 0 1-.018.918l-23.432 59.602c-.078.214-.219.4-.404.532a1.12 1.12 0 0 1-.634.207z"/><path d="M115.956 361a1.12 1.12 0 0 1-.629-.211 1.13 1.13 0 0 1-.399-.531l-23.432-59.602a1.27 1.27 0 0 1 .585-1.608c.138-.063.288-.097.44-.099a1.07 1.07 0 0 1 .442.089 1.08 1.08 0 0 1 .368.261 1.09 1.09 0 0 1 .229.39l23.431 59.602c.121.292.128.619.02.917a1.26 1.26 0 0 1-.604.688 1.01 1.01 0 0 1-.452.104zm73.342 0c-.153 0-.304-.035-.442-.101a1.27 1.27 0 0 1-.584-1.605l23.432-59.602a1.09 1.09 0 0 1 .229-.385c.102-.111.226-.199.364-.26a1.08 1.08 0 0 1 .437-.09c.151.001.3.033.437.094.28.147.495.393.604.69a1.27 1.27 0 0 1-.017.918l-23.432 59.602a1.11 1.11 0 0 1-1.028.739z"/><path d="M215.694 361c-.226-.006-.445-.079-.628-.212s-.322-.317-.398-.53l-23.432-59.602c-.12-.293-.127-.62-.019-.917a1.27 1.27 0 0 1 .603-.691c.138-.063.288-.097.441-.099a1.07 1.07 0 0 1 .442.089c.14.06.265.149.368.261s.181.245.229.39l23.432 59.602a1.26 1.26 0 0 1-.584 1.605 1.01 1.01 0 0 1-.454.104z"/></g><g fill="#6fa8ff"><path d="M176.353 320.827h-2.77v30.041h2.77v-30.041z"/><path d="M187.102 351.449h-24.265v-.131a1.68 1.68 0 0 1 .49-1.187c.313-.315.738-.492 1.182-.492h20.79a1.8 1.8 0 0 1 1.276.53c.168.168.3.368.391.587a1.81 1.81 0 0 1 .136.693zm.622-37.352h-24.549c-1.646 0-2.98 1.338-2.98 2.988v2.701c0 1.65 1.334 2.987 2.98 2.987h24.549c1.646 0 2.98-1.337 2.98-2.987v-2.701c0-1.65-1.334-2.988-2.98-2.988z"/></g><path d="M154.517 300.797s-4.117.641-8.746 3.742c-.358.238-.642.57-.822.961s-.248.823-.197 1.25c.555 4.402 2.834 18.65 10.359 32.566a3.5 3.5 0 0 1 .336 2.404l-1.305 6.091-2.42 2.278h6.236l4.151-11.268-1.776-.564c-.671-.212-1.259-.631-1.68-1.197s-.654-1.25-.666-1.956l-.207-12.083c.178-5.387-3.293-9.102-3.293-9.102l9.96-.494-9.93-12.628z" fill="url(#O)"/><path d="M149.274 351.187c-.567.742 6.112 1.731 9.489.099 0 0 4.686-8.162 4.686-12.366 0 0-.372-.855-3.12-.663 0 0-1.571 9.665-3.229 10.749s-4.642.108-4.642.108-2.345.972-3.184 2.073z" fill="#6ca6ff"/><path d="M163.175 314.097c-.054-.091-10.724-1.286-10.724-1.286s.35 3.253-.74 7.729-16.758 23.878-16.758 23.878l1.643 5.22c-5.079 1.776-10.076 2.058-14.992.906l10.182-6.126s9.526-32.551 15.362-38.358l10.694-3.71 5.333 11.747z" fill="url(#P)"/><path d="M187.102 295.156s6.147 9.168 6.66 13.355-1.685 5.881-8.139 6.16-23.679.277-23.679.277l-14.698-12.595 13.497-4.914c2.785-1.084 26.359-2.283 26.359-2.283z" fill="#ffb550"/><path d="M135.974 347.88s1.769 1.731.575 3.631c0 0-14.01 2.488-17.813 1.36 0 0 .789-1.808 5.073-3.866l-.315.248a.51.51 0 0 0-.183.264c-.031.106-.027.218.011.322a.51.51 0 0 0 .2.251c.091.06.2.089.31.083 2.821-.166 8.662-.685 12.142-2.293z" fill="#6ca6ff"/><path d="M174.678 243.653c.93.292 4.277 1.497 3.846 3.656a.39.39 0 0 0 .014.197c.021.063.058.12.107.166s.11.077.175.092.133.015.197-.003c1.443-.388 4.63-.88 6.605 1.603 1.744 2.191.442 4.258-.621 5.394-.057.059-.095.134-.107.215s-.001.164.036.238.094.134.166.173.154.056.235.046c2.652-.336 8.416-.415 9.358 4.998.881 5.048-2.624 6.47-4.703 6.873-.078.016-.148.055-.203.111s-.092.128-.106.206-.005.158.027.23.084.133.151.175c1.036.661 2.239 2.023 1.753 4.714-.762 4.204-9.005 3.87-9.967 3.814a.39.39 0 0 1-.172-.05l-13.204-7.55a.4.4 0 0 1-.127-.119c-.033-.048-.055-.103-.065-.161l-2.666-15.434a.4.4 0 0 1 .011-.185.41.41 0 0 1 .092-.159l8.766-9.133c.051-.054.115-.092.186-.111s.146-.017.216.004z" fill="url(#Q)"/><path d="M170.478 293.942s-7.153-6.834-10.682-11.362a9.62 9.62 0 0 1-1.86-4.13 9.63 9.63 0 0 1 .237-4.526c1.608-5.441 4.469-11.062 4.728-11.94.4-1.343 8.428-1.286 8.428-1.286s15.786 10.278 21.999 27.699l-6.968 2.176s-4.124-6.925-8.199-11.349c0 0 7.05 9.339 7.299 13.162l-14.982 1.556z" fill="#95bfff"/><path d="M161.932 254.493l2.343 7.387c.165.144 4.592.383 6.679-1.046l-3.539-7.419-5.483 1.078z" fill="url(#R)"/><path d="M165.373 239.867s-3.782 1.6-6.354 7.081-.651 8.01 1.761 8.356 6.021.295 9.836-3.245-.328-14.091-5.243-12.192z" fill="url(#S)"/><path d="M168.051 249.134s2.851-8.018-4.238-8.112l-1.667 1.17s-2.6-4.452 1.667-6.569 9.267-.368 11.085 5.399 2.126 9.628-.898 12.385-4.267-.368-4.267-.368 1.645-2.58.987-3.957-2.22.287-2.22.287l-.449-.235z" fill="url(#T)"/><path d="M168.845 250.027s1.443-4.131 3.367-2.486-1.564 3.816-2.93 4.518l-.437-2.032z" fill="url(#U)"/><path d="M155.894 294.449l5.259-5.083 7.276 3.082s7.244 1.125 11.388 0l4.146-1.125 9.373-2.924 1.48 4.17c.18.515.189 1.075.024 1.595a2.52 2.52 0 0 1-.939 1.289c-.746.56-1.537 1.056-2.366 1.484-1.233.541-30.409-.374-30.409-.374l-5.232-2.114z" fill="url(#V)"/><g class="I"><path d="M175.789 296.845h-.071l-30.509-.035c-.352-.015-.684-.165-.928-.42s-.38-.595-.38-.948a1.37 1.37 0 0 1 .38-.948 1.36 1.36 0 0 1 .928-.421l30.509.034a1.36 1.36 0 0 1 .974.376 1.37 1.37 0 0 1 .424.957c.009.363-.126.715-.375.978a1.37 1.37 0 0 1-.954.425l.002.002z"/><path d="M117.791 269.072h25.405a4.83 4.83 0 0 1 2.593.754 4.85 4.85 0 0 1 1.785 2.031l11.748 24.978h-31.571c-.59 0-1.167-.178-1.655-.511a2.95 2.95 0 0 1-1.083-1.356l-9.109-23.109c-.122-.309-.167-.643-.131-.973a2.04 2.04 0 0 1 .338-.922c.186-.275.437-.5.73-.655s.619-.237.95-.237z"/></g><path d="M134.775 285.604c1.053-.339 1.46-2.005.91-3.72s-1.851-2.83-2.903-2.49-1.461 2.005-.91 3.72 1.85 2.83 2.903 2.49z" fill="#0a58ce"/><path d="M114.619 295.868H84.582v-3.106h30.037c-.654 0-.654 3.106 0 3.106z" fill="url(#W)"/><path d="M84.829 295.868c-.065 0-.128-.026-.174-.072s-.072-.109-.072-.175v-2.612c0-.065.026-.128.072-.174s.109-.073.174-.073h30.446a.25.25 0 0 0 .247-.247v-.208a.25.25 0 0 0-.247-.247H82.863c-.17-.001-.339.033-.497.098a1.29 1.29 0 0 0-.421.282 1.3 1.3 0 0 0-.281.422c-.065.158-.098.328-.098.499v1.978a1.24 1.24 0 0 0 .361.862 1.23 1.23 0 0 0 .86.362h32.489a.25.25 0 0 0 .247-.247v-.208a.25.25 0 0 0-.247-.247l-30.446.007z" fill="url(#X)"/><path d="M218.437 297.973c.04-.176.035-.359-.015-.532s-.143-.33-.271-.457c-.137-.139-.3-.249-.48-.323s-.373-.111-.568-.108H79.691c-.254-.005-.505.049-.734.158s-.43.27-.586.47a1.21 1.21 0 0 0-.101 1.304l1.48 2.807c.192.329.469.601.802.787a2.12 2.12 0 0 0 1.09.266h134.509a1.53 1.53 0 0 0 .968-.286 1.54 1.54 0 0 0 .583-.827l.735-3.259z" class="D"/><g fill="#5397ff"><path d="M138.19 142.048l-.814-1.491 57.224-31.349 53.195 23.445 45.675-44.924.091-.054 53.632-31.735.861 1.467-53.543 31.683-46.349 45.584-53.481-23.571-56.491 30.946z"/><path d="M143.94 141.301a6.2 6.2 0 0 1-1.039 3.435 6.17 6.17 0 0 1-2.768 2.277c-1.126.468-2.366.591-3.562.352a6.16 6.16 0 0 1-3.158-1.692 6.19 6.19 0 0 1-1.687-3.166c-.238-1.199-.116-2.442.351-3.572s1.257-2.095 2.271-2.775a6.15 6.15 0 0 1 3.426-1.042 6.16 6.16 0 0 1 4.36 1.811c1.156 1.16 1.806 2.732 1.806 4.372zm56.683-29.737c.781-3.316-1.267-6.64-4.575-7.423s-6.623 1.272-7.403 4.588 1.268 6.64 4.575 7.423 6.623-1.271 7.403-4.588zm51.709 25.286c2.403-2.41 2.403-6.317 0-8.726s-6.299-2.41-8.703 0-2.403 6.316 0 8.726 6.3 2.41 8.703 0zm40.194-42.271c3.399 0 6.154-2.763 6.154-6.17s-2.755-6.17-6.154-6.17-6.154 2.763-6.154 6.17 2.755 6.17 6.154 6.17zm60.782-35.546c1.301-3.148-.19-6.758-3.33-8.062a6.15 6.15 0 0 0-8.04 3.339c-1.301 3.148.19 6.758 3.33 8.062a6.15 6.15 0 0 0 8.04-3.339z"/></g><path d="M294.825 320.693c-.809 1.202-4.022 28.367-4.526 38.4-.006.16.019.32.076.47s.143.287.254.403a1.2 1.2 0 0 0 .857.364c.282 0 .556-.102.77-.286a1.19 1.19 0 0 0 .401-.718l5.878-37.775-3.71-.858zm25.842 0c.809 1.202 4.023 28.367 4.526 38.4.007.16-.019.32-.075.47a1.18 1.18 0 0 1-.253.402 1.19 1.19 0 0 1-.391.271c-.147.062-.305.094-.465.094-.283 0-.556-.101-.771-.285a1.19 1.19 0 0 1-.401-.719l-5.88-37.775 3.71-.858z" class="G"/><path d="M289.963 318.574v.296c-.02 2.132 1.81 3.881 4.104 3.918l27.174.465c2.259.037 4.144-1.6 4.252-3.71l.015-.272c.113-2.189-1.727-4.031-4.094-4.073l-27.186-.495c-2.329-.024-4.24 1.709-4.265 3.871z" fill="#ffb550"/><path d="M342.826 358.107c-4.83 0-6.968-.416-7.923-.794a1.84 1.84 0 0 0 .645 1.025c.324.258.727.399 1.141.399h17.088c.128 0 .254-.03.368-.087s.214-.14.292-.242.13-.22.155-.345a.85.85 0 0 0-.013-.379c-1.941.158-6.085.423-11.753.423z" class="E"/><path d="M354.579 357.684a.81.81 0 0 0-.141-.292c-1.302-1.667-3.917-4.284-7.474-4.232-5.211.072-7.027.638-11.077.03l-.954 3.175c-.093.308-.104.635-.03.948.955.378 3.093.793 7.923.793 5.668 0 9.811-.264 11.753-.422z" fill="#4790ff"/><path d="M337.058 349.77l-1.171 3.999s2.597 1.184 4.883.232l.449-3.462-4.161-.769z" fill="url(#Y)"/><path d="M372.478 355.596c-3.766 3.035-5.69 4.054-6.66 4.36.326.256.728.393 1.142.39a1.83 1.83 0 0 0 1.135-.407l13.319-10.731c.1-.08.18-.181.233-.297a.83.83 0 0 0 .078-.37c-.003-.128-.035-.254-.094-.367s-.143-.211-.246-.286c-1.431 1.338-4.49 4.142-8.907 7.708z" class="E"/><path d="M381.375 347.88c-.086-.065-.184-.112-.289-.138-2.052-.475-5.717-.863-8.457 1.409-4.018 3.329-5.081 4.91-8.616 6.982l1.233 3.062c.121.293.317.549.568.742.986-.307 2.903-1.326 6.659-4.36 4.423-3.547 7.481-6.351 8.902-7.697z" fill="#4790ff"/><path d="M311.976 304.21s28.92 2.369 34.852 5.169-4.842 42.043-4.842 42.043-1.615.779-5.209-.342c0 0 3.685-28.962.942-35.244l-31.324-5.134 5.581-6.492z" fill="#458fff"/><path d="M361.14 350.62c.268.248 2.873 5.513 2.873 5.513s2.901-.628 3.49-2.473l-2.609-4.741-3.754 1.701z" fill="url(#Z)"/><path d="M294.558 303.967c-.623 1.695-.93 3.49-.905 5.295.042 2.018.847 3.943 2.252 5.388s3.305 2.299 5.316 2.39l34.188 1.566c.351.016.688.145.96.367s.466.528.552.869c.804 3.117 4.731 12.685 23.925 31.777.249.247.573.401.921.439a1.55 1.55 0 0 0 .993-.228l2.733-1.732a.63.63 0 0 0 .275-.384c.039-.159.014-.327-.068-.469l-19.907-34.084a7.71 7.71 0 0 0-4.686-3.48l-29.137-7.469-17.412-.245z" fill="#458fff"/><path d="M334.219 251.491s-9.619 5.727-13.365 8.873l7.717 4.318s4.171-4.83 8.14-6.843l-2.492-6.348z" fill="url(#a)"/><path d="M293.935 304.21s9.229 2.255 18.04 0c0 0 12.332-16.614 17.095-21.138 0 0 7.607 12.037 24.539 13.743l.945-2.117s-13.479-6.229-17.631-15.803-5.816-13.656-9.592-16.154c-2.35-1.556-3.759-2.619-4.486-3.198-.194-.155-.43-.248-.677-.263s-.493.045-.705.174c-4.005 2.448-22.857 15.395-27.528 44.756z" fill="#73aaff"/><path d="M328.572 282.447c.037-.001.074-.012.105-.032s.056-.049.073-.082.023-.071.019-.108a.2.2 0 0 0-.039-.102 36.73 36.73 0 0 1-4.531-8.058c-.02-.05-.058-.09-.107-.111a.2.2 0 0 0-.154-.005c-.025.009-.048.023-.067.042s-.034.04-.045.064a.2.2 0 0 0-.016.077c-.001.026.004.052.014.077a37.2 37.2 0 0 0 4.588 8.161c.019.024.043.044.071.057a.21.21 0 0 0 .089.02z" fill="#4991ff"/><path d="M352.593 293.593l1.906-.51 5.787-1.342a2.67 2.67 0 0 1 1.05-.032 2.69 2.69 0 0 1 .982.375l4.978 3.139-13.741-.023-.962-1.607z" fill="url(#b)"/><g class="B"><path d="M347.285 297.926h.066l29.352-.03c.348 0 .682-.139.928-.385a1.32 1.32 0 0 0 .384-.931c0-.349-.138-.683-.384-.93a1.31 1.31 0 0 0-.928-.385l-29.352.029a1.31 1.31 0 0 0-.906.379 1.32 1.32 0 0 0-.39.905c-.009.34.115.671.345.922a1.31 1.31 0 0 0 .887.423l-.002.003z"/><path d="M388.074 269.102l-.03.062-12.352 26.709a1.33 1.33 0 0 0-.066 1.024c.058.166.149.319.267.449s.261.236.42.31.332.116.508.121a1.31 1.31 0 0 0 .515-.086c.164-.064.313-.159.44-.281a1.33 1.33 0 0 0 .296-.431l12.352-26.71a1.32 1.32 0 0 0 .043-.987c-.114-.322-.348-.587-.654-.739s-.658-.178-.982-.074a1.31 1.31 0 0 0-.757.633z"/></g><g class="D"><path d="M360.356 299.402c-.129.534-12.377 46.594-15.483 58.269a2.12 2.12 0 0 0-.036.957 2.11 2.11 0 0 0 1.123 1.486c.288.145.606.221.928.223.468-.001.922-.16 1.289-.45a2.1 2.1 0 0 0 .737-1.152l13.595-55.274-2.153-4.059zm6.705 0c.129.534 12.377 46.594 15.483 58.269a2.12 2.12 0 0 1 .036.957 2.11 2.11 0 0 1-1.123 1.486c-.288.145-.606.221-.928.223a2.08 2.08 0 0 1-1.289-.451c-.367-.29-.626-.696-.736-1.151l-13.596-55.274 2.153-4.059z"/><path d="M367.572 297.896h-7.629v6.143c-.001.209.038.416.116.609s.194.37.34.519.32.266.512.348a1.58 1.58 0 0 0 .606.124h1.046v13.798c-.001.319.123.625.347.852a1.2 1.2 0 0 0 .847.357 1.2 1.2 0 0 0 .845-.357 1.2 1.2 0 0 0 .258-.392c.059-.146.089-.302.088-.46v-13.798h.533a2.07 2.07 0 0 0 .803-.165 2.11 2.11 0 0 0 .679-.46 2.12 2.12 0 0 0 .607-1.494l.002-5.624z"/></g><path d="M341.188 296.422h42.594c.29.001.572.099.8.278a1.31 1.31 0 0 1 .463.711l.594 2.338a1.32 1.32 0 0 1 .017.596 1.33 1.33 0 0 1-.247.543c-.123.16-.28.289-.46.378s-.379.136-.58.137l-43.706-.247a1.31 1.31 0 0 1-.573-.141c-.178-.089-.334-.218-.455-.377a1.32 1.32 0 0 1-.245-.538c-.039-.196-.035-.398.015-.591l.518-2.083c.068-.285.23-.538.46-.72a1.31 1.31 0 0 1 .805-.284z" fill="#1571fd"/><path d="M340.811 249.233s.089 6.855-1.016 9.969-1.278 5.362-5.042 4.496-5.986-3.858-6.319-7.563c0 0-.553-5.725.811-7.402s11.566.5 11.566.5z" fill="url(#c)"/><path d="M330.545 254.461l.444.185s-.246-4.525 1.628-4.511 8.786 1.393 11.1-.291c2.234-1.625 2.234-4.947.801-6.47-.044-.048-.105-.078-.17-.081a.25.25 0 0 0-.178.064l-.261.217a.26.26 0 0 1-.14.058c-.051.005-.103-.006-.148-.03s-.082-.063-.106-.109-.034-.097-.028-.149a.24.24 0 0 0-.011-.152c-.02-.049-.054-.09-.099-.117a.24.24 0 0 0-.148-.036c-.052.004-.102.024-.141.058-.703.495-2.302 1.123-5.589.403-4.662-1.021-8.261-.47-9.585 2.5-.015.046-.044.087-.081.117s-.084.048-.132.052a.25.25 0 0 1-.139-.029c-.042-.023-.077-.057-.1-.1-.246-.329-.71-.636-1.635-.346-1.608.494-2.22 3.304-.493 6.539.022.034.035.074.038.116s-.004.082-.022.12-.043.07-.076.095-.072.041-.113.047c-.599.111-1.611.547-.197 2.293 1.448 1.785 2.597 2.141 3.061 2.21.059.01.12-.002.172-.034s.091-.079.111-.136l.95-2.721c.01-.034.027-.066.051-.093s.052-.048.085-.063.068-.021.104-.021.071.009.103.024l.944.391z" fill="url(#d)"/><path d="M330.422 255.062s.589-4.106-1.5-3.764-.878 4.508.395 5.208l1.105-1.444z" fill="url(#e)"/><path d="M403.327 205.467c5.835-7.725 4.32-18.73-3.385-24.581s-18.68-4.332-24.516 3.393-4.32 18.731 3.385 24.582 18.68 4.331 24.516-3.394z" fill="url(#f)"/><path d="M395.78 210.536c8.645-3.555 12.779-13.463 9.233-22.131s-13.427-12.813-22.072-9.258-12.778 13.463-9.233 22.131 13.428 12.813 22.072 9.258z" fill="url(#g)"/><g fill="#fff"><path opacity=".6" d="M375.413 188.364a.55.55 0 0 1-.271-.077.56.56 0 0 1-.201-.198.58.58 0 0 1-.081-.272c-.003-.095.017-.19.06-.276 1.576-3.13 4.12-5.664 7.252-7.224a16.16 16.16 0 0 1 10.122-1.432.56.56 0 0 1 .363.236.57.57 0 0 1-.144.789c-.124.085-.276.118-.424.09a15.04 15.04 0 0 0-9.413 1.336c-2.912 1.452-5.278 3.809-6.745 6.719a.57.57 0 0 1-.215.229c-.091.055-.196.083-.303.08z"/><path d="M389.731 209.569c7.908 0 14.318-6.428 14.318-14.356s-6.41-14.357-14.318-14.357-14.318 6.428-14.318 14.357 6.411 14.356 14.318 14.356z" class="H"/></g><path d="M388.325 205.886v-1.563c-1.501-.055-2.981-.376-4.37-.949-.196-.09-.353-.247-.444-.443s-.108-.418-.049-.626l.397-1.454c.034-.126.094-.242.177-.343s.186-.181.303-.237a.89.89 0 0 1 .375-.09.89.89 0 0 1 .378.074c1.276.549 2.649.839 4.038.853 1.563 0 2.73-.531 2.73-1.622 0-.989-.903-1.568-3.076-2.154-3.103-.848-5.327-2.206-5.327-4.946 0-2.473 1.8-4.358 4.933-4.865v-1.56a.91.91 0 0 1 .907-.911h.915a.9.9 0 0 1 .348.07c.11.045.21.112.294.197a.93.93 0 0 1 .197.295.91.91 0 0 1 .069.349v1.402c1.176.03 2.341.24 3.453.623.214.077.392.233.496.435s.13.438.069.658l-.363 1.346a.91.91 0 0 1-.171.335c-.079.098-.179.179-.291.237s-.236.091-.363.098-.253-.012-.371-.057a9.43 9.43 0 0 0-3.396-.618c-1.858 0-2.388.771-2.388 1.461 0 .851 1.115 1.435 3.527 2.179 3.453 1.039 4.877 2.473 4.877 5.053 0 2.364-1.749 4.491-5.143 5.022v1.749a.91.91 0 0 1-.266.643c-.17.171-.401.267-.642.267h-.915c-.24 0-.471-.095-.641-.266s-.266-.401-.267-.642z" fill="url(#h)"/><path d="M460.712 195.632c11.896-11.927 11.896-31.266 0-43.194s-31.183-11.928-43.079 0-11.896 31.267 0 43.194 31.183 11.928 43.079 0z" fill="url(#i)"/><path d="M467.881 180.778c3.701-15.881-6.139-31.762-21.978-35.473s-31.677 6.156-35.377 22.037 6.139 31.762 21.978 35.473 31.677-6.156 35.377-22.037z" fill="url(#j)"/><g fill="#fff"><path opacity=".6" d="M414.89 162.337c-.097 0-.192-.025-.276-.072s-.155-.116-.206-.198-.079-.177-.083-.274.016-.193.059-.279a27.67 27.67 0 0 1 10.221-11.191c4.38-2.704 9.425-4.128 14.568-4.113 1.679 0 3.355.152 5.007.453.147.027.278.112.363.236a.57.57 0 0 1 .091.424c-.027.148-.112.279-.236.364a.56.56 0 0 1-.423.091 26.85 26.85 0 0 0-4.802-.433 26.47 26.47 0 0 0-13.973 3.947c-4.2 2.594-7.596 6.311-9.804 10.734-.048.093-.12.172-.21.227a.56.56 0 0 1-.296.084z"/><path d="M439.814 199.674c13.767 0 24.927-11.19 24.927-24.993s-11.16-24.993-24.927-24.993-24.926 11.19-24.926 24.993 11.16 24.993 24.926 24.993z" class="H"/></g><path d="M437.37 193.259v-2.721c-2.614-.096-5.19-.656-7.609-1.654a1.57 1.57 0 0 1-.778-.767 1.58 1.58 0 0 1-.09-1.09l.69-2.533a1.6 1.6 0 0 1 .31-.595c.144-.174.324-.315.528-.413a1.58 1.58 0 0 1 .651-.158c.225-.005.45.039.657.127a18.3 18.3 0 0 0 7.025 1.484c2.713 0 4.753-.927 4.753-2.824 0-1.711-1.569-2.72-5.353-3.747-5.399-1.484-9.276-3.84-9.276-8.606 0-4.303 3.137-7.59 8.583-8.468v-2.72c0-.209.041-.415.121-.607s.196-.367.343-.514.321-.263.513-.343.397-.12.604-.119h1.594c.207 0 .412.041.604.12s.365.196.512.343.263.322.342.514.12.398.12.606v2.44c2.054.053 4.087.419 6.031 1.086a1.58 1.58 0 0 1 .865.759c.183.353.226.762.122 1.145l-.634 2.342a1.57 1.57 0 0 1-.804.997 1.56 1.56 0 0 1-.63.171c-.22.013-.44-.021-.646-.099a16.36 16.36 0 0 0-5.919-1.078c-3.229 0-4.151 1.342-4.151 2.544 0 1.484 1.936 2.501 6.136 3.794 5.999 1.806 8.493 4.306 8.493 8.792 0 4.12-3.047 7.823-8.954 8.747v3.042c0 .209-.041.415-.12.607a1.59 1.59 0 0 1-.343.514c-.147.148-.321.264-.513.344a1.57 1.57 0 0 1-.605.121h-1.593a1.56 1.56 0 0 1-.604-.121 1.57 1.57 0 0 1-.513-.343 1.6 1.6 0 0 1-.342-.513c-.079-.192-.12-.398-.12-.606z" fill="url(#k)"/><path d="M490.193 251.407c5.029-16.609-4.322-34.161-20.886-39.204s-34.07 4.333-39.099 20.942 4.321 34.161 20.885 39.204 34.07-4.333 39.1-20.942z" fill="url(#l)"/><path d="M481.611 263.744c11.834-11.866 11.834-31.105 0-42.97s-31.022-11.866-42.856 0-11.834 31.104 0 42.97 31.021 11.866 42.856 0z" fill="url(#m)"/><g fill="#fff"><path opacity=".6" d="M435.194 230.21c-.086-.002-.17-.023-.246-.062a.57.57 0 0 1-.28-.33c-.046-.143-.034-.298.033-.432a28.62 28.62 0 0 1 12.789-12.742c5.523-2.753 11.785-3.641 17.852-2.532.148.027.279.112.364.235a.57.57 0 0 1 .091.424c-.026.148-.111.279-.234.365s-.275.118-.423.091c-1.632-.295-3.287-.444-4.945-.445a27.25 27.25 0 0 0-14.388 4.063 27.35 27.35 0 0 0-10.095 11.053.56.56 0 0 1-.214.231.57.57 0 0 1-.304.081z"/><path d="M485.75 248.864c3.29-13.814-5.211-27.687-18.988-30.985s-27.613 5.226-30.903 19.039 5.212 27.687 18.989 30.985 27.613-5.225 30.902-19.039z" class="H"/></g><path d="M458.325 262.038v-2.799c-2.908-.116-5.787-.804-7.829-1.702-.352-.158-.636-.438-.8-.789a1.62 1.62 0 0 1-.093-1.122l.708-2.607c.062-.226.171-.436.321-.615a1.62 1.62 0 0 1 .546-.426c.211-.101.441-.156.674-.16s.465.042.679.135a18.87 18.87 0 0 0 7.229 1.526c2.802 0 4.891-.952 4.891-2.906 0-1.761-1.615-2.807-5.51-3.855-5.554-1.524-9.543-3.957-9.543-8.857 0-4.429 3.229-7.81 8.833-8.712v-2.8a1.63 1.63 0 0 1 .476-1.152 1.62 1.62 0 0 1 1.149-.478h1.638c.214 0 .425.042.623.124s.377.201.528.353a1.63 1.63 0 0 1 .477 1.153v2.513a20.7 20.7 0 0 1 6.206 1.117 1.62 1.62 0 0 1 1.011 1.959l-.654 2.409c-.058.219-.162.424-.305.601s-.32.321-.522.425-.423.163-.649.176-.453-.023-.665-.104a16.91 16.91 0 0 0-6.084-1.108c-3.325 0-4.275 1.383-4.275 2.619 0 1.524 1.996 2.572 6.317 3.905 6.166 1.858 8.736 4.427 8.736 9.047 0 4.236-3.132 8.047-9.212 9v3.13a1.63 1.63 0 0 1-.476 1.153c-.305.306-.719.477-1.15.477h-1.64c-.214.002-.427-.04-.625-.121a1.62 1.62 0 0 1-.885-.882 1.63 1.63 0 0 1-.125-.627z" fill="url(#n)"/><path d="M523.273 201.178c.959-12.681-8.515-23.741-21.162-24.703s-23.678 8.537-24.638 21.218 8.514 23.741 21.162 24.704 23.678-8.538 24.638-21.219z" fill="url(#o)"/><path d="M520.49 209.017c5.252-11.11.527-24.386-10.554-29.653s-24.322-.528-29.574 10.583-.527 24.386 10.554 29.653 24.322.528 29.574-10.583z" fill="url(#p)"/><g fill="#fff"><path opacity=".6" d="M482.084 190.763a.54.54 0 0 1-.246-.059.57.57 0 0 1-.28-.33c-.046-.142-.034-.298.033-.432 1.746-3.502 4.432-6.445 7.756-8.499s7.154-3.136 11.059-3.124a21.13 21.13 0 0 1 3.798.344c.148.027.279.111.364.235s.119.277.092.425a.56.56 0 0 1-.08.207c-.04.063-.092.117-.154.159s-.13.072-.203.087a.55.55 0 0 1-.221.002 20.08 20.08 0 0 0-3.596-.324 19.81 19.81 0 0 0-10.462 2.955 19.88 19.88 0 0 0-7.342 8.035.56.56 0 0 1-.212.236.57.57 0 0 1-.306.083z"/><path d="M509.6 216.643c9.193-4.829 12.742-16.217 7.925-25.435s-16.174-12.776-25.367-7.947-12.742 16.217-7.925 25.435 16.173 12.776 25.367 7.947z" class="H"/></g><path d="M499.033 213.937v-2.048c-1.97-.069-3.911-.488-5.735-1.237-.258-.116-.467-.321-.587-.578a1.19 1.19 0 0 1-.067-.822l.518-1.909c.045-.164.125-.317.234-.448s.245-.238.398-.312.321-.114.491-.118.339.029.495.097a13.84 13.84 0 0 0 5.298 1.118c2.052 0 3.584-.698 3.584-2.13 0-1.291-1.184-2.057-4.038-2.824-4.069-1.118-6.992-2.896-6.992-6.49 0-3.244 2.365-5.722 6.472-6.385v-2.05a1.2 1.2 0 0 1 .349-.845 1.19 1.19 0 0 1 .842-.35h1.202c.315.001.618.127.841.351s.349.527.35.844v1.842c1.548.038 3.081.314 4.546.819a1.18 1.18 0 0 1 .65.571 1.19 1.19 0 0 1 .09.863l-.476 1.766c-.044.161-.12.31-.225.44a1.17 1.17 0 0 1-.382.31 1.18 1.18 0 0 1-.476.129c-.165.009-.331-.016-.486-.075a12.38 12.38 0 0 0-4.46-.812c-2.436 0-3.132 1.012-3.132 1.92 0 1.115 1.463 1.884 4.63 2.861 4.521 1.36 6.4 3.242 6.4 6.628 0 3.104-2.296 5.896-6.751 6.593v2.293a1.19 1.19 0 0 1-.089.457c-.06.145-.148.276-.258.387s-.242.199-.386.259-.299.091-.455.091h-1.204c-.158 0-.314-.031-.459-.092a1.19 1.19 0 0 1-.388-.262 1.18 1.18 0 0 1-.257-.392 1.19 1.19 0 0 1-.087-.46z" fill="url(#q)"/><path d="M264.393 36.765l.338-.539c.043-.068.105-.121.177-.155s.154-.046.234-.036.154.043.216.094a.43.43 0 0 1 .132.196l.617-.158c.107-.021.218 0 .311.059a.42.42 0 0 1 .183.258c.026.107.01.219-.045.314s-.144.165-.249.195l-1.313.363-.128.037-1.009.275.536-.903zm1.536-2.32l1.268-1.731c.07-.086.17-.14.279-.153s.22.018.307.085.146.166.162.275a.43.43 0 0 1-.075.31l-1.248 1.699c-.065.092-.164.154-.275.173s-.225-.007-.317-.071c-.031-.024-.06-.051-.086-.082-.056-.072-.087-.159-.09-.25s.024-.18.075-.255zm1.941 1.788a.43.43 0 0 1 .08-.315c.067-.09.167-.15.278-.167l2.153-.208c.056-.002.112.006.164.025a.43.43 0 0 1 .142.086c.041.038.074.083.098.134a.43.43 0 0 1 .039.161c.003.056-.006.112-.025.164a.42.42 0 0 1-.086.142c-.038.041-.083.075-.134.098a.42.42 0 0 1-.161.04c-.692.031-1.381.097-2.067.198-.073.012-.147.004-.216-.023a.42.42 0 0 1-.176-.13.41.41 0 0 1-.089-.205zm4.228-.262c.004-.056.02-.11.045-.16s.06-.094.102-.13.092-.064.145-.081a.42.42 0 0 1 .164-.02 14.34 14.34 0 0 1 2.156.341c.057.01.111.032.159.064s.089.073.121.122a.42.42 0 0 1 .063.16c.01.057.008.115-.006.172s-.038.109-.072.156-.079.085-.129.114-.105.047-.163.054a.42.42 0 0 1-.17-.015 13.27 13.27 0 0 0-2.028-.319c-.057-.004-.113-.021-.164-.048a.42.42 0 0 1-.132-.11c-.068-.084-.101-.191-.091-.299zm-3.569-4.927l1.389-1.63c.076-.078.179-.123.288-.127s.214.035.296.107.132.173.141.282-.023.217-.091.302l-1.367 1.605c-.072.087-.175.142-.287.152s-.223-.024-.31-.095a.29.29 0 0 1-.061-.062.42.42 0 0 1-.093-.268c0-.097.034-.191.095-.267zm7.705 5.8c.047-.102.132-.181.237-.221s.221-.036.323.011c.479.218.94.472 1.379.762l.493.319a.42.42 0 0 1 .122.112c.033.045.056.096.07.15s.015.11.007.165-.028.108-.057.155-.067.089-.111.122-.096.057-.15.07a.42.42 0 0 1-.165.007c-.055-.009-.107-.028-.155-.057l-.528-.334a9.3 9.3 0 0 0-1.262-.697c-.051-.023-.097-.056-.135-.097s-.067-.089-.087-.141-.028-.108-.026-.164a.43.43 0 0 1 .038-.161h.007zm5.77 6.02c.057-.058.131-.099.211-.116s.163-.012.24.017a3.15 3.15 0 0 1 1.273-.087c.111.013.213.069.283.157s.103.2.091.312-.068.214-.155.285-.199.104-.311.092c-.472-.089-.961.005-1.366.265l-.54-.651.274-.274zm-2.058-3.987a.43.43 0 0 1 .091-.139c.039-.04.085-.072.137-.094s.106-.033.162-.034.111.011.163.032a7.61 7.61 0 0 0 1.931.514c.058.003.115.018.167.044a.44.44 0 0 1 .135.107.42.42 0 0 1 .081.152c.017.056.022.114.015.172s-.025.113-.054.164a.43.43 0 0 1-.114.129c-.047.035-.1.059-.157.072a.42.42 0 0 1-.171.004 8.46 8.46 0 0 1-2.149-.569c-.067-.028-.127-.072-.172-.129s-.081-.128-.093-.203a.42.42 0 0 1 .024-.222h.004zm-8.578-11.037l1.509-1.516c.082-.078.191-.12.304-.118s.219.05.297.132a.43.43 0 0 1 .118.304c-.003.113-.05.22-.132.298l-1.479 1.484c-.039.04-.084.073-.135.095s-.106.035-.161.036a.42.42 0 0 1-.163-.029c-.051-.021-.099-.051-.138-.09-.015-.013-.028-.027-.04-.042-.064-.079-.098-.178-.095-.28s.041-.199.11-.274h.005zm12.12 13.506l1.451-1.541a.42.42 0 0 1 .288-.12c.108-.002.213.038.293.111s.129.173.137.281a.42.42 0 0 1-.092.299l-1.48 1.558c-.038.041-.084.073-.135.096a.42.42 0 0 1-.325.007.42.42 0 0 1-.139-.09l-.037-.042a.42.42 0 0 1-.088-.286c.006-.103.05-.2.122-.273h.005zm1.85 2.1c.013-.054.037-.106.07-.151s.074-.084.122-.113.1-.049.156-.057a.42.42 0 0 1 .165.007l2.04.416c.111.017.211.078.277.169s.094.205.077.316-.078.212-.169.278-.204.094-.316.077l-2.108-.43a.42.42 0 0 1-.232-.148.43.43 0 0 1-.085-.172c-.015-.063-.015-.129-.002-.192h.005zm-1.27-3.898a.42.42 0 0 1-.013-.166c.006-.056.023-.109.051-.158s.064-.092.108-.126a.41.41 0 0 1 .148-.075 5.24 5.24 0 0 0 1.435-.68l.323-.188a1.11 1.11 0 0 1 .121-.052c.052-.017.107-.023.162-.019s.108.02.157.045.092.06.128.102.062.091.078.143c.034.109.024.227-.028.328s-.14.179-.248.216a2.62 2.62 0 0 0-.247.143 6.05 6.05 0 0 1-1.657.777.42.42 0 0 1-.245-.003c-.08-.026-.15-.074-.201-.14-.033-.045-.058-.095-.072-.148zm-9.619-14.673l1.455-1.222.19-.151c.088-.069.2-.101.311-.088s.213.07.283.158c.035.044.061.094.076.147a.42.42 0 0 1 .013.165.4.4 0 0 1-.051.158c-.027.049-.063.091-.107.126l-.185.151-1.428 1.197c-.084.074-.195.111-.307.104s-.216-.059-.29-.143v-.015a.42.42 0 0 1-.097-.301c.007-.109.056-.211.137-.285zm15.045 19.29c.003-.056.016-.111.039-.161s.057-.096.098-.134.089-.067.141-.086.108-.027.164-.025a20.82 20.82 0 0 0 2.074-.02c.057-.006.115-.001.17.016s.106.045.15.082.08.083.105.135.041.108.044.165-.005.115-.024.169-.05.104-.089.146a.43.43 0 0 1-.14.099.42.42 0 0 1-.166.036 21.11 21.11 0 0 1-2.161.02c-.061-.002-.12-.018-.173-.046s-.101-.067-.138-.115a.41.41 0 0 1-.094-.287v.005zm4.228-.161a.44.44 0 0 1 .007-.165c.014-.054.038-.105.071-.15s.074-.083.122-.111.1-.048.155-.056l.444-.069a14.24 14.24 0 0 0 1.576-.354c.055-.02.113-.028.171-.025a.42.42 0 0 1 .167.046c.052.027.098.064.135.109s.064.097.08.154a.44.44 0 0 1 .013.173c-.008.058-.028.114-.058.164s-.07.093-.117.127a.43.43 0 0 1-.159.069c-.548.157-1.105.283-1.667.376l-.459.072a.42.42 0 0 1-.395-.156.41.41 0 0 1-.076-.208l-.01.005zm-16.032-21.19c-.065-.093-.09-.207-.07-.318s.081-.21.173-.275l1.791-1.182a.42.42 0 0 1 .331-.073.42.42 0 0 1 .16.068c.048.033.089.076.119.126a.42.42 0 0 1 .059.163.44.44 0 0 1-.011.174.43.43 0 0 1-.08.154c-.036.045-.082.083-.134.11l-1.746 1.155a.42.42 0 0 1-.575-.082l-.017-.02zm20.114 20.136c-.024-.051-.037-.106-.039-.162s.007-.112.026-.164.05-.101.088-.141a.42.42 0 0 1 .135-.097c.622-.283 1.223-.614 1.795-.989.094-.056.206-.074.312-.049s.199.089.26.181a.43.43 0 0 1 .063.31c-.02.108-.08.204-.169.268a14.66 14.66 0 0 1-1.909 1.061c-.086.039-.182.048-.274.026a.43.43 0 0 1-.234-.148c-.016-.032-.027-.066-.034-.101l-.02.005zm-16.526-22.404c-.052-.1-.062-.217-.028-.324s.109-.197.208-.25l1.944-.925c.102-.038.215-.036.316.008s.18.123.223.224a.43.43 0 0 1-.206.55l-1.884.898c-.088.045-.188.059-.284.039s-.182-.073-.244-.15a.48.48 0 0 1-.03-.074l-.015.005zm20.169 19.589c.513-.46.994-.956 1.438-1.484.073-.086.177-.139.289-.148s.223.027.309.1.139.177.148.29-.027.224-.1.31c-.471.554-.979 1.076-1.522 1.561-.041.037-.09.066-.143.084a.42.42 0 0 1-.324-.02c-.05-.025-.095-.059-.132-.101l-.015-.017a.43.43 0 0 1-.081-.303c.013-.108.065-.206.148-.276l-.015.005zM285.146 18.82a.44.44 0 0 1-.02-.165.41.41 0 0 1 .045-.16c.025-.05.06-.094.102-.13a.42.42 0 0 1 .144-.081l2.079-.579c.11-.025.226-.005.321.055a.43.43 0 0 1 .188.266c.024.11.005.226-.056.321s-.155.163-.265.188l-2.003.556c-.082.027-.17.028-.253.003a.43.43 0 0 1-.211-.142c-.025-.043-.045-.09-.056-.139l-.015.005zM304.111 37c.356-.534.654-1.104.89-1.702l.134-.932c.016-.112.076-.213.166-.28s.204-.096.316-.08.212.076.279.167a.43.43 0 0 1 .08.316l-.134.908c-.091.608-.986 2.043-1.008 2.058-.061.095-.156.162-.266.187s-.224.005-.319-.056a.39.39 0 0 1-.104-.094c-.055-.07-.086-.156-.09-.245s.021-.178.071-.252l-.015.005zm-14.856-19.191c-.013-.112.018-.224.088-.313s.171-.146.282-.159a19.86 19.86 0 0 1 2.158-.143.42.42 0 0 1 .3.125c.08.08.125.188.125.301s-.045.221-.125.301a.42.42 0 0 1-.3.125c-.691.007-1.381.053-2.067.136-.071.008-.144-.002-.211-.029a.44.44 0 0 1-.171-.127.44.44 0 0 1-.064-.22l-.015.005zm4.225-.141a.43.43 0 0 1 .154-.286c.087-.071.198-.105.31-.095.718.073 1.432.183 2.138.331.111.023.207.089.269.184s.083.21.059.32-.089.207-.183.269-.209.083-.32.06a19.43 19.43 0 0 0-2.047-.319.43.43 0 0 1-.159-.048c-.049-.026-.092-.062-.128-.105a.43.43 0 0 1-.077-.147.42.42 0 0 1-.016-.165zm11.96 14.591l.304-2.102a.43.43 0 0 1 .049-.164c.028-.051.065-.095.11-.131a.42.42 0 0 1 .153-.077c.056-.015.114-.019.171-.01s.112.028.161.058.091.07.125.117a.43.43 0 0 1 .068.157c.012.056.013.115.001.172l-.303 2.102a.43.43 0 0 1-.166.28c-.09.068-.204.097-.315.081s-.211-.077-.277-.168a.43.43 0 0 1-.081-.315zm-7.804-13.812c.017-.053.044-.103.08-.145a.42.42 0 0 1 .13-.103c.049-.026.103-.041.159-.045a.42.42 0 0 1 .164.02 21.62 21.62 0 0 1 2.018.764c.055.019.105.05.148.089s.077.088.1.141.036.111.036.17a.43.43 0 0 1-.034.17c-.024.054-.057.102-.1.142a.43.43 0 0 1-.148.09.42.42 0 0 1-.171.024c-.058-.004-.115-.02-.167-.047l-1.943-.742c-.079-.026-.148-.074-.2-.139-.041-.055-.067-.119-.077-.187s-.003-.137.02-.201h-.015zm8.411 9.606l.306-2.102c.021-.107.082-.201.171-.264s.198-.089.306-.074.205.072.272.157a.43.43 0 0 1 .09.302l-.304 2.105c-.014.079-.05.153-.104.213s-.124.102-.202.124a.42.42 0 0 1-.236-.004c-.077-.024-.145-.069-.198-.13-.035-.046-.061-.098-.076-.154s-.018-.115-.01-.172h-.015zm-4.499-8.001c.054-.099.145-.172.252-.204s.224-.02.323.034l1.847 1.103c.051.029.095.067.129.113a.43.43 0 0 1 .074.156c.014.056.016.115.006.172a.42.42 0 0 1-.062.16c-.032.049-.073.09-.121.123a.42.42 0 0 1-.159.064c-.057.01-.116.009-.172-.004a.43.43 0 0 1-.156-.072l-1.791-1.068a.42.42 0 0 1-.128-.106.43.43 0 0 1-.084-.231c-.005-.084.015-.167.057-.239h-.015zm3.587 2.253c.033-.045.075-.082.123-.111s.101-.047.156-.055.112-.005.166.009.104.038.149.072l1.63 1.313.178.151-.042.285c-.013.092-.055.177-.121.242a.42.42 0 0 1-.507.067c-.08-.046-.143-.117-.179-.203l-1.48-1.177c-.028-.021-.054-.046-.076-.074-.055-.076-.083-.169-.08-.263s.037-.184.097-.257h-.014z" class="G"/><path d="M305.598 30.63s-4.336 8.354-10.793 5.824-12.352-6.677-15.347-5.389c0 0 11.415-14.423 26.251-3.754l-.111 3.319z" fill="url(#r)"/><path d="M322.623 40.712s-1.123 9.175-4.033 10.315c-2.77 1.083-23.563-.791-25.585-.989a.17.17 0 0 1-.113-.057c-.029-.033-.044-.075-.043-.119a2.36 2.36 0 0 1 .266-1.07 2.35 2.35 0 0 1 .721-.832c2.96-2.122 11.906-8.374 15.211-9.398 4.001-1.219 13.576 2.149 13.576 2.149z" class="J"/><path d="M300.481 49.47c.018.023.041.042.067.055s.054.022.083.024c.114 0 11.519.836 16.442 1.002.429.014.852-.097 1.219-.319s.663-.546.85-.933a33.25 33.25 0 0 0 2.314-6.301c.006-.027.007-.056.003-.083s-.014-.054-.029-.078-.034-.045-.056-.061-.049-.028-.076-.035-.055-.008-.083-.003a.21.21 0 0 0-.078.029c-.024.015-.044.034-.061.057a.21.21 0 0 0-.034.076c-.548 2.144-1.312 4.227-2.282 6.215-.151.313-.389.576-.686.756a1.78 1.78 0 0 1-.986.258c-4.916-.166-16.311-.989-16.427-1.004-.056-.003-.112.015-.154.052s-.069.089-.073.145.014.106.047.148z" class="B"/><path d="M322.899 19.233s-.883-9.202-3.764-10.417c-2.74-1.155-23.575.181-25.602.312-.044.004-.084.023-.114.055s-.046.074-.047.118c-.005.373.078.742.243 1.077a2.36 2.36 0 0 0 .702.85c2.918 2.196 11.686 8.681 14.964 9.786 3.959 1.338 13.618-1.781 13.618-1.781z" class="J"/><path d="M300.989 10.174c.021.027.047.048.078.062a.2.2 0 0 0 .097.017c.114 0 11.529-.537 16.447-.574a1.79 1.79 0 0 1 1.645 1.054 32.74 32.74 0 0 1 2.121 6.274c.014.053.048.098.094.127s.103.038.156.027.1-.043.131-.088.043-.101.034-.154a32.5 32.5 0 0 0-2.149-6.361c-.177-.391-.464-.723-.826-.954s-.782-.353-1.211-.349c-4.933.037-16.348.571-16.461.576-.04.001-.078.013-.11.035s-.059.052-.075.088-.022.075-.017.114.021.076.046.106z" class="B"/><path d="M353.59 40.994c-4.76 1.494-9.724 2.23-14.711 2.181-17.053-.171-29.558-3.255-33.09-4.227-.313-.088-.597-.259-.821-.495s-.382-.528-.454-.846a32.01 32.01 0 0 1 .078-15.249c.117-.469.36-.896.703-1.236a2.62 2.62 0 0 1 1.241-.688c4.139-.989 16.363-3.502 32.679-3.242a47.51 47.51 0 0 1 14.552 2.53c2.255 8.505.871 16.684-.177 21.271z" class="J"/><path d="M353.767 19.723c9.326 3.163 15.441 8.379 17.399 10.219.091.085.163.187.211.302s.073.237.072.361a.91.91 0 0 1-.081.359.89.89 0 0 1-.219.296c-2 1.783-8.209 6.809-17.559 9.734 1.048-4.588 2.432-12.766.177-21.271z" class="E"/><path d="M348.157 30.317c.061-4.754-3.47-8.655-7.887-8.712s-8.048 3.75-8.109 8.505 3.47 8.655 7.887 8.712 8.048-3.751 8.109-8.505z" class="D"/><path d="M340.485 23.119c-3.52-.047-6.413 2.988-6.462 6.776s2.765 6.895 6.284 6.94 6.413-2.988 6.463-6.776-2.765-6.895-6.285-6.939z" class="E"/><path d="M341.522 34.794c.025.033.061.058.101.071s.083.013.123.001c2.173-.636 3.712-2.72 3.742-5.1a5.61 5.61 0 0 0-.247-1.731c-.017-.053-.055-.098-.105-.124s-.108-.031-.161-.015c-.027.008-.052.022-.073.04s-.04.04-.053.065-.02.052-.022.08.001.056.01.083c.161.521.239 1.064.231 1.61-.027 2.181-1.44 4.113-3.435 4.699-.055.016-.1.053-.127.102s-.034.108-.019.162c.008.021.02.04.035.057z" class="B"/><path d="M324.169 24.321c-2.918-.04-5.315 2.473-5.357 5.617s2.291 5.718 5.211 5.755 5.316-2.473 5.358-5.616-2.294-5.718-5.212-5.755z" class="D"/><path d="M324.305 25.317c-2.326-.03-4.238 1.979-4.27 4.476s1.828 4.555 4.151 4.585 4.238-1.978 4.27-4.476-1.825-4.553-4.151-4.585z" class="E"/><path d="M324.931 33.078c.026.033.062.057.102.069s.082.014.123.002c.73-.23 1.368-.687 1.822-1.305s.701-1.365.703-2.133a3.77 3.77 0 0 0-.17-1.175c-.019-.051-.057-.093-.105-.117s-.105-.028-.157-.012-.095.052-.122.099-.034.103-.02.156c.104.338.155.69.15 1.044-.001.677-.217 1.335-.616 1.881a3.18 3.18 0 0 1-1.604 1.154c-.033.01-.063.029-.087.053s-.043.054-.053.087-.013.068-.007.102.02.066.041.094z" class="B"/><g class="G"><path d="M258.695 36.444l-2.782.682a.5.5 0 0 1-.212.047c-.073 0-.145-.017-.21-.049a.49.49 0 0 1-.266-.329.48.48 0 0 1-.004-.217c.014-.072.045-.139.089-.198a.49.49 0 0 1 .373-.197h.032l2.714-.675h.032a.49.49 0 0 1 .394.032.5.5 0 0 1 .155.13c.042.053.072.115.089.182s.021.135.01.202-.035.132-.072.189a.5.5 0 0 1-.142.144c-.057.038-.121.063-.188.075l-.012-.02zm-5.599 1.175l-2.841.307a.47.47 0 0 1-.184-.016c-.06-.018-.116-.047-.164-.086a.47.47 0 0 1-.119-.142.5.5 0 0 1-.055-.177.48.48 0 0 1 .017-.185.46.46 0 0 1 .085-.164.48.48 0 0 1 .142-.119c.055-.03.115-.049.177-.055h.027l2.78-.312h.029a.48.48 0 0 1 .508.427c.014.123-.02.246-.094.345a.48.48 0 0 1-.305.185l-.003-.007zm-5.694.442l-2.849-.02c-.118-.009-.227-.061-.308-.148a.47.47 0 0 1 0-.637c.081-.087.19-.139.308-.148h.025l2.799.012h.027a.47.47 0 0 1 .332.138c.087.088.137.208.137.332s-.05.244-.137.332a.47.47 0 0 1-.332.138h-.002zm-5.696-.188l-2.831-.299c-.06-.005-.118-.023-.171-.051a.47.47 0 0 1-.223-.271c-.017-.058-.023-.118-.017-.178s.025-.118.053-.171.068-.1.115-.137.101-.066.159-.082a.45.45 0 0 1 .178-.014h.019l2.792.284h.023a.46.46 0 1 1-.094.918l-.003.002zm-5.648-.719l-2.8-.532a.44.44 0 0 1-.303-.18.45.45 0 0 1-.075-.165c-.014-.06-.014-.121-.003-.18a.46.46 0 0 1 .069-.167c.034-.05.078-.093.129-.126s.109-.054.169-.064a.44.44 0 0 1 .179.008h.015l2.765.514h.017c.058.011.114.033.163.065s.092.074.125.123.057.104.069.162a.45.45 0 0 1 .002.176.46.46 0 0 1-.065.163.47.47 0 0 1-.122.126.45.45 0 0 1-.337.071l.003.005zm-5.569-1.165l-2.748-.725c-.106-.034-.194-.108-.248-.205a.44.44 0 0 1-.039-.319.43.43 0 0 1 .506-.316l2.714.707h.014a.44.44 0 0 1 .25.207c.053.098.068.213.04.322a.44.44 0 0 1-.509.322l.02.007zm-5.474-1.534l-2.698-.885a.42.42 0 0 1-.156-.076.44.44 0 0 1-.164-.297.44.44 0 0 1 .02-.172.42.42 0 0 1 .086-.15c.039-.044.086-.079.139-.103a.42.42 0 0 1 .169-.039c.058-.001.116.009.17.032l2.678.868h.013a.43.43 0 0 1 .275.54.43.43 0 0 1-.213.25c-.101.052-.218.061-.326.026l.007.007zm-5.372-1.847l-2.649-1.021a.41.41 0 0 1-.229-.218c-.044-.1-.047-.214-.008-.316a.41.41 0 0 1 .217-.229c.1-.044.214-.047.316-.008l2.634 1.004c.103.039.187.118.232.219a.42.42 0 0 1-.209.553c-.101.046-.216.049-.319.01l.015.007zm-5.273-2.1l-2.6-1.138a.41.41 0 0 1-.129-.09c-.037-.038-.066-.083-.085-.133s-.029-.102-.029-.155a.41.41 0 0 1 .034-.154.4.4 0 0 1 .089-.13c.038-.037.083-.066.132-.085a.41.41 0 0 1 .309.005l2.587 1.123c.099.044.177.124.216.225a.41.41 0 0 1-.227.53.4.4 0 0 1-.156.028.42.42 0 0 1-.156-.034l.015.007zm-5.178-2.327l-2.553-1.236a.39.39 0 0 1-.13-.09.4.4 0 0 1-.085-.134.38.38 0 0 1-.025-.157.39.39 0 0 1 .038-.154.41.41 0 0 1 .234-.204.39.39 0 0 1 .309.03l2.545 1.224a.39.39 0 0 1 .132.09.41.41 0 0 1 .086.135c.019.05.028.104.025.158a.4.4 0 0 1-.038.155.42.42 0 0 1-.097.128.4.4 0 0 1-.139.079.39.39 0 0 1-.312-.029l.01.003zm-5.083-2.522l-2.508-1.326c-.045-.023-.084-.055-.116-.094a.39.39 0 0 1-.086-.279.4.4 0 0 1 .136-.259.38.38 0 0 1 .131-.071c.048-.015.098-.02.147-.015s.098.019.143.042l2.501 1.311a.39.39 0 0 1 .162.522c-.048.091-.128.159-.226.19s-.203.021-.294-.026l.01.005zm-4.997-2.696l-2.467-1.402a.37.37 0 0 1-.175-.225c-.013-.047-.017-.096-.011-.145s.022-.095.046-.138a.37.37 0 0 1 .094-.11c.038-.03.082-.052.129-.065s.096-.017.145-.011.095.021.137.045l2.467 1.387c.08.052.138.134.16.227a.38.38 0 0 1-.253.451c-.091.029-.191.022-.277-.02l.005.005zm-4.911-2.837l-2.427-1.469a.37.37 0 0 1-.105-.096.35.35 0 0 1-.061-.129c-.012-.047-.014-.095-.007-.143s.024-.093.049-.135a.35.35 0 0 1 .096-.106c.038-.029.082-.049.129-.061a.36.36 0 0 1 .142-.007.37.37 0 0 1 .135.049l2.422 1.462c.08.052.138.133.159.227a.37.37 0 0 1-.539.404l.007.005zm-4.846-2.97l-2.388-1.533a.36.36 0 0 1-.102-.099.37.37 0 0 1-.057-.13c-.01-.046-.011-.095-.002-.142a.37.37 0 0 1 .051-.132c.026-.04.059-.075.099-.102a.36.36 0 0 1 .13-.057.37.37 0 0 1 .141-.003.36.36 0 0 1 .132.052l2.383 1.526c.041.026.076.059.104.099s.048.084.059.132a.35.35 0 0 1 .003.144.36.36 0 0 1-.152.238.37.37 0 0 1-.132.057.35.35 0 0 1-.144.001c-.048-.01-.092-.027-.133-.054l.008.005zm-4.749-3.096l-2.348-1.59c-.041-.026-.077-.059-.105-.099a.38.38 0 0 1-.058-.132.37.37 0 0 1-.001-.144.36.36 0 0 1 .055-.133c.027-.04.062-.075.103-.101a.38.38 0 0 1 .134-.053c.048-.009.096-.007.143.004s.092.032.131.06l2.346 1.583c.079.054.134.136.153.231a.36.36 0 0 1-.284.424.36.36 0 0 1-.271-.054l.002.005zm-4.678-3.215l-2.312-1.642a.36.36 0 0 1-.146-.233.36.36 0 0 1 .561-.353l2.306 1.637a.36.36 0 0 1 .085.501c-.055.078-.138.13-.232.146s-.19-.006-.267-.061l.005.005zm-4.632-3.215l-2.415-1.434-.02-.012c-.074-.051-.127-.129-.146-.217a.35.35 0 0 1 .042-.259c.046-.078.12-.135.207-.16s.179-.016.26.025l2.454 1.457c.081.048.14.127.163.218a.36.36 0 0 1-.256.434.35.35 0 0 1-.27-.039l-.019-.012zm-4.914-2.721l-2.575-1.118h-.022a.35.35 0 0 1-.112-.078c-.032-.033-.058-.072-.075-.115s-.025-.089-.024-.135.01-.092.029-.134.044-.081.077-.113a.37.37 0 0 1 .115-.074c.043-.017.089-.025.135-.025a.35.35 0 0 1 .134.029l2.619 1.13a.36.36 0 0 1 .183.467.35.35 0 0 1-.194.189c-.043.017-.089.025-.135.024a.35.35 0 0 1-.135-.03l-.02-.017zm-5.217-2.065l-2.696-.781h-.022a.35.35 0 0 1-.121-.062c-.035-.029-.065-.064-.087-.104a.35.35 0 0 1-.041-.13.33.33 0 0 1 .011-.136c.013-.044.034-.085.062-.121a.34.34 0 0 1 .104-.088c.04-.022.084-.036.129-.041s.091-.001.135.011l2.741.789a.36.36 0 0 1 .123.062c.036.029.067.064.09.104a.34.34 0 0 1 .043.131.34.34 0 0 1-.01.138.34.34 0 0 1-.06.124.35.35 0 0 1-.104.091c-.04.023-.084.038-.13.043a.35.35 0 0 1-.137-.011l-.03-.02zm-5.436-1.397l-2.775-.433h-.02c-.082-.022-.154-.074-.2-.146a.34.34 0 0 1-.051-.243.34.34 0 0 1 .124-.215.34.34 0 0 1 .236-.076l2.816.435c.077.027.142.08.183.15a.35.35 0 0 1 .046.232c-.012.08-.052.154-.113.208a.35.35 0 0 1-.219.088h-.023-.004zm-5.569-.68L151.355.69h-.022c-.086-.009-.166-.051-.223-.117a.35.35 0 0 1-.085-.237.35.35 0 0 1 .098-.232.35.35 0 0 1 .23-.104l2.848.077a.35.35 0 0 1 .14.022.34.34 0 0 1 .119.076c.035.033.061.074.079.118s.027.092.025.14a.33.33 0 0 1-.033.138.34.34 0 0 1-.085.113c-.036.031-.078.055-.124.069a.34.34 0 0 1-.14.014h-.022zm-5.609.024l-2.792.279h-.022a.34.34 0 0 1-.25-.075.34.34 0 0 1-.124-.23c-.009-.09.018-.18.075-.251a.34.34 0 0 1 .23-.124l2.836-.287a.34.34 0 0 1 .265.065c.037.029.068.064.091.105s.037.086.042.133 0 .094-.014.139-.038.086-.069.122a.34.34 0 0 1-.246.118h-.022V.79zm-5.567.737l-2.735.633h-.022c-.044.011-.09.014-.134.007a.34.34 0 0 1-.225-.137.33.33 0 0 1-.056-.123.34.34 0 0 1-.003-.135c.008-.045.025-.087.049-.125a.35.35 0 0 1 .094-.096c.038-.025.08-.043.124-.052l2.775-.645a.34.34 0 0 1 .272.028.33.33 0 0 1 .104.093.32.32 0 0 1 .059.127.33.33 0 0 1 .003.14c-.009.046-.027.09-.053.129s-.061.072-.101.097-.085.041-.131.048l-.02.01zm-5.426 1.44l-2.634.977h-.02a.33.33 0 0 1-.249-.018c-.077-.038-.139-.105-.168-.186a.34.34 0 0 1 .007-.251c.035-.08.099-.143.179-.176l2.671-.989c.041-.016.085-.024.13-.023a.34.34 0 0 1 .238.104.35.35 0 0 1 .071.112c.016.042.024.086.023.131a.36.36 0 0 1-.028.129c-.018.041-.044.078-.076.109a.33.33 0 0 1-.112.071l-.032.01zm-5.18 2.119l-2.467 1.328h-.022a.33.33 0 0 1-.252.025c-.085-.026-.155-.083-.197-.161s-.05-.169-.025-.253a.33.33 0 0 1 .161-.197l2.513-1.353c.078-.042.169-.051.254-.026s.156.084.198.162a.33.33 0 0 1-.136.452l-.027.022zm-4.857 2.827l-2.269 1.655h-.017a.33.33 0 0 1-.237.041c-.081-.016-.153-.063-.201-.13s-.071-.15-.061-.233.049-.158.112-.213l2.303-1.679c.035-.03.075-.053.119-.066a.33.33 0 0 1 .135-.013c.046.005.09.02.129.043s.074.054.101.091.046.079.056.124.01.091.001.136-.028.088-.054.125a.33.33 0 0 1-.1.093l-.017.025zm-4.435 3.448l-2.054 1.917v.015a.33.33 0 0 1-.229.072c-.083-.006-.161-.043-.217-.104s-.088-.141-.088-.224a.33.33 0 0 1 .087-.224l2.082-1.946a.35.35 0 0 1 .109-.078.31.31 0 0 1 .131-.027c.045 0 .09.009.131.027s.078.044.109.077.055.072.07.115.021.088.018.133a.34.34 0 0 1-.037.129.32.32 0 0 1-.085.104l-.027.015zm-4 3.952l-1.823 2.144h-.012c-.056.066-.135.106-.221.113s-.17-.02-.236-.076-.106-.135-.113-.221.021-.171.076-.236l1.848-2.171a.32.32 0 0 1 .22-.113c.085-.007.171.021.236.076s.106.135.113.221a.32.32 0 0 1-.076.236l-.012.027zm-3.522 4.387l-1.567 2.34v.015a.31.31 0 0 1-.087.096.32.32 0 0 1-.117.054c-.043.01-.087.011-.13.003a.32.32 0 0 1-.12-.049c-.036-.024-.067-.056-.091-.092a.31.31 0 0 1-.047-.121c-.007-.043-.006-.087.004-.13s.029-.082.056-.117l1.583-2.374a.32.32 0 0 1 .204-.123c.081-.013.165.005.233.051a.32.32 0 0 1 .135.197c.018.081.005.165-.037.236l-.019.015zm-2.99 4.768l-1.27 2.513v.017a.34.34 0 0 1-.074.105.32.32 0 0 1-.237.086c-.043-.003-.086-.014-.124-.034a.32.32 0 0 1-.101-.08c-.028-.033-.048-.072-.061-.113s-.016-.085-.011-.128a.33.33 0 0 1 .04-.122l1.285-2.55a.32.32 0 0 1 .43-.141c.075.038.132.105.159.186s.019.169-.019.244l-.017.017zm-2.373 5.1l-.922 2.659v.022c-.032.073-.09.131-.163.163s-.155.035-.23.009-.138-.08-.175-.15a.32.32 0 0 1-.027-.229l.933-2.701c.01-.043.03-.083.057-.118s.061-.064.1-.085.081-.034.125-.037a.32.32 0 0 1 .242.084.33.33 0 0 1 .102.235c0 .044-.009.088-.027.128l-.015.02zm-1.642 5.376l-.493 2.765v.025c-.004.043-.017.085-.038.123a.31.31 0 0 1-.201.153.31.31 0 0 1-.248-.045c-.036-.024-.067-.056-.09-.093a.31.31 0 0 1-.045-.121c-.007-.043-.004-.087.007-.129l.511-2.814a.32.32 0 0 1 .038-.125c.021-.038.05-.072.085-.099a.32.32 0 0 1 .117-.056c.043-.01.087-.012.13-.004s.084.025.121.049a.29.29 0 0 1 .09.094c.023.038.039.079.046.122a.3.3 0 0 1-.008.13l-.022.025z"/><path d="M107.782 40.505l-.017 2.807v.03a.31.31 0 0 1-.091.219c-.058.058-.136.091-.218.091s-.16-.033-.218-.091a.31.31 0 0 1-.09-.219l.015-2.864a.31.31 0 1 1 .621 0l-.002.027zm.231 5.601l.526 2.753v.032c.007.04.007.08-.002.12s-.024.077-.046.11a.31.31 0 0 1-.086.084.3.3 0 0 1-.111.045c-.039.008-.08.007-.119-.001s-.077-.024-.11-.047a.31.31 0 0 1-.084-.086c-.022-.034-.037-.072-.044-.111l-.538-2.814c-.011-.041-.013-.084-.006-.125a.32.32 0 0 1 .044-.118.3.3 0 0 1 .087-.09c.035-.024.074-.04.115-.048a.31.31 0 0 1 .24.053.3.3 0 0 1 .084.093c.021.037.035.077.04.119l.01.032zm1.327 5.441l1.071 2.589v.03c.017.037.027.078.029.119a.31.31 0 0 1-.02.121c-.015.038-.037.074-.066.103s-.063.053-.101.069-.079.024-.12.023-.082-.009-.119-.026a.32.32 0 0 1-.1-.071c-.028-.03-.049-.066-.063-.105l-1.098-2.646a.31.31 0 0 1-.004-.236c.03-.076.088-.138.163-.17s.16-.034.236-.005a.31.31 0 0 1 .17.164l.022.042zm2.433 5.021a14.24 14.24 0 0 0 1.761 2.142.3.3 0 0 1 .084.212c0 .079-.032.155-.087.211a.3.3 0 0 1-.421.005c-.684-.68-1.299-1.426-1.838-2.226a.31.31 0 0 1 .101-.382c.06-.041.132-.06.204-.052a.3.3 0 0 1 .188.093l.008-.002zm3.919 3.863a11.89 11.89 0 0 0 2.486 1.19c.037.012.072.032.102.058s.053.057.071.092.028.073.03.113-.003.078-.015.116c-.026.075-.081.137-.152.172a.3.3 0 0 1-.228.016 12.44 12.44 0 0 1-2.612-1.237c-.06-.045-.101-.112-.115-.186a.3.3 0 0 1 .041-.215c.04-.064.103-.111.175-.131a.3.3 0 0 1 .217.022v-.01zm5.179 1.778a13.06 13.06 0 0 0 2.763-.015c.04-.007.081-.006.12.003s.077.027.109.051a.29.29 0 0 1 .08.091c.02.035.033.075.037.115s.001.081-.011.12a.29.29 0 0 1-.059.106c-.026.031-.059.056-.095.074a.3.3 0 0 1-.117.029 13.56 13.56 0 0 1-2.886.017c-.078-.009-.15-.048-.2-.109a.3.3 0 0 1-.066-.218c.004-.039.015-.076.034-.111a.28.28 0 0 1 .074-.089c.03-.025.065-.043.102-.054s.076-.015.115-.011zm5.471-.586a15.38 15.38 0 0 0 2.56-1.068c.034-.022.073-.037.113-.043a.31.31 0 0 1 .121.006.29.29 0 0 1 .108.054c.032.025.058.057.077.094s.03.076.032.117-.003.082-.016.12a.3.3 0 0 1-.064.103.29.29 0 0 1-.1.069 16.03 16.03 0 0 1-2.656 1.113c-.075.023-.156.016-.225-.02s-.121-.099-.144-.174-.016-.156.021-.225a.3.3 0 0 1 .173-.145zm4.896-2.572a16.63 16.63 0 0 0 2.05-1.877.29.29 0 0 1 .4-.004.29.29 0 0 1 .026.401 17.31 17.31 0 0 1-2.121 1.944.29.29 0 0 1-.215.058c-.076-.01-.146-.05-.193-.111s-.068-.139-.058-.216.05-.146.111-.194zm3.767-4.066l.705-1.204c.247-.393.434-.821.644-1.237v-.017a.29.29 0 0 1 .385-.129c.033.017.063.04.088.069s.044.062.056.097a.3.3 0 0 1 .014.111.29.29 0 0 1-.03.108 13.93 13.93 0 0 1-.661 1.279l-.728 1.237c-.016.038-.04.071-.071.099a.29.29 0 0 1-.225.074c-.041-.005-.08-.018-.115-.038s-.066-.049-.089-.083a.31.31 0 0 1-.048-.112.28.28 0 0 1 .003-.122.3.3 0 0 1 .052-.11l.02-.022zm2.318-5.065c.255-.89.431-1.8.528-2.721a.28.28 0 0 1 .103-.192c.058-.048.133-.07.208-.063a.28.28 0 0 1 .191.103c.048.058.07.133.063.209a16.45 16.45 0 0 1-.543 2.834c-.01.036-.027.07-.05.1a.28.28 0 0 1-.085.073c-.033.018-.069.03-.106.034a.29.29 0 0 1-.309-.363v-.015zm.549-5.505a14.54 14.54 0 0 0-.516-2.72.29.29 0 0 1-.01-.11c.004-.037.016-.073.033-.105s.042-.061.071-.084.062-.041.097-.051a.29.29 0 0 1 .11-.01.28.28 0 0 1 .104.033c.033.018.061.042.084.071s.041.062.051.098a14.79 14.79 0 0 1 .538 2.837c.007.073-.015.147-.061.205s-.113.095-.186.105a.28.28 0 0 1-.203-.061c-.057-.046-.094-.113-.103-.186l-.009-.02zm-1.548-5.313a16.24 16.24 0 0 0-1.468-2.364c-.023-.029-.041-.063-.051-.099s-.014-.074-.009-.112.017-.073.036-.106.044-.061.074-.084.065-.039.101-.048.075-.01.112-.004a.28.28 0 0 1 .104.04c.031.02.059.047.08.078.575.77 1.084 1.587 1.522 2.443a.28.28 0 0 1-.334.35c-.063-.015-.12-.05-.16-.102l-.007.007zm-3.295-4.461c-.668-.652-1.38-1.257-2.131-1.81-.03-.021-.054-.048-.073-.079s-.032-.065-.037-.101a.26.26 0 0 1 .005-.108c.008-.035.024-.068.046-.098.043-.059.108-.098.18-.109s.145.007.204.05a20.87 20.87 0 0 1 2.188 1.857c.053.051.083.122.084.195a.28.28 0 0 1-.079.198c-.051.053-.121.083-.195.084s-.144-.028-.197-.079h.005zm-4.474-3.321a23.58 23.58 0 0 0-2.519-1.214.27.27 0 0 1-.105-.149c-.017-.061-.014-.125.01-.182s.068-.106.123-.135.118-.04.18-.028c.882.361 1.743.774 2.577 1.237.064.035.11.095.13.165s.012.145-.024.209-.094.111-.164.131-.145.011-.208-.024v-.007zm-5.16-2.137l-2.731-.648h-.02a.27.27 0 0 1-.098-.045c-.03-.021-.055-.048-.074-.079s-.032-.066-.037-.102a.28.28 0 0 1 .005-.108.26.26 0 0 1 .045-.098.27.27 0 0 1 .079-.073.28.28 0 0 1 .209-.034l2.767.673c.035.009.067.026.095.048s.052.049.07.081a.26.26 0 0 1 .033.101c.005.036.002.072-.008.107-.02.069-.067.128-.129.163s-.137.044-.206.025v-.01zm-5.503-1.103l-2.797-.27h-.018a.28.28 0 0 1-.117-.026.29.29 0 0 1-.158-.177c-.012-.039-.017-.08-.014-.12s.017-.08.037-.116a.3.3 0 0 1 .188-.143c.04-.009.081-.01.121-.003l2.834.289c.071.013.133.053.176.11s.063.129.056.2a.29.29 0 0 1-.094.186c-.053.048-.123.074-.195.073l-.019-.005zm-5.607-.366l-2.809.069h-.017c-.043.005-.086.001-.126-.012s-.079-.033-.111-.061-.059-.062-.077-.101-.029-.081-.03-.123.006-.085.022-.125.04-.076.07-.106a.3.3 0 0 1 .107-.068c.04-.015.082-.022.125-.02l2.846-.054c.08-.002.157.029.215.084a.3.3 0 0 1 .092.212.3.3 0 0 1-.083.215c-.056.058-.132.091-.211.093l-.013-.003zm-5.61.297l-2.787.393h-.018c-.082.005-.163-.021-.227-.073a.33.33 0 0 1-.059-.441.33.33 0 0 1 .2-.131l2.822-.368c.083-.011.167.011.233.062a.32.32 0 0 1 .122.21c.011.084-.011.168-.062.234a.32.32 0 0 1-.21.122l-.014-.007zm-5.548.91l-2.73.675h-.017a.34.34 0 0 1-.356-.129c-.026-.036-.046-.077-.056-.121a.35.35 0 0 1-.006-.133c.007-.044.022-.087.045-.125s.054-.072.09-.098a.34.34 0 0 1 .12-.056l2.767-.668a.33.33 0 0 1 .251.039c.075.046.129.119.15.205s.007.176-.038.251-.119.13-.205.15l-.015.01zm-5.419 1.493l-2.639.957h-.02c-.044.016-.091.024-.137.022s-.093-.013-.135-.033a.35.35 0 0 1-.112-.082c-.031-.035-.056-.075-.073-.119a.36.36 0 0 1 .011-.273c.02-.043.047-.081.082-.113s.075-.057.118-.073l2.684-.962c.085-.025.177-.017.256.024a.35.35 0 0 1-.021.632l-.012.02zm-5.221 2.07l-2.506 1.254h-.02a.37.37 0 0 1-.497-.167c-.044-.088-.051-.19-.02-.284a.37.37 0 0 1 .186-.215l2.56-1.261a.36.36 0 0 1 .277-.018c.091.031.166.097.209.184s.049.187.018.278-.097.167-.183.209l-.025.02zm-4.943 2.659l-2.338 1.551h-.02c-.085.048-.185.062-.28.039s-.178-.081-.232-.163a.39.39 0 0 1-.059-.277c.016-.097.067-.184.145-.244l2.385-1.563a.38.38 0 0 1 .5.126.38.38 0 0 1-.086.51l-.015.022zm-4.59 3.232l-2.166 1.795h-.015a.4.4 0 0 1-.569-.05c-.034-.041-.059-.088-.075-.139a.4.4 0 0 1 .03-.308c.025-.046.059-.088.101-.122l2.205-1.805c.082-.052.18-.072.275-.056a.4.4 0 0 1 .243.141c.061.075.092.17.088.267a.39.39 0 0 1-.112.258l-.005.02zm-4.253 3.685l-2.008 1.978a.42.42 0 0 1-.61.012c-.04-.041-.071-.09-.092-.143a.42.42 0 0 1 .114-.469l2.042-1.978a.41.41 0 1 1 .573.588l-.02.01zm-3.942 4.022l-1.865 2.107v.012a.44.44 0 0 1-.298.144c-.114.007-.227-.032-.313-.107a.43.43 0 0 1-.103-.135c-.025-.051-.04-.107-.043-.164s.004-.114.023-.168a.43.43 0 0 1 .086-.146L72.14 45.5c.075-.085.18-.136.293-.143s.223.032.308.107a.42.42 0 0 1 .142.294c.006.113-.032.224-.106.309l-.017.015zm-3.662 4.285l-1.727 2.226a.45.45 0 0 1-.708-.552l1.759-2.238a.44.44 0 0 1 .769.228c.016.112-.011.226-.076.319l-.017.017zm-3.399 4.499l-1.608 2.317c-.034.052-.078.096-.129.131a.46.46 0 0 1-.17.071c-.061.012-.123.011-.184-.001s-.118-.038-.169-.073-.094-.081-.128-.133-.056-.111-.066-.172-.008-.124.006-.184a.47.47 0 0 1 .077-.167l1.633-2.332c.033-.053.076-.098.126-.134a.43.43 0 0 1 .169-.072c.061-.012.123-.012.184.001s.118.038.168.074.093.082.126.135a.45.45 0 0 1 .062.173.44.44 0 0 1-.012.184.47.47 0 0 1-.083.164l-.002.02zm-3.152 4.682l-1.48 2.399v.012a.48.48 0 0 1-.648.137.48.48 0 0 1-.163-.643l1.509-2.414a.47.47 0 0 1 .64-.143.47.47 0 0 1 .157.638l-.015.015zm-2.911 4.837l-1.364 2.473a.49.49 0 0 1-.651.161c-.109-.06-.191-.16-.23-.278s-.032-.247.02-.36l1.389-2.485c.074-.088.176-.147.288-.168a.49.49 0 0 1 .548.306c.041.107.045.225.01.334l-.01.017zm-2.666 4.976l-1.233 2.535v.012a.51.51 0 0 1-.675.224.51.51 0 0 1-.238-.671l1.265-2.552a.5.5 0 0 1 .668-.228.5.5 0 0 1 .252.288.49.49 0 0 1 .025.194.5.5 0 0 1-.05.189l-.015.01zm-2.417 5.102l-1.103 2.594v.015c-.059.12-.163.213-.288.259a.52.52 0 0 1-.386-.01c-.123-.053-.221-.151-.274-.274s-.057-.262-.011-.388l1.132-2.614c.055-.124.157-.221.283-.27s.266-.047.391.007.223.154.274.28a.52.52 0 0 1 0 .392l-.017.01zm-2.144 5.221l-.959 2.654v.015a.54.54 0 0 1-.678.294.54.54 0 0 1-.331-.662l.987-2.676a.53.53 0 0 1 .987.363l-.005.012z"/><path d="M50.574 85.016l-.787 2.706v.02a.55.55 0 0 1-.093.204.57.57 0 0 1-.166.151.55.55 0 0 1-.633-.052.56.56 0 0 1-.14-.176.55.55 0 0 1-.059-.217.54.54 0 0 1 .032-.222l.814-2.738c.048-.13.143-.238.267-.3s.267-.075.399-.036.246.128.316.248a.55.55 0 0 1 .061.397l-.012.015zm-1.475 5.436l-.582 2.748v.02a.57.57 0 0 1-.243.359.56.56 0 0 1-.425.081c-.147-.031-.276-.118-.358-.244a.57.57 0 0 1-.081-.426l.597-2.797a.56.56 0 0 1 .444-.434.55.55 0 0 1 .218.003.56.56 0 0 1 .43.664v.027zm-1.034 5.525l-.328 2.79v.027a.56.56 0 0 1-.067.209.57.57 0 0 1-.142.167.56.56 0 0 1-.786-.093.56.56 0 0 1-.117-.413l.331-2.844c.017-.149.093-.284.21-.377a.56.56 0 0 1 .907.508l-.007.027zm-.52 5.591l-.047 2.81v.029c.004.076-.008.152-.035.224a.55.55 0 0 1-.12.19.57.57 0 0 1-.186.128.56.56 0 0 1-.221.042c-.076-.001-.151-.018-.22-.049a.57.57 0 0 1-.182-.133c-.051-.057-.09-.123-.114-.195a.56.56 0 0 1-.028-.224l.042-2.866a.56.56 0 0 1 .045-.214c.029-.067.071-.128.123-.179a.54.54 0 0 1 .182-.119.56.56 0 0 1 .214-.04.56.56 0 0 1 .213.046c.068.029.128.071.179.123s.091.115.118.183a.56.56 0 0 1 .04.215l-.002.029zm.057 5.614l.247 2.795v.039a.55.55 0 0 1-.495.6c-.145.014-.289-.031-.401-.124a.55.55 0 0 1-.197-.372l-.269-2.856c-.014-.146.031-.292.124-.405s.227-.184.373-.197a.55.55 0 0 1 .6.498l.017.022zm.668 5.567l.572 2.745v.03a.52.52 0 0 1 .002.212.57.57 0 0 1-.079.198.55.55 0 0 1-.148.152c-.059.04-.125.069-.195.083a.54.54 0 0 1-.409-.076c-.06-.039-.111-.09-.152-.149a.52.52 0 0 1-.083-.195l-.59-2.805c-.024-.139.006-.282.085-.399a.55.55 0 0 1 .338-.229.54.54 0 0 1 .402.071c.12.075.206.193.24.33l.015.032zm1.307 5.451l.883 2.661v.03a.54.54 0 0 1-.03.412c-.032.064-.075.12-.129.166a.54.54 0 0 1-.182.104c-.067.023-.138.032-.208.027a.53.53 0 0 1-.203-.056.55.55 0 0 1-.166-.129c-.046-.054-.082-.116-.104-.183l-.908-2.72c-.023-.068-.032-.139-.026-.21s.024-.141.056-.205.076-.12.129-.167a.54.54 0 0 1 .183-.105.55.55 0 0 1 .209-.026.56.56 0 0 1 .204.055.54.54 0 0 1 .271.314l.02.032zm1.914 5.27l1.172 2.55.012.025a.53.53 0 0 1 .056.205.54.54 0 0 1-.029.211c-.024.067-.06.129-.108.182a.53.53 0 0 1-.377.175c-.071.002-.142-.01-.209-.036s-.127-.064-.179-.114a.53.53 0 0 1-.12-.176l-1.201-2.599a.54.54 0 0 1 .274-.681c.123-.057.264-.065.393-.022s.237.133.302.253l.015.027zm2.477 5.033l1.431 2.416.015.022a.53.53 0 0 1-.197.701.52.52 0 0 1-.386.062.53.53 0 0 1-.323-.221l-1.463-2.458a.53.53 0 0 1 .196-.709c.117-.071.257-.093.391-.062a.53.53 0 0 1 .324.227l.012.022zm2.977 4.761l1.655 2.272.012.02c.073.112.101.248.077.379a.52.52 0 0 1-.915.237l-1.687-2.307a.53.53 0 0 1-.119-.402c.009-.071.032-.141.068-.204a.52.52 0 0 1 .143-.159c.058-.043.124-.072.195-.088a.53.53 0 0 1 .214-.004.51.51 0 0 1 .197.082.52.52 0 0 1 .149.154l.012.02zm3.411 4.471l1.84 2.127.012.015a.51.51 0 0 1 .111.176c.025.065.036.135.032.205a.52.52 0 0 1-.051.201.51.51 0 0 1-.126.166.52.52 0 0 1-.181.102c-.067.021-.137.029-.206.022a.51.51 0 0 1-.198-.06c-.061-.034-.115-.08-.158-.135l-1.87-2.154a.52.52 0 0 1 .064-.714c.1-.088.231-.134.364-.128s.259.063.351.16l.015.017zm3.756 4.185l1.993 1.978h.012c.09.097.139.225.137.357a.51.51 0 0 1-.148.352c-.093.094-.218.148-.35.152a.51.51 0 0 1-.357-.134l-2.022-2.006c-.091-.097-.142-.226-.14-.359s.055-.261.149-.356.221-.149.354-.152a.51.51 0 0 1 .36.138l.012.03zm4.052 3.9l2.121 1.852c.101.088.162.212.172.346a.5.5 0 0 1-.833.416l-2.146-1.868c-.055-.042-.101-.095-.135-.155s-.055-.128-.062-.197 0-.139.021-.206.055-.128.1-.18a.5.5 0 0 1 .164-.126c.063-.03.13-.047.2-.05a.5.5 0 0 1 .203.034.52.52 0 0 1 .173.111l.022.023zm4.295 3.642l2.22 1.732a.5.5 0 0 1-.242.889c-.131.017-.263-.019-.367-.1l-2.249-1.732a.5.5 0 0 1-.191-.334c-.017-.132.019-.266.101-.372a.5.5 0 0 1 .704-.09l.025.007zm4.494 3.404l2.309 1.619c.057.036.106.082.144.137a.51.51 0 0 1 .079.183.5.5 0 0 1 0 .2.49.49 0 0 1-.078.183c-.038.055-.087.102-.144.137a.5.5 0 0 1-.186.07.49.49 0 0 1-.198-.011.48.48 0 0 1-.178-.087l-2.311-1.623c-.108-.075-.182-.19-.205-.32s.006-.263.081-.371a.5.5 0 0 1 .69-.125v.008zm4.654 3.195l2.361 1.565c.106.072.181.183.207.309a.5.5 0 0 1-.066.366.49.49 0 0 1-.309.209c-.126.026-.258.002-.367-.068l-2.358-1.563a.49.49 0 0 1-.162-.129.5.5 0 0 1-.03-.585.5.5 0 0 1 .341-.218c.069-.01.139-.005.206.014a.49.49 0 0 1 .183.097l-.005.003zm4.726 3.121l2.368 1.55a.49.49 0 0 1 .183.121c.051.053.09.118.113.188s.03.145.021.219-.035.144-.076.206a.5.5 0 0 1-.157.153c-.063.038-.134.062-.208.069a.49.49 0 0 1-.401-.147l-2.373-1.546a.49.49 0 0 1-.15-.3c-.014-.115.013-.231.076-.328a.49.49 0 0 1 .267-.203c.11-.034.229-.029.335.015l.002.003zm4.738 3.101l2.368 1.553a.48.48 0 0 1 .137.662c-.069.106-.178.18-.301.205a.47.47 0 0 1-.358-.068l-2.368-1.548a.48.48 0 0 1-.144-.129c-.039-.053-.067-.111-.082-.175a.48.48 0 0 1-.006-.193.49.49 0 0 1 .07-.18c.035-.055.081-.101.135-.137s.115-.061.178-.073.129-.011.193.004a.49.49 0 0 1 .176.079h.002zm4.732 3.111l2.358 1.566a.47.47 0 0 1 .217.301.48.48 0 0 1 .004.189.46.46 0 0 1-.205.309c-.053.035-.113.059-.175.07a.48.48 0 0 1-.361-.083l-2.358-1.56a.48.48 0 0 1-.119-.645c.066-.102.17-.175.289-.203a.47.47 0 0 1 .348.054l.002.002zm4.707 3.146l2.341 1.593c.051.034.094.078.128.129s.056.108.068.168.011.122-.001.182-.036.117-.07.167-.078.095-.129.128-.108.057-.168.069a.48.48 0 0 1-.181-.001c-.06-.012-.117-.036-.167-.071l-2.339-1.585a.47.47 0 0 1-.112-.641c.068-.101.171-.172.289-.197a.47.47 0 0 1 .345.059h-.005zm4.672 3.208l2.316 1.634c.081.077.131.18.142.29a.46.46 0 0 1-.083.312c-.064.09-.159.155-.267.18a.46.46 0 0 1-.319-.04l-2.314-1.627c-.05-.035-.093-.079-.126-.13a.47.47 0 0 1-.067-.169c-.011-.06-.009-.122.004-.182a.46.46 0 0 1 .204-.291c.052-.033.109-.055.169-.065a.48.48 0 0 1 .181.005c.06.014.116.04.165.075l-.005.008zm4.614 3.294l2.277 1.689a.46.46 0 0 1 .101.64c-.071.099-.179.165-.298.184a.46.46 0 0 1-.341-.082l-2.271-1.674c-.098-.072-.164-.18-.183-.301s.011-.243.083-.341a.46.46 0 0 1 .299-.183c.12-.019.243.011.341.083l-.008-.015zm4.534 3.408l2.22 1.753a.44.44 0 0 1 .19.303c.009.061.006.123-.009.182a.46.46 0 0 1-.081.164c-.038.048-.085.088-.139.118s-.113.047-.175.053-.122-.002-.18-.021a.47.47 0 0 1-.158-.091l-2.22-1.732a.45.45 0 0 1-.125-.132.44.44 0 0 1-.063-.172.45.45 0 0 1 .01-.182.44.44 0 0 1 .081-.163.45.45 0 0 1 .138-.119c.054-.029.113-.047.174-.053a.46.46 0 0 1 .181.019c.059.019.113.05.159.09l-.003-.017zm4.441 3.534l2.188 1.803c.09.075.148.182.159.299s-.024.234-.099.325-.182.148-.299.16a.44.44 0 0 1-.324-.099l-2.182-1.791a.44.44 0 0 1-.161-.301c-.012-.118.024-.235.099-.327a.45.45 0 0 1 .3-.161c.118-.011.235.024.326.099l-.007-.007zm4.353 3.635l2.138 1.868c.087.076.14.184.148.3a.44.44 0 0 1-.106.318c-.037.043-.083.079-.135.105a.43.43 0 0 1-.164.045.45.45 0 0 1-.17-.022.46.46 0 0 1-.148-.086l-2.131-1.855a.45.45 0 0 1-.105-.136c-.025-.052-.041-.108-.045-.166a.45.45 0 0 1 .022-.171c.018-.055.047-.105.085-.149s.084-.079.136-.105.108-.041.165-.045a.45.45 0 0 1 .171.021c.054.019.105.048.149.086l-.01-.008zm4.243 3.784l2.064 1.951c.041.039.075.086.098.138s.036.108.038.165a.45.45 0 0 1-.028.166c-.02.053-.051.102-.09.144a.43.43 0 0 1-.137.098c-.052.024-.107.036-.164.038s-.113-.008-.166-.028-.102-.051-.143-.09l-2.055-1.934a.44.44 0 0 1-.107-.138.43.43 0 0 1-.044-.169.44.44 0 0 1 .026-.173.43.43 0 0 1 .091-.149.45.45 0 0 1 .143-.101c.054-.023.112-.036.171-.036s.117.011.171.034.103.057.144.099l-.012-.015zm4.084 3.957l1.973 2.055c.043.04.078.088.102.141a.44.44 0 0 1 .038.17c.001.059-.01.117-.033.171a.41.41 0 0 1-.098.144c-.042.041-.092.072-.147.093a.44.44 0 0 1-.172.026c-.059-.003-.116-.019-.168-.045a.41.41 0 0 1-.136-.109l-1.956-2.035c-.071-.083-.107-.191-.101-.3s.052-.212.131-.287.182-.119.291-.121.215.039.295.112l-.019-.015zm3.887 4.155l1.84 2.174c.037.042.066.091.085.144s.026.109.022.166a.41.41 0 0 1-.043.161c-.026.05-.061.095-.104.132a.4.4 0 0 1-.146.08c-.053.017-.11.023-.166.018a.44.44 0 0 1-.159-.049c-.05-.027-.093-.064-.128-.108l-1.825-2.149a.43.43 0 0 1-.083-.302.43.43 0 0 1 .147-.277c.082-.07.187-.106.295-.101s.209.051.284.128l-.019-.017zm3.588 4.412l1.675 2.307a.42.42 0 0 1 .076.311c-.017.109-.076.208-.165.273a.42.42 0 0 1-.309.077.42.42 0 0 1-.273-.166v-.015l-1.657-2.275v-.015a.41.41 0 0 1-.069-.148c-.013-.053-.016-.109-.007-.163a.42.42 0 0 1 .056-.153.41.41 0 0 1 .11-.121c.044-.032.094-.056.147-.069s.109-.015.163-.007a.44.44 0 0 1 .153.056.42.42 0 0 1 .12.11l-.02-.002zm3.249 4.687l1.46 2.45c.028.047.046.098.054.151s.005.107-.008.159a.42.42 0 0 1-.068.145c-.032.043-.072.079-.118.107s-.097.046-.15.054a.43.43 0 0 1-.16-.008c-.052-.013-.1-.037-.143-.069a.39.39 0 0 1-.107-.118v-.017l-1.448-2.414v-.015a.42.42 0 0 1-.037-.306c.028-.103.094-.192.186-.247a.41.41 0 0 1 .556.128h-.017zm2.797 4.973l1.196 2.592a.39.39 0 0 1 .049.156.39.39 0 0 1-.017.163.4.4 0 0 1-.081.143.41.41 0 0 1-.131.098c-.05.023-.104.036-.159.037s-.11-.009-.161-.03a.39.39 0 0 1-.135-.092c-.039-.04-.068-.087-.088-.139v-.02l-1.188-2.544v-.02a.41.41 0 0 1 .197-.544c.098-.046.21-.051.312-.014s.185.113.231.212l-.025.002zm2.242 5.25l.885 2.721a.39.39 0 0 1-.021.298c-.046.093-.127.164-.225.196a.39.39 0 0 1-.298-.021c-.092-.047-.163-.127-.196-.226v-.025l-.88-2.678v-.022c-.021-.095-.006-.194.042-.279a.39.39 0 0 1 .498-.166.39.39 0 0 1 .2.198l-.005.004zm1.601 5.483l.537 2.807c.018.096-.003.195-.057.276a.37.37 0 0 1-.234.157c-.096.02-.194-.002-.274-.057a.37.37 0 0 1-.155-.235v-.022l-.545-2.757v-.025a.38.38 0 0 1 .057-.284c.056-.083.142-.141.24-.16s.2.001.283.057a.38.38 0 0 1 .16.241l-.012.002zm.895 5.644l.173 2.856a.35.35 0 0 1-.087.255c-.062.07-.148.113-.241.119s-.184-.026-.254-.087-.113-.149-.119-.242v-.022l-.19-2.81v-.022c-.006-.095.026-.189.089-.261s.151-.115.246-.121.188.025.259.088a.36.36 0 0 1 .122.247h.002zm.153 5.708l-.205 2.844a.34.34 0 0 1-.36.312c-.089-.007-.171-.048-.229-.115a.34.34 0 0 1-.082-.244v-.017l.19-2.81v-.017a.35.35 0 0 1 .116-.237c.069-.06.158-.091.249-.085s.176.048.236.117.091.158.085.249v.003zm-.547 5.688l-.464 2.812c-.007.042-.021.081-.043.117s-.052.067-.086.092a.32.32 0 0 1-.114.052.31.31 0 0 1-.125.003.32.32 0 0 1-.263-.366v-.014l.441-2.788v-.014c.014-.087.061-.164.132-.215a.33.33 0 0 1 .458.073c.051.071.072.159.059.245l.005.003zm-1.049 5.597l-.723 2.76c-.02.078-.071.145-.14.186a.3.3 0 0 1-.231.032.31.31 0 0 1-.186-.14c-.041-.069-.053-.153-.032-.232v-.017l.7-2.72v-.025c.01-.041.027-.079.052-.113s.055-.063.091-.084a.32.32 0 0 1 .116-.043c.041-.006.083-.004.124.007a.31.31 0 0 1 .111.054c.034.025.062.057.082.093s.035.076.04.118.002.083-.009.124h.005zm-1.603 5.475l-1.07 2.651a.29.29 0 0 1-.156.158c-.07.03-.15.031-.221.002a.29.29 0 0 1-.157-.156c-.03-.071-.031-.15-.002-.221v-.023l1.039-2.611v-.022c.029-.074.086-.132.158-.163.036-.016.074-.024.113-.024a.29.29 0 0 1 .113.021.3.3 0 0 1 .097.063.33.33 0 0 1 .066.095.32.32 0 0 1 .024.114.32.32 0 0 1-.021.114l.017.002zm-2.386 5.196a19.08 19.08 0 0 1-1.63 2.367c-.046.056-.112.091-.184.099a.28.28 0 0 1-.201-.059c-.028-.023-.051-.051-.068-.083a.26.26 0 0 1-.032-.102c-.004-.036 0-.072.01-.107a.26.26 0 0 1 .051-.094 18.49 18.49 0 0 0 1.569-2.305c.037-.066.099-.114.172-.133a.28.28 0 0 1 .216.028c.065.037.113.1.133.173a.28.28 0 0 1-.028.216h-.008zm-3.677 4.405a9.44 9.44 0 0 1-2.52 1.439c-.066.024-.138.021-.201-.008s-.112-.083-.136-.149a.26.26 0 0 1 .157-.337 8.87 8.87 0 0 0 2.372-1.373c.055-.044.125-.064.195-.056s.134.043.178.098.063.126.056.197a.27.27 0 0 1-.098.179l-.003.01z"/></g><defs><linearGradient id="A" x1="139.678" y1="194.854" x2="139.678" y2="351.414" xlink:href="#s"><stop stop-color="#ffa121"/><stop offset="1" stop-color="#ffbd64"/></linearGradient><linearGradient id="B" x1="249.72" y1="176.135" x2="249.72" y2="351.414" xlink:href="#s"><stop stop-color="#ffa121"/><stop offset="1" stop-color="#ffbd64"/></linearGradient><linearGradient id="C" x1="193.424" y1="146.069" x2="193.424" y2="351.414" xlink:href="#s"><stop stop-color="#ffa121"/><stop offset="1" stop-color="#ffbd64"/></linearGradient><linearGradient id="D" x1="379.549" y1="76.298" x2="379.549" y2="351.414" xlink:href="#s"><stop stop-color="#ffa121"/><stop offset="1" stop-color="#ffbd64"/></linearGradient><linearGradient id="E" x1="315.623" y1="114.305" x2="315.623" y2="351.414" xlink:href="#s"><stop stop-color="#ffa121"/><stop offset="1" stop-color="#ffbd64"/></linearGradient><linearGradient id="F" x1="101.23" y1="349.377" x2="99.807" y2="338.273" xlink:href="#s"><stop stop-color="#ff928e"/><stop offset="1" stop-color="#feb3b1"/></linearGradient><linearGradient id="G" x1="2244.19" y1="8918.49" x2="2207.81" y2="8673.67" xlink:href="#s"><stop stop-color="#ff928e"/><stop offset="1" stop-color="#feb3b1"/></linearGradient><linearGradient id="H" x1="570.913" y1="8686.59" x2="601.908" y2="8675.67" xlink:href="#s"><stop stop-color="#4042e2"/><stop offset="1" stop-color="#4f52ff"/></linearGradient><linearGradient id="I" x1="9588.7" y1="25670.9" x2="11105.9" y2="25670.9" xlink:href="#s"><stop stop-color="#ff928e"/><stop offset="1" stop-color="#feb3b1"/></linearGradient><linearGradient id="J" x1="20462.1" y1="37384.2" x2="25752.5" y2="37384.2" xlink:href="#s"><stop stop-color="#ff928e"/><stop offset="1" stop-color="#feb3b1"/></linearGradient><linearGradient id="K" x1="5418.29" y1="16351.4" x2="5024.52" y2="17321.9" xlink:href="#s"><stop stop-color="#ff928e"/><stop offset="1" stop-color="#feb3b1"/></linearGradient><linearGradient id="L" x1="7331.01" y1="15839.8" x2="6601.86" y2="15847.5" xlink:href="#s"><stop stop-color="#ff928e"/><stop offset="1" stop-color="#feb3b1"/></linearGradient><linearGradient id="M" x1="10136.9" y1="24444.9" x2="11558.3" y2="24444.9" xlink:href="#s"><stop stop-color="#09005d"/><stop offset="1" stop-color="#1a0f91"/></linearGradient><linearGradient id="N" x1="2159.54" y1="5805.86" x2="2035.27" y2="6154.04" xlink:href="#s"><stop stop-color="#ff928e"/><stop offset="1" stop-color="#feb3b1"/></linearGradient><linearGradient id="O" x1="153.289" y1="323.891" x2="149.864" y2="358.451" xlink:href="#s"><stop stop-color="#ff928e"/><stop offset=".48" stop-color="#ffa29f"/><stop offset="1" stop-color="#feb3b1"/></linearGradient><linearGradient id="P" x1="27446.8" y1="69548.2" x2="34453.1" y2="69548.2" xlink:href="#s"><stop stop-color="#ff928e"/><stop offset="1" stop-color="#feb3b1"/></linearGradient><linearGradient id="Q" x1="28188.6" y1="36343.2" x2="26081" y2="38184.9" xlink:href="#s"><stop stop-color="#09005d"/><stop offset="1" stop-color="#1a0f91"/></linearGradient><linearGradient id="R" x1="7732.79" y1="10098.7" x2="7732.79" y2="10409.4" xlink:href="#s"><stop stop-color="#ff928e"/><stop offset="1" stop-color="#feb3b1"/></linearGradient><linearGradient id="S" x1="12559" y1="17682.7" x2="11912" y2="17558.8" xlink:href="#s"><stop stop-color="#ff928e"/><stop offset="1" stop-color="#feb3b1"/></linearGradient><linearGradient id="T" x1="13513.1" y1="20768" x2="12291.4" y2="21668.6" xlink:href="#s"><stop stop-color="#09005d"/><stop offset="1" stop-color="#1a0f91"/></linearGradient><linearGradient id="U" x1="3573.97" y1="5676.03" x2="3394.85" y2="5645.65" xlink:href="#s"><stop stop-color="#ff928e"/><stop offset="1" stop-color="#feb3b1"/></linearGradient><linearGradient id="V" x1="21758.8" y1="11425.7" x2="27942.9" y2="11425.7" xlink:href="#s"><stop stop-color="#ff928e"/><stop offset="1" stop-color="#feb3b1"/></linearGradient><linearGradient id="W" x1="15320.1" y1="4284.92" x2="18976.5" y2="4284.92" xlink:href="#s"><stop stop-color="#cf831b"/><stop offset="1" stop-color="#ff928e"/></linearGradient><linearGradient id="X" x1="98.836" y1="311.454" x2="98.707" y2="303.713" xlink:href="#s"><stop stop-color="#ffa121"/><stop offset="1" stop-color="#ffa52b"/></linearGradient><linearGradient id="Y" x1="6776.08" y1="7338.71" x2="6891.32" y2="7338.71" xlink:href="#s"><stop stop-color="#ff928e"/><stop offset="1" stop-color="#feb3b1"/></linearGradient><linearGradient id="Z" x1="8682.01" y1="11318.3" x2="8846.19" y2="11318.3" xlink:href="#s"><stop stop-color="#ff928e"/><stop offset="1" stop-color="#feb3b1"/></linearGradient><linearGradient id="a" x1="24215.4" y1="15281" x2="24774.4" y2="14873.5" xlink:href="#s"><stop stop-color="#ff928e"/><stop offset="1" stop-color="#feb3b1"/></linearGradient><linearGradient id="b" x1="352.593" y1="293.447" x2="367.293" y2="293.447" xlink:href="#s"><stop stop-color="#f9b776"/><stop offset="1" stop-color="#f47960"/></linearGradient><linearGradient id="c" x1="19653.5" y1="17770.1" x2="18996.1" y2="18116.9" xlink:href="#s"><stop stop-color="#ff928e"/><stop offset="1" stop-color="#feb3b1"/></linearGradient><linearGradient id="d" x1="37301.2" y1="7358.99" x2="37410" y2="8835.82" xlink:href="#s"><stop stop-color="#09005d"/><stop offset="1" stop-color="#1a0f91"/></linearGradient><linearGradient id="e" x1="4490.34" y1="5979.01" x2="4327.56" y2="6035.2" xlink:href="#s"><stop stop-color="#ff928e"/><stop offset="1" stop-color="#feb3b1"/></linearGradient><linearGradient id="f" x1="66702.4" y1="26248.4" x2="71543.8" y2="18780.8" xlink:href="#s"><stop stop-color="#ffa121"/><stop offset="1" stop-color="#eaa950"/></linearGradient><linearGradient id="g" x1="22070.1" y1="69451.4" x2="-7940.75" y2="70469.5" xlink:href="#s"><stop stop-color="#ffd59c"/><stop offset="1" stop-color="#ffe5c1"/></linearGradient><linearGradient id="h" x1="26186.7" y1="15051.4" x2="19737.4" y2="21410.5" xlink:href="#s"><stop stop-color="#ffa121"/><stop offset="1" stop-color="#f1a235"/></linearGradient><linearGradient id="i" x1="108598" y1="60925.7" x2="118722" y2="49206.9" xlink:href="#s"><stop stop-color="#ffa121"/><stop offset="1" stop-color="#eaa950"/></linearGradient><linearGradient id="j" x1="120278" y1="39271" x2="91318" y2="82904.3" xlink:href="#s"><stop stop-color="#ffd59c"/><stop offset="1" stop-color="#ffe5c1"/></linearGradient><linearGradient id="k" x1="45367.6" y1="26036.1" x2="34140.7" y2="37111.2" xlink:href="#s"><stop stop-color="#ffa121"/><stop offset="1" stop-color="#f1a235"/></linearGradient><linearGradient id="l" x1="128002" y1="2803.05" x2="131500" y2="-12759.6" xlink:href="#s"><stop stop-color="#ffa121"/><stop offset="1" stop-color="#eaa950"/></linearGradient><linearGradient id="m" x1="84032.2" y1="99659.9" x2="35100.8" y2="122052" xlink:href="#s"><stop stop-color="#ffd59c"/><stop offset="1" stop-color="#ffe5c1"/></linearGradient><linearGradient id="n" x1="46708.4" y1="26854.6" x2="35155.6" y2="38255.2" xlink:href="#s"><stop stop-color="#ffa121"/><stop offset="1" stop-color="#f1a235"/></linearGradient><linearGradient id="o" x1="92122.5" y1="-18328.9" x2="92140.2" y2="-30017.5" xlink:href="#s"><stop stop-color="#ffa121"/><stop offset="1" stop-color="#eaa950"/></linearGradient><linearGradient id="p" x1="82589.8" y1="48169.1" x2="54305.3" y2="75685.7" xlink:href="#s"><stop stop-color="#ffd59c"/><stop offset="1" stop-color="#ffe5c1"/></linearGradient><linearGradient id="q" x1="34370.3" y1="19697.8" x2="25905.9" y2="28047" xlink:href="#s"><stop stop-color="#ffa121"/><stop offset="1" stop-color="#f1a235"/></linearGradient><linearGradient id="r" x1="-83640.8" y1="23065.4" x2="-85253.1" y2="22250.5" xlink:href="#s"><stop stop-color="#ffa121"/><stop offset="1" stop-color="#dca04e"/></linearGradient><linearGradient id="s" gradientUnits="userSpaceOnUse"/></defs></svg>