<svg xmlns="http://www.w3.org/2000/svg" xmlns:xlink="http://www.w3.org/1999/xlink" width="494" height="300" fill="none" xmlns:v="https://vecta.io/nano"><style><![CDATA[.B{fill:#91b3fa}.C{fill:#dce5fe}.D{fill:#0f6eff}.E{opacity:.84}.F{fill:#5489ff}.G{fill:#6fa8ff}.H{fill:#3988ff}.I{fill:#ff990f}.J{fill:#ffa121}.K{fill:#2964e7}]]></style><path d="M.455 263.736c11.539-7.269 81.009-46.576 143.411 17.117 0 0-36.581 38.578-143.012-14.984-.933-.469-1.154-1.659-.399-2.133z" class="B"/><path d="M15.623 265.241s7.085-.915 17.752-1.858l8.617-.697 9.629-.634 10.31-.502 10.655-.293 5.352-.055 5.31.011a345.62 345.62 0 0 1 10.329.244l4.932.235 4.72.306 4.466.377 4.167.436 3.825.484 1.772.241 1.67.267 5.576.992 2.052.435 1.514.344 1.259.285c.478.11.779.583.669 1.062a.89.89 0 0 1-1.065.667l-.007-.003-.033-.007-1.236-.292-1.486-.351-2.017-.446-5.496-1.029-1.649-.279-1.754-.253-3.787-.511-4.13-.47-4.431-.413-4.69-.349-4.904-.276-10.284-.334-5.291-.061c-1.775-.014-3.554-.009-5.336.007l-10.63.198-10.291.406-9.617.548-8.61.621c-10.66.845-17.735 1.695-17.735 1.695-.208.026-.394-.12-.42-.327s.119-.393.324-.421z" class="C"/><path d="M63.747 63.109c21.618 11.625 144.645 84.392 96.838 211.662 0 0-93.375-27.134-99.905-209.771-.056-1.598 1.656-2.648 3.067-1.891z" class="B"/><path d="M74.214 85.369s7.397 9.13 17.931 23.248l8.428 11.453 9.212 12.923 9.617 13.986 4.837 7.264 4.79 7.378 4.704 7.434 2.311 3.717 2.26 3.72 2.232 3.696 2.164 3.687 4.181 7.271c2.713 4.793 5.24 9.481 7.561 13.967s4.429 8.772 6.278 12.777c.958 1.986 1.791 3.93 2.6 5.77l1.18 2.691 1.047 2.569 1.864 4.665 1.466 4.007.625 1.719.497 1.536.784 2.421.65 2.016c.15.465-.107.964-.573 1.115s-.968-.107-1.12-.571l-.002-.005-.012-.035-.634-1.998-.76-2.397-.483-1.522-.609-1.705-1.432-3.98c-.529-1.445-1.175-2.982-1.823-4.639l-1.026-2.555-1.157-2.679-2.554-5.75c-1.816-3.993-3.897-8.268-6.18-12.751a422.88 422.88 0 0 0-7.458-13.96l-4.13-7.274-2.138-3.689-2.209-3.698-2.234-3.724-2.288-3.722-4.655-7.445-4.743-7.393-4.79-7.28-9.529-14.02-9.132-12.961-8.356-11.488c-10.45-14.162-17.787-23.319-17.787-23.319-.131-.163-.103-.397.061-.527s.404-.102.534.058z" class="C"/><path d="M7.265 141.477c20.436 2.869 138.679 24.409 138.32 138.57 0 0-81.508 5.782-140.183-136.191-.513-1.241.527-2.567 1.863-2.379z" fill="#bdd0fb"/><path d="M22.064 155.915s8.508 5.037 20.949 13.089l10 6.567 11.049 7.497 11.681 8.215 5.942 4.314 5.94 4.416 5.889 4.486 5.784 4.525 2.843 2.261 2.787 2.274 5.429 4.509a359.25 359.25 0 0 1 10.058 8.802c3.144 2.863 6.066 5.622 8.699 8.238 1.339 1.287 2.565 2.574 3.743 3.789l1.719 1.777 1.581 1.72 2.838 3.133 2.334 2.732.998 1.174.842 1.066 1.33 1.682 1.105 1.401c.303.383.238.941-.149 1.243a.89.89 0 0 1-1.248-.149l-.002-.005-.024-.03-1.082-1.387-1.299-1.668-.823-1.057-.979-1.166-2.29-2.716c-.84-.985-1.798-2.007-2.792-3.122l-1.555-1.715-1.696-1.772-3.691-3.787c-2.598-2.616-5.488-5.38-8.597-8.249a359.04 359.04 0 0 0-9.96-8.83l-5.38-4.53-2.763-2.286-2.822-2.272-5.742-4.554-5.846-4.514-5.9-4.446-5.905-4.344-11.609-8.278-10.986-7.557-9.946-6.623c-12.376-8.122-20.837-13.207-20.837-13.207-.177-.107-.236-.337-.128-.516s.336-.234.513-.13z" class="C"/><path d="M493.545 263.736c-11.539-7.269-81.009-46.576-143.411 17.117 0 0 36.581 38.578 143.013-14.984.932-.469 1.154-1.659.398-2.133z" class="B"/><path d="M478.377 265.242s-7.085-.916-17.752-1.859l-8.617-.697-9.629-.634-10.31-.502-10.655-.293-5.352-.055c-1.78-.017-3.552-.003-5.31.011-3.517.026-6.98.119-10.329.244l-4.932.235-4.721.307-4.466.376c-1.441.128-2.831.297-4.167.437-1.336.13-2.61.332-3.825.483l-1.772.241-1.67.268c-2.162.32-4.032.696-5.576.992-.774.137-1.457.297-2.052.434l-1.513.344-1.26.286c-.478.109-.779.583-.669 1.061a.89.89 0 0 0 1.066.667l.007-.002.032-.007 1.236-.293 1.486-.351c.585-.139 1.254-.304 2.017-.446 1.521-.304 3.361-.692 5.497-1.029l1.649-.279c.566-.093 1.154-.167 1.753-.253 1.204-.16 2.461-.372 3.788-.511l4.13-.469 4.431-.414 4.689-.348 4.905-.277a340.73 340.73 0 0 1 10.284-.334l5.292-.061 5.336.007 10.629.198 10.292.406 9.617.548 8.61.621c10.66.845 17.736 1.696 17.736 1.696.207.025.394-.121.419-.328s-.119-.393-.324-.42z" class="C"/><path d="M421.51 60.707c-18.566 11.402-123.883 82.153-74.988 192.529 0 0 81.371-28.798 77.803-191.01-.031-1.419-1.6-2.263-2.815-1.519z" class="B"/><path d="M413.954 81.38s-6.031 8.491-14.562 21.577l-6.814 10.61-7.426 11.953-7.721 12.912-3.871 6.697-3.823 6.793-3.74 6.837-3.624 6.83-1.766 3.392-1.705 3.377-3.283 6.656a375.5 375.5 0 0 0-5.891 12.752c-1.791 4.088-3.414 7.984-4.818 11.615-.732 1.805-1.357 3.559-1.966 5.225l-.888 2.432-.777 2.317-1.376 4.202-1.063 3.599-.453 1.542-.35 1.371-.55 2.163-.457 1.8-.009.037a.89.89 0 0 1-1.08.641c-.476-.12-.765-.601-.644-1.075l.003-.005.475-1.821.572-2.189.361-1.386.467-1.555 1.096-3.628c.405-1.318.911-2.721 1.415-4.233l.798-2.332.909-2.444 2.01-5.248c1.437-3.645 3.09-7.55 4.916-11.646a381.13 381.13 0 0 1 5.992-12.766l3.334-6.655 1.731-3.378 1.791-3.39 3.673-6.823 3.79-6.827 3.871-6.784 3.918-6.684 7.812-12.881 7.507-11.923 6.887-10.579c8.619-13.047 14.711-21.514 14.711-21.514.121-.17.356-.207.524-.088.175.121.212.356.094.525z" class="C"/><path d="M469.278 168.421c-15.494.604-105.9 8.405-123.092 108.027 0 0 59.165 12.619 124.102-105.776.566-1.039.002-2.291-1.01-2.251z" fill="#bdd0fb"/><path d="M456.435 180.273s-7.173 3.74-17.696 9.785l-8.458 4.939-9.356 5.654-9.896 6.217-10.076 6.63-5 3.415-4.916 3.45a392.8 392.8 0 0 0-9.41 6.907l-4.413 3.406-4.165 3.333-3.88 3.229-3.564 3.09-3.213 2.909-1.479 1.363-1.364 1.32-2.451 2.402-2.031 2.086-1.603 1.712-1.163 1.283-.97 1.068-.024.026a.89.89 0 0 1-1.254.063c-.364-.328-.392-.888-.063-1.25l.004-.005.991-1.076 1.192-1.291 1.637-1.724 2.073-2.095 2.498-2.409 1.388-1.32 1.502-1.364 3.262-2.906 3.613-3.083 3.929-3.217 4.214-3.318 4.459-3.384 9.499-6.858 4.958-3.42 5.039-3.382 10.152-6.566 9.962-6.149 9.415-5.589 8.51-4.881c10.583-5.968 17.801-9.662 17.801-9.662.184-.095.412-.023.508.163.093.176.021.401-.161.499z" class="C"/><path d="M183.073 73.391l-4.389-.177c.054-1.289 1.507-31.764 20.434-49.975l3.05 3.148c-17.675 17.005-19.083 46.706-19.095 47.004z" fill="url(#A)"/><path d="M311.24 73.391l4.389-.177c-.054-1.289-1.507-31.764-20.434-49.975l-3.05 3.148c17.674 17.005 19.083 46.706 19.095 47.004z" fill="url(#B)"/><path d="M300.805 32.265c-1.546 1.703-4.155 1.315-5.928-.676-26.597-29.964-68.174-29.964-94.771 0-1.772 1.991-4.382 2.379-5.928.676s-1.262-5.078.742-7.332c29.507-33.244 75.636-33.244 105.144 0 2.003 2.253 2.285 5.634.741 7.332z" fill="url(#C)"/><path d="M316.571 52.509c.691-.2 1.269.079 1.654.683l6.411 9.778c1.87 2.936 3.045 6.342 3.045 9.82v8.895s8.643 6.684 8.643 16.406-5.989 22.847-13.552 25.036c-.408.897-.814 1.642-1.098 2.263-.83 1.816-2.488 2.857-4.466 2.527l-1.481-.295V54.058c.005-.718.154-1.347.844-1.55z" fill="#79a3ff"/><path d="M315.731 72.738c0-4.43-3.605-8.022-8.052-8.022h-.331c-4.448 0-8.053 3.591-8.053 8.022v55.402c0 4.43 3.605 8.022 8.053 8.022h.331c4.447 0 8.052-3.592 8.052-8.022V72.738z" class="D"/><path d="M234.992 160.076c-1.24-.03-30.715-.862-56.774-11.464-11.271-4.586-19.324-14.329-23.288-28.178-2.946-10.291-2.614-19.142-2.598-19.514l4.389.181-2.195-.09 2.195.088c-.003.086-.31 8.617 2.467 18.248 3.641 12.624 10.602 21.108 20.69 25.211 25.294 10.291 54.925 11.132 55.222 11.141l-.108 4.377z" class="F"/><path d="M262.439 157.832c0 3.101-2.523 5.615-5.637 5.615H239.19c-3.113 0-5.636-2.514-5.636-5.615v-.676c0-3.101 2.523-5.615 5.636-5.615h17.612c3.114 0 5.637 2.514 5.637 5.615v.676z" fill="url(#D)"/><path d="M168.309 101.824c0 3.071-2.5 5.559-5.581 5.559h-8.759c-3.083 0-5.581-2.49-5.581-5.559v-.788c0-3.071 2.5-5.559 5.581-5.559h8.759c3.083 0 5.581 2.49 5.581 5.559v.788z" fill="url(#E)"/><path d="M177.742 53.238c-.69-.2-1.362.079-1.747.683l-6.273 9.778c-1.87 2.936-2.908 6.342-2.908 9.82v8.895s-8.827 6.684-8.827 16.406 5.895 22.848 13.458 25.036l1.052 2.263c.83 1.817 2.652 2.857 4.627 2.527l1.642-.295V54.787c.002-.718-.334-1.35-1.024-1.549z" fill="#79a3ff"/><path d="M195.203 129.132c0 4.43-3.606 8.022-8.053 8.022h-.331c-4.447 0-8.053-3.592-8.053-8.022V73.73c0-4.43 3.606-8.022 8.053-8.022h.331c4.447 0 8.053 3.592 8.053 8.022v55.402z" class="D"/><path d="M142.946 237.947l-27.81 2.786-13.032 1.303-13.668-42.453c-.816-2.546-.04-5.331 1.978-7.097l1.982-1.728c.49-.423 1.033-.774 1.616-1.043.478-.221.975-.384 1.493-.479l.065-.018c.019-.005.03-.179.049-.184.397-.074.8-.283 1.21-.283h27.05c3.008 0 5.653 2.162 6.478 5.043l12.589 44.153z" class="G"/><path d="M115.138 240.733l-13.032 1.303-13.668-42.453c-.816-2.546-.04-5.331 1.978-7.097l1.982-1.728c.49-.423 1.033-.774 1.616-1.043l1.493-.479.065-.019c.019-.004.03-.004.049-.009 7.066-1.078 17.621 43.301 19.517 51.525z" class="H"/><path d="M251.145 237.947l-27.81 2.786-13.032 1.303-13.668-42.453c-.816-2.546-.04-5.331 1.977-7.097l1.983-1.728a6.87 6.87 0 0 1 1.616-1.043 6.26 6.26 0 0 1 1.492-.479l.066-.018c.018-.005.03-.179.049-.184.396-.074.8-.283 1.21-.283h27.05c3.008 0 5.653 2.162 6.478 5.043l12.589 44.153z" class="G"/><path d="M223.335 240.733l-13.032 1.303-13.668-42.453c-.816-2.546-.04-5.331 1.977-7.097l1.983-1.728a6.87 6.87 0 0 1 1.616-1.043l1.492-.479.066-.019.049-.009c7.068-1.078 17.623 43.301 19.517 51.525z" class="H"/><path d="M350.507 237.947l-27.81 2.786-13.032 1.303-13.668-42.453c-.816-2.546-.04-5.331 1.978-7.097l1.982-1.728a6.89 6.89 0 0 1 1.616-1.043c.478-.221.977-.384 1.493-.479l.065-.018c.019-.005.03-.179.049-.184.396-.074.8-.283 1.21-.283h27.05c3.008 0 5.653 2.162 6.479 5.043l12.588 44.153z" class="G"/><path d="M322.7 240.733l-13.032 1.303L296 199.583c-.817-2.546-.04-5.331 1.977-7.097l1.982-1.728c.49-.423 1.034-.774 1.617-1.043l1.492-.479.065-.019c.019-.004.031-.004.049-.009 7.069-1.078 17.622 43.301 19.518 51.525z" class="H"/><path d="M258.769 291.282l-1.523 5.317c-.231.802.093 1.685.825 2.091.366.205.861.383 1.532.495.945.16 1.885-.323 2.288-1.189l1.943-4.184-5.065-2.53z" fill="url(#F)"/><path d="M238.533 245.295s22.973 2.677 33.232 11.121-6.873 38.129-6.873 38.129-3.069.151-6.961-2.82c0 0 9.904-22.16-.009-27.919-11.148-6.475-23.629-7.383-23.629-7.383l4.058-10.426.182-.702z" fill="url(#G)"/><path d="M216.252 239.697s-4.307 13.739.975 17.556 17.593 7.761 20.737 15.767 6.21 19.769 12.638 25.045c0 0 6.371 1.794 7.884 0 0 0-4.508-22.079-7.14-28.024-2.281-5.148-5.635-12.572-11.486-16.503-1.674-1.124-1.502-3.064-.86-4.972l1.168-3.475-23.916-5.394z" fill="url(#H)"/><path d="M268.374 226.243c-8.444.976-6.553-12.656-6.429-13.2l-12.361 9.758s1.08 7.173 11.983 10.368c2.759.808 5.233.713 7.392.125a11.64 11.64 0 0 1-.585-7.051z" class="I"/><path d="M284.533 221.284c-3.279-2.015-6.735.371-6.735.371-4.069 2.983-7.126 4.326-9.424 4.591-.44 1.954-.494 4.395.588 7.05 4.674-1.273 7.869-4.869 9.242-6.699.495-.66 1.425-.82 2.101-.347.686.481 1.365 1.155 1.29 1.905-.147 1.483 1.59 1.857 1.691 1.315s-.791-3.661-.791-3.661l5.026 4.486c1.411 1.245 3.018-.165 3.018-.165s-2.727-6.832-6.006-8.846z" fill="url(#I)"/><path d="M226.959 194.08s12.055-5.596 36.043 12.01c0 0 2.136 3.845.24 7.479s-20.865 21.865-23.074 31.52c0 0-11.653 4.495-24.431-3.94-.002 0-.385-26.509 11.222-47.069z" class="J"/><path d="M251.085 188.351l-5.663 7.662c-.562.759-.639 1.779-.175 2.604.938 1.666 3.074 4.047 7.489 3.459a3.73 3.73 0 0 0 2.948-2.249l3.759-8.972-8.358-2.504z" fill="url(#J)"/><path d="M219.156 225.993c-1.753-5.727 12.024-19.468 12.024-19.468l-4.221-12.443s-30.149 22.481-21.247 38.734c1.275 2.33 2.887 3.923 4.711 4.945 2.145-6.897 5.991-10.219 8.733-11.768z" fill="#ec9620"/><path d="M219.098 225.147c-.154.009-.299-.088-.348-.242-1.793-5.856 11.542-19.242 12.111-19.809.133-.133.35-.135.485 0s.133.351 0 .483-13.613 13.66-11.94 19.126c.056.182-.047.372-.229.428-.026.009-.051.014-.079.014z" fill="#ea8700"/><path d="M241.083 224.285s-16.817 7.592-21.29 2.825c-.303-.323-.511-.699-.637-1.115-2.742 1.549-6.588 4.871-8.733 11.766 9.358 5.257 24.312-4.548 28.344-7.417a3.13 3.13 0 0 1 2.285-.549c1.631.244 4.441.581 5.929.267 2.178-.457 5.76 7.086 9.188 4.51-.002-.003-3.794-13.249-15.086-10.287z" fill="url(#K)"/><path d="M263.692 176.859c.075.232-.52 16.334-.52 16.334l-9.221-.535-1.712-15.344c0 .002 10.212-4.342 11.453-.455z" fill="url(#L)"/><path d="M254.802 180.373l.266 8.148c.002.104.021.204.051.304.194.611 1.015 2.66 3.069 1.696 1.864-.876 3.58-1.647 4.881-1.475.586.076 1.015.583.992 1.171-.054 1.463-.238 4.757-.838 7.594-.121.576-.669.957-1.254.887-1.768-.211-5.483-.759-8.368-1.898-.392-.153-.667-.504-.718-.92l-1.518-9.866c-.455-1.58-2.598-2.216-3.519-2.418a1.13 1.13 0 0 1-.721-.516c-.564-.929-1.5-3.143 1.259-4.57.579-.299.791-1.008.474-1.572-.632-1.127-1.117-2.925.97-4.305 2.122-1.403 4.037-.469 5.126.369.44.339 1.049.3 1.464-.07.236-.209.567-.32 1.022-.132.611.253 1.306-.104 1.495-.734.361-1.213 1.28-2.602 3.589-2.59 4.095.021 5.28 4.342 4.659 7.092s-5.06 2.477-7.423 1.531c-1.796-.718-3.738.667-4.566 1.373a1.15 1.15 0 0 0-.392.901z" fill="url(#M)"/><path d="M251.494 188.983s.877-4.839-.993-5.678-4.263.153-3.163 3.371c1.369 4.003 4.156 2.307 4.156 2.307z" fill="url(#N)"/><use xlink:href="#r" fill="url(#O)"/><use xlink:href="#s" fill="#ffb34d"/><path d="M330.752 184.495l-5.636 11.062s5.732 4.475 11.758 2.99l.774-11.746-6.896-2.306z" fill="url(#P)"/><path d="M317.117 220.854a.14.14 0 0 1-.119-.063l-3.458-5.071c-.045-.065-.028-.156.037-.2s.156-.028.2.037l3.459 5.071c.044.065.028.156-.037.2a.15.15 0 0 1-.082.026zm7.572-2.572c-.044 0-.086-.021-.114-.058-.047-.063-.035-.153.028-.2l1.273-.952-4.093-11.286c-.028-.074.012-.158.087-.184s.156.012.184.086l4.13 11.386c.021.06.002.125-.049.163l-1.36 1.015c-.025.021-.055.03-.086.03z" class="I"/><path d="M317.781 236.351c0 1.006-.273 1.808-.611 1.808h-42.476c-.336 0-.611-.802-.611-1.808s.272-1.807.611-1.807h42.476c.336 0 .611.801.611 1.807z" fill="url(#Q)"/><path d="M390.848 232.737h-38.475c-.837 0-1.264.536-1.264 1.37v1.162h41.385v-1.162c-.002-.834-.811-1.37-1.646-1.37z" fill="#438dff"/><path d="M401.831 193.59l-4.934 33.669c-.161 1.099-1.199 1.991-2.321 1.991h-36.935c-1.18 0-1.966-.913-1.754-2.045l6.472-34.572c.196-1.053 1.271-1.882 2.402-1.852l35.398.904c1.075.025 1.824.88 1.672 1.905z" fill="url(#R)"/><path d="M365.652 191.413l-6.819 37.051c-.084.463-.63.839-1.11.839-1.181 0-2.053-.925-1.84-2.061l6.476-34.6c.198-1.057 1.273-1.891 2.404-1.863l.62.016c.199.141.315.369.269.618z" fill="url(#S)"/><path d="M395.818 215.62c-.138-.005-.229-.123-.203-.267l3.528-19.949c.161-.906-.559-1.487-1.345-1.526l-3.753-.191c-.135-.007-.223-.123-.198-.26a.29.29 0 0 1 .289-.235l3.75.193c1.171.06 1.936.957 1.745 2.044l-3.517 19.942c-.028.144-.161.253-.296.249zm-27.407 10.672l-5.198-.009c-1.066-.003-1.698-.95-1.469-2.2l1.399-7.692a.33.33 0 0 1 .308-.263c.144.003.238.121.212.268l-1.394 7.689c-.171.943.277 1.659 1.042 1.659l5.194.011c.144 0 .24.121.214.27a.33.33 0 0 1-.308.267z" class="B"/><path d="M391.404 234.599v.444l-8.939.223h-12.994c-.313 0-.567-.288-.567-.599 0-1.215.858-2.293 2.08-2.293h18.344c.156 0 .343 0 .483.032.963.221 1.593 1.136 1.593 2.193z" fill="url(#T)"/><path d="M393.845 234.567c-.002-1.215-.996-2.191-2.218-2.186l-1.854.007-7.318.032-9.172.054c-1.22.005-2.204 1.092-2.201 2.307.002.239.198.485.438.485h21.886c.117 0 .229-.097.311-.179a.5.5 0 0 0 .128-.334v-.186z" fill="url(#U)"/><use xlink:href="#t" fill="url(#V)"/><path d="M386.723 207.784h-8.572c-.838 0-1.63.836-1.63 1.67v22.922h11.616v-22.922c0-.834-.576-1.67-1.414-1.67z" fill="url(#W)"/><path d="M344.873 235.266h9.942s-2.258-4.832-6.388-4.593-3.554 4.593-3.554 4.593z" class="D"/><path d="M317.774 221.307l6.915-3.171 6.115 10.705s17.287-2.679 20.361.574 1.633 3.205 1.248 3.205-2.162-1.914-2.162-1.914 1.558 2.335.721 2.439-2.883-2.104-2.883-2.104 1.682 2.918.672 2.583-1.824-1.914-1.824-1.914 1.346 1.872.432 1.94-2.305-1.541-2.305-1.541-2.136.964-3.36.964-13.566 3.069-15.8 1.794-8.13-13.56-8.13-13.56z" fill="url(#X)"/><path d="M299.726 232.737h-38.474c-.837 0-1.264.536-1.264 1.37v1.162h41.385v-1.162c0-.834-.809-1.37-1.647-1.37z" fill="#438dff"/><path d="M310.716 193.591l-4.934 33.669c-.161 1.099-1.199 1.991-2.321 1.991h-36.935c-1.18 0-1.966-.913-1.754-2.044l6.471-34.573c.196-1.053 1.271-1.882 2.402-1.852l35.399.904c1.075.026 1.821.88 1.672 1.905z" fill="url(#Y)"/><path d="M274.531 191.413l-6.819 37.051c-.084.463-.63.839-1.11.839-1.18 0-2.052-.925-1.84-2.061l6.476-34.6c.198-1.057 1.273-1.891 2.404-1.863l.621.016c.198.141.315.369.268.618z" fill="url(#Z)"/><path d="M304.696 215.62c-.137-.005-.228-.123-.203-.267l3.529-19.949c.161-.906-.56-1.487-1.346-1.526l-3.752-.191a.21.21 0 0 1-.198-.26c.025-.137.154-.241.289-.234l3.75.192c1.17.061 1.935.958 1.744 2.045l-3.517 19.941c-.028.144-.158.254-.296.249zm-27.407 10.673l-5.198-.01c-1.066-.002-1.698-.95-1.469-2.2l1.399-7.692c.026-.146.166-.262.308-.262s.238.121.212.267l-1.395 7.69c-.17.943.278 1.658 1.043 1.658l5.193.012c.145 0 .241.121.215.269a.33.33 0 0 1-.308.268z" class="B"/><path d="M300.284 234.599v.444l-8.939.223H278.35c-.312 0-.566-.288-.566-.599 0-1.215.858-2.293 2.08-2.293h18.344c.156 0 .343 0 .483.032.963.221 1.593 1.136 1.593 2.193z" fill="url(#a)"/><path d="M302.723 234.567c-.002-1.215-.996-2.191-2.218-2.186l-1.854.007-7.318.032-9.172.054c-1.22.005-2.204 1.092-2.202 2.307.003.239.199.485.439.485h21.887c.116 0 .228-.097.31-.179a.5.5 0 0 0 .128-.334v-.186z" fill="url(#b)"/><use xlink:href="#t" x="-91.122" fill="url(#V)"/><path d="M295.601 207.784h-8.573c-.837 0-1.63.836-1.63 1.67v22.922h11.616v-22.922c.002-.834-.576-1.67-1.413-1.67z" fill="url(#c)"/><path d="M243.95 235.266h9.941s-2.257-4.832-6.387-4.593-3.554 4.593-3.554 4.593z" class="D"/><use xlink:href="#r" x="-197.851" fill="url(#d)"/><use xlink:href="#s" x="-197.849" fill="#ffb34d"/><path d="M131.085 184.009l-3.137 12.006s6.558 3.155 12.127.423l-1.758-11.639-7.232-.79z" fill="url(#e)"/><path d="M145.854 174.317s.501 8.704-.737 12.721-1.332 6.886-6.194 5.998-7.873-4.567-8.505-9.255c0 0-1.031-7.243.618-9.448s14.818-.016 14.818-.016z" fill="url(#f)"/><path d="M133.022 181.537l.303-.018a.67.67 0 0 0 .625-.746c-.184-1.477-.389-4.781 1.479-4.846 2.407-.086 11.315 1.275 14.186-.997 2.759-2.183 2.582-6.374.679-8.247-.129-.125-.329-.137-.462-.018l-.324.29c-.222.198-.572.028-.551-.269a.33.33 0 0 0-.529-.286c-.874.674-2.882 1.549-7.12.822-6.021-1.033-10.59-.132-12.117 3.715-.098.244-.411.286-.576.079-.322-.407-.945-.769-2.111-.351-2.029.727-2.64 4.324-.27 8.338.112.19.018.441-.199.49-.762.172-2.031.785-.123 2.925 1.973 2.211 3.848 2.778 4.599 2.922a.33.33 0 0 0 .389-.278l.509-3.687c.027-.209.244-.337.443-.265l1.17.427z" fill="url(#g)"/><path d="M132.897 182.308s.522-5.25-2.13-4.699-.867 5.78.798 6.595l1.332-1.896z" fill="url(#h)"/><g class="F"><path d="M139.463 189.015c-5.643-.532-7.894-6.825-7.915-6.89l.408-.142c.021.06 2.183 6.094 7.549 6.602l-.042.43z"/><path d="M141.639 188.797c0 .299-.245.543-.543.543h-1.453c-.301 0-.546-.244-.546-.543s.245-.542.546-.542h1.453a.54.54 0 0 1 .543.542zm-2.813.116l-.007.532h.007v-.532z"/><path d="M138.815 188.255l.021 1.445h-.016l.28-.787v-.658h-.285z"/><use xlink:href="#u"/><use xlink:href="#u" x="0.018"/><use xlink:href="#u" x="0.035"/><use xlink:href="#u" x="0.052"/><use xlink:href="#v"/><use xlink:href="#w"/><use xlink:href="#w" x="0.017"/><use xlink:href="#x"/><use xlink:href="#y"/><use xlink:href="#u" x="0.145"/><use xlink:href="#u" x="0.161"/><use xlink:href="#y" x="0.049"/><use xlink:href="#u" x="0.194"/><use xlink:href="#y" x="0.082"/><use xlink:href="#u" x="0.227"/><use xlink:href="#u" x="0.243"/><use xlink:href="#v" x="0.193"/><use xlink:href="#z"/><use xlink:href="#AA"/><use xlink:href="#AB"/><use xlink:href="#u" x="0.323"/><use xlink:href="#u" x="0.339"/><use xlink:href="#u" x="0.355"/><use xlink:href="#u" x="0.372"/><use xlink:href="#u" x="0.388"/><use xlink:href="#u" x="0.404"/><use xlink:href="#u" x="0.42"/><use xlink:href="#v" x="0.37"/><use xlink:href="#z" x="0.178"/><use xlink:href="#AA" x="0.178"/><use xlink:href="#x" x="0.371"/><use xlink:href="#u" x="0.5"/><use xlink:href="#u" x="0.516"/><use xlink:href="#y" x="0.404"/><use xlink:href="#y" x="0.419"/><use xlink:href="#u" x="0.565"/><use xlink:href="#y" x="0.453"/><use xlink:href="#u" x="0.598"/><use xlink:href="#y" x="0.486"/><use xlink:href="#v" x="0.564"/><use xlink:href="#AA" x="0.354"/><use xlink:href="#w" x="0.581"/><use xlink:href="#x" x="0.564"/><use xlink:href="#u" x="0.694"/><use xlink:href="#y" x="0.582"/><use xlink:href="#u" x="0.725"/><use xlink:href="#u" x="0.743"/><use xlink:href="#u" x="0.758"/><use xlink:href="#y" x="0.647"/><use xlink:href="#y" x="0.662"/><use xlink:href="#AC"/><use xlink:href="#w" x="0.742"/><use xlink:href="#AA" x="0.548"/><use xlink:href="#x" x="0.741"/><use xlink:href="#u" x="0.87"/><use xlink:href="#u" x="0.886"/><use xlink:href="#y" x="0.774"/><use xlink:href="#y" x="0.79"/><use xlink:href="#u" x="0.935"/><use xlink:href="#u" x="0.952"/><use xlink:href="#u" x="0.968"/><use xlink:href="#y" x="0.856"/><use xlink:href="#v" x="0.934"/><use xlink:href="#z" x="0.741"/><use xlink:href="#AA" x="0.741"/><use xlink:href="#AB" x="0.741"/><use xlink:href="#y" x="0.935"/><use xlink:href="#u" x="1.08"/><path d="M139.927 188.255l.022 1.445h-.017l-.021-1.445h.016z"/><use xlink:href="#u" x="1.113"/><use xlink:href="#u" x="1.129"/><use xlink:href="#y" x="1.017"/><use xlink:href="#u" x="1.162"/><use xlink:href="#AC" x="0.371"/><use xlink:href="#z" x="0.919"/><use xlink:href="#z" x="0.935"/><use xlink:href="#AB" x="0.919"/><use xlink:href="#y" x="1.112"/><use xlink:href="#u" x="1.257"/><use xlink:href="#u" x="1.273"/><path d="M140.121 188.255l.021 1.445h-.016l-.022-1.445h.017z"/><use xlink:href="#u" x="1.306"/><use xlink:href="#u" x="1.323"/><use xlink:href="#u" x="1.339"/><use xlink:href="#u" x="1.355"/><use xlink:href="#AC" x="0.565"/><use xlink:href="#AA" x="1.096"/><use xlink:href="#AA" x="1.112"/><use xlink:href="#AB" x="1.112"/><use xlink:href="#u" x="1.435"/><use xlink:href="#u" x="1.451"/><use xlink:href="#y" x="1.339"/><use xlink:href="#y" x="1.355"/><use xlink:href="#u" x="1.5"/><use xlink:href="#u" x="1.516"/><use xlink:href="#y" x="1.404"/><use xlink:href="#AC" x="0.741"/><use xlink:href="#AA" x="1.273"/><use xlink:href="#w" x="1.5"/><use xlink:href="#x" x="1.483"/><use xlink:href="#y" x="1.483"/><use xlink:href="#u" x="1.628"/><path d="M140.475 188.255l.021 1.445h-.016l-.022-1.445h.017z"/><use xlink:href="#u" x="1.66"/><use xlink:href="#y" x="1.548"/><use xlink:href="#u" x="1.693"/><use xlink:href="#y" x="1.581"/><use xlink:href="#u" x="1.726"/><use xlink:href="#AC" x="0.935"/><use xlink:href="#AA" x="1.467"/><use xlink:href="#AA" x="1.483"/><use xlink:href="#AB" x="1.483"/><path d="M140.636 188.255l.022 1.445h-.017l-.021-1.445h.016z"/><use xlink:href="#u" x="1.822"/><use xlink:href="#u" x="1.838"/><use xlink:href="#u" x="1.854"/><use xlink:href="#u" x="1.871"/><use xlink:href="#u" x="1.887"/><use xlink:href="#u" x="1.903"/><use xlink:href="#u" x="1.919"/><use xlink:href="#AC" x="1.128"/><use xlink:href="#w" x="1.871"/><use xlink:href="#w" x="1.887"/><use xlink:href="#x" x="1.87"/><use xlink:href="#u" x="1.998"/><use xlink:href="#u" x="2.015"/><use xlink:href="#y" x="1.903"/><use xlink:href="#y" x="1.919"/><use xlink:href="#u" x="2.064"/><use xlink:href="#u" x="2.08"/><use xlink:href="#u" x="2.097"/><use xlink:href="#v" x="2.047"/><use xlink:href="#z" x="1.854"/><use xlink:href="#z" x="1.87"/><use xlink:href="#AB" x="1.854"/><use xlink:href="#u" x="2.176"/><use xlink:href="#y" x="2.064"/><use xlink:href="#u" x="2.209"/><use xlink:href="#u" x="2.225"/><use xlink:href="#u" x="2.241"/><use xlink:href="#y" x="2.129"/><use xlink:href="#y" x="2.145"/><use xlink:href="#AC" x="1.483"/><use xlink:href="#w" x="2.225"/><use xlink:href="#w" x="2.242"/><use xlink:href="#AA" x="2.047"/><use xlink:href="#AB" x="2.047"/><use xlink:href="#u" x="2.37"/><use xlink:href="#u" x="2.386"/><use xlink:href="#u" x="2.402"/><path d="M141.25 188.255l.028.577v.868h-.024l-.021-1.445h.017z"/><path d="M141.252 188.832l-.002-.558h.002v.558zm-8.314-12.968s3.54-8.521 9.244-8.484c0 0-1.434-.969-3.22-.441s-6.731 4.17-7.451 8.925c1.056.546 1.427 0 1.427 0z"/><path d="M132.087 175.167c-3.169.095-3.459 4.019-3.459 4.019-.701 2.762-.121 4.291.817 5.132.641.574 1.537.771 2.362.52a2.45 2.45 0 0 0 1.663-1.749l.478-1.712c.245-.602 1.308-6.305-1.861-6.21z"/></g><path d="M132.202 176.192a1.42 1.42 0 0 0-1.661.557c-2.558 3.912-.783 7.044.31 7.29 1.152.26 2.09-5.317 2.087-6.788 0-.62-.34-.92-.736-1.059z" class="K"/><path d="M119.265 220.854c-.046 0-.091-.021-.119-.063l-3.458-5.071c-.044-.065-.028-.156.037-.2s.157-.028.201.037l3.458 5.071c.045.065.028.156-.037.2a.15.15 0 0 1-.082.026zm7.573-2.572c-.044 0-.086-.021-.114-.058-.049-.063-.035-.153.028-.2l1.273-.952-4.093-11.286c-.028-.074.012-.158.087-.184s.156.012.184.086l4.13 11.386c.021.06.002.125-.049.163l-1.36 1.015c-.025.021-.056.03-.086.03z" class="I"/><path d="M325.342 238.161h-48.799-58.659-31.735H78.692l11.087 59.683c.219 1.162 1.35 2.156 2.376 2.156h107.458 4.89 85.503 21.952 90.394c1.026 0 2.076-.994 2.295-2.156l11.086-59.683h-90.391z" fill="#589aff"/><path d="M128.074 238.161L123.647 300H92.155c-1.026 0-2.157-.994-2.376-2.156l-11.087-59.683h49.382z" fill="#70a8ff"/><path d="M415.85 234.544h-91.121-47.061-51.619-8.05-23.358v-.439c0-.834-.809-1.371-1.647-1.371h-38.472c-.837 0-1.264.537-1.264 1.371v.439H79.819c-1.096 0-1.985.802-1.985 1.807s.888 1.808 1.985 1.808h103.754 2.976 31.452 8.051 51.618 47.061 91.122c1.096 0 1.984-.802 1.984-1.808s-.891-1.807-1.987-1.807z" fill="#579aff"/><path d="M203.985 193.591l-4.935 33.669c-.161 1.099-1.199 1.991-2.32 1.991h-36.936c-1.18 0-1.966-.913-1.754-2.044l6.472-34.573c.196-1.053 1.271-1.882 2.402-1.852l35.399.904c1.075.026 1.821.88 1.672 1.905z" fill="url(#i)"/><path d="M167.801 191.413l-6.819 37.051c-.084.463-.63.839-1.111.839-1.18 0-2.052-.925-1.84-2.061l6.477-34.6c.198-1.057 1.273-1.891 2.402-1.863l.62.016c.201.141.317.369.271.618z" fill="url(#j)"/><path d="M197.967 215.62c-.138-.005-.229-.123-.203-.267l3.528-19.949c.161-.906-.559-1.487-1.345-1.526l-3.753-.191a.21.21 0 0 1-.198-.26.29.29 0 0 1 .289-.235l3.75.193c1.171.06 1.936.957 1.745 2.044l-3.517 19.942c-.028.144-.159.253-.296.249zm-27.407 10.672l-5.199-.009c-1.065-.003-1.697-.95-1.469-2.2l1.4-7.692c.025-.146.165-.263.307-.263s.238.121.213.268l-1.395 7.689c-.17.943.278 1.659 1.042 1.659l5.194.011c.145 0 .24.121.214.27a.33.33 0 0 1-.307.267z" class="B"/><path d="M193.554 234.599v.444l-8.939.223H171.62c-.312 0-.566-.288-.566-.599 0-1.215.858-2.293 2.08-2.293h18.344c.156 0 .343 0 .483.032.963.221 1.593 1.136 1.593 2.193z" fill="url(#k)"/><path d="M195.992 234.567c-.002-1.215-.995-2.191-2.217-2.186l-1.854.007-7.318.032-9.173.054c-1.219.005-2.203 1.092-2.201 2.307.002.239.198.485.438.485h21.887c.117 0 .229-.097.31-.179s.128-.218.128-.334v-.186z" fill="url(#l)"/><use xlink:href="#t" x="-197.852" fill="url(#V)"/><path d="M188.871 207.784h-8.57c-.838 0-1.631.836-1.631 1.67v22.922h11.617v-22.922c0-.834-.579-1.67-1.416-1.67z" fill="url(#m)"/><path d="M147.022 235.266h9.942s-2.258-4.832-6.388-4.593-3.554 4.593-3.554 4.593z" class="D"/><path d="M119.923 221.307l6.915-3.171 6.115 10.705s17.287-2.679 20.361.574 1.633 3.205 1.248 3.205-2.162-1.914-2.162-1.914 1.558 2.335.721 2.439-2.883-2.104-2.883-2.104 1.681 2.918.672 2.583-1.826-1.914-1.826-1.914 1.345 1.872.431 1.94-2.304-1.541-2.304-1.541-2.136.964-3.361.964-13.565 3.069-15.799 1.794-8.128-13.56-8.128-13.56z" fill="url(#n)"/><path d="M121.831 236.351c0-.999.898-1.807 2.003-1.807H78.167c-1.105 0-2.003.808-2.003 1.807s.895 1.808 2.003 1.808h45.665c-1.106.002-2.001-.809-2.001-1.808z" class="D"/><g class="F"><path d="M258.759 193.85c-5.667.153-8.666-5.822-8.696-5.883l.389-.188c.028.058 2.911 5.785 8.298 5.641l.009.43z"/><path d="M260.466 194.012l-1.59.212a.54.54 0 0 1-.607-.46l-.028-.205a.54.54 0 0 1 .462-.604l1.59-.211a.54.54 0 0 1 .607.46l.028.204c.042.293-.168.565-.462.604zm-10.148-11.706s2.477-8.886 8.141-9.539c0 0-1.544-.787-3.251-.049s-6.173 4.953-6.308 9.762c1.117.414 1.418-.174 1.418-.174z"/><path d="M249.75 180.996c-3.134.479-2.943 4.407-2.943 4.407-.361 2.827.402 4.274 1.435 4.995.706.492 1.62.578 2.406.23s1.334-1.085 1.439-1.938l.266-1.758c.17-.625.532-6.415-2.603-5.936z"/></g><path d="M249.989 181.997c-.639-.141-1.292.168-1.579.753-2.061 4.191.08 7.085 1.197 7.197 1.175.118 1.425-5.531 1.245-6.993-.077-.608-.452-.864-.863-.957z" class="K"/><path d="M346.83 179.265s-1.367 9.569-5.056 12.512-10.879.728-13.309-6.486l4.839-12.336 13.526 6.31z" fill="url(#o)"/><path d="M332.76 180.938c.28.09.574-.088.618-.379.133-.883.467-2.632 1.138-3.821 0 0-.352-1.255 3.186.641s8.85 4.683 11.977 3.025c3.051-1.617 6.138-9.758-1.921-8.25-.308.058-.588-.186-.567-.497.098-1.338-.035-4.416-3.162-5.404-2.929-.924-1.355.574-2.017 1.369-.194.234.244-.797-3.916-.193-1.427.207-3.26-3.568-6.765-2.031-2.89 1.269-3.338 3.041-3.291 4.145.016.358-.35.599-.676.451-.884-.407-2.307-.616-3.671 1.084-1.884 2.351.809 4.391 1.616 4.928.133.088.215.232.215.39.007 1.224.198 6.558 2.882 9.569.233.26.662.184.798-.137l2.066-4.906a.48.48 0 0 1 .588-.27l.902.286z" fill="url(#p)"/><path d="M332.803 181.934s-1.262-5.12-3.179-3.459.499 5.323 2.696 6.02l.483-2.561z" fill="url(#q)"/><g class="F"><path d="M338.018 188.909c-5.595-.909-7.419-7.337-7.435-7.402l.417-.114c.017.063 1.77 6.226 7.088 7.09l-.07.426z"/><path d="M337.391 188.767l-.042.527h.007l.035-.527z"/><path d="M337.43 187.977l-.074 1.445-.017-.002.194-.644.052-.79-.155-.009z"/><use xlink:href="#AD"/><use xlink:href="#AE"/><use xlink:href="#AD" x="0.034" y="0.002"/><path d="M337.495 187.982l-.075 1.445-.016-.003.075-1.445.016.003z"/><use xlink:href="#AF"/><path d="M337.529 187.984l-.077 1.445-.014-.002.074-1.445.017.002z"/><use xlink:href="#AG"/><path d="M337.561 187.986l-.077 1.443h-.016l.077-1.445.016.002z"/><path d="M337.578 187.986l-.077 1.445-.017-.002.077-1.443h.017z"/><use xlink:href="#AH"/><use xlink:href="#AI"/><use xlink:href="#AD" x="0.177" y="0.012"/><path d="M337.64 187.991l-.074 1.445-.017-.002.075-1.445.016.002z"/><use xlink:href="#AF" x="0.145" y="0.009"/><use xlink:href="#AJ"/><use xlink:href="#AK"/><path d="M337.706 187.996l-.077 1.445-.017-.003.077-1.445.017.003z"/><use xlink:href="#AG" x="0.177" y="0.012"/><path d="M337.737 187.998l-.075 1.445-.016-.002.077-1.445.014.002z"/><use xlink:href="#AL"/><path d="M337.769 188l-.075 1.443h-.016l.074-1.445.017.002z"/><use xlink:href="#AM"/><use xlink:href="#AD" x="0.354" y="0.023"/><use xlink:href="#AE" x="0.352" y="0.023"/><use xlink:href="#AK" x="0.145" y="0.01"/><use xlink:href="#AN"/><use xlink:href="#AG" x="0.322" y="0.021"/><use xlink:href="#AO"/><use xlink:href="#AH" x="0.306" y="0.021"/><use xlink:href="#AI" x="0.306" y="0.021"/><use xlink:href="#AF" x="0.418" y="0.027"/><path d="M337.946 188.012l-.075 1.445-.016-.003.075-1.445.016.003z"/><use xlink:href="#AL" x="0.21" y="0.014"/><path d="M337.979 188.014l-.075 1.443h-.016l.074-1.445.017.002z"/><path d="M337.995 188.014l-.077 1.445-.014-.002.075-1.443h.016z"/><path d="M338.012 188.014l-.077 1.445h-.017l.078-1.445h.016z"/><path d="M338.028 188.016l-.077 1.446-.016-.003.077-1.445.016.002z"/><path d="M338.045 188.016l-.077 1.445h-.017l.077-1.445h.017z"/><path d="M338.058 188.019l-.074 1.445-.017-.003.077-1.445.014.003z"/><use xlink:href="#AD" x="0.626" y="0.042"/><use xlink:href="#AJ" x="0.418" y="0.028"/><use xlink:href="#AF" x="0.595" y="0.039"/><use xlink:href="#AI" x="0.515" y="0.035"/><use xlink:href="#AD" x="0.693" y="0.046"/><path d="M338.156 188.026l-.078 1.445-.014-.003.075-1.445.017.003z"/><use xlink:href="#AG" x="0.628" y="0.042"/><path d="M338.188 188.028l-.077 1.443h-.016l.077-1.445.016.002z"/><path d="M338.206 188.028l-.077 1.445-.017-.002.077-1.443h.017z"/><path d="M338.218 188.028l-.074 1.445h-.017l.077-1.445h.014z"/><path d="M338.236 188.031l-.075 1.444-.016-.002.075-1.445.016.003z"/><path d="M338.251 188.031l-.075 1.444h-.016l.075-1.444h.016z"/><path d="M338.268 188.033l-.075 1.445-.016-.003.074-1.444.017.002z"/><use xlink:href="#AF" x="0.772" y="0.051"/><use xlink:href="#AJ" x="0.627" y="0.042"/><use xlink:href="#AK" x="0.627" y="0.042"/><path d="M338.333 188.038l-.077 1.445-.017-.003.077-1.445.017.003z"/><use xlink:href="#AG" x="0.804" y="0.053"/><path d="M338.365 188.04l-.077 1.445-.016-.003.077-1.445.016.003z"/><use xlink:href="#AH" x="0.788" y="0.054"/><path d="M338.396 188.042l-.075 1.443h-.016l.074-1.445.017.002z"/><use xlink:href="#AM" x="0.627" y="0.042"/><path d="M338.429 188.042l-.075 1.445h-.017l.075-1.445h.017z"/><use xlink:href="#AE" x="0.979" y="0.065"/><path d="M338.461 188.045l-.077 1.445h-.014l.074-1.445h.017z"/><use xlink:href="#AN" x="0.627" y="0.042"/><path d="M338.494 188.047l-.077 1.445h-.017l.077-1.445h.017z"/><use xlink:href="#AO" x="0.626" y="0.042"/><use xlink:href="#AH" x="0.933" y="0.063"/><path d="M338.54 188.052l-.074 1.445-.017-.003.075-1.445.016.003z"/><path d="M338.557 188.052l-.075 1.444h-.016l.075-1.444h.016z"/><use xlink:href="#AJ" x="0.9" y="0.061"/><use xlink:href="#AL" x="0.837" y="0.056"/><path d="M338.606 188.056l-.075 1.443h-.016l.075-1.445.016.002z"/><use xlink:href="#AM" x="0.837" y="0.056"/><use xlink:href="#AK" x="0.949" y="0.063"/><use xlink:href="#AO" x="0.77" y="0.051"/><path d="M338.671 188.059l-.078 1.445h-.016l.077-1.445h.017z"/><path d="M338.685 188.061l-.075 1.445-.016-.002.077-1.445.014.002z"/><use xlink:href="#AD" x="1.254" y="0.084"/><use xlink:href="#AJ" x="1.045" y="0.07"/><use xlink:href="#AL" x="0.981" y="0.065"/><path d="M338.75 188.065l-.074 1.445-.017-.002.075-1.445.016.002z"/><use xlink:href="#AL" x="1.014" y="0.068"/><path d="M338.783 188.068l-.077 1.445-.014-.002.075-1.445.016.002z"/><path d="M338.799 188.068l-.078 1.445h-.016l.077-1.445h.017z"/><path d="M338.816 188.07l-.077 1.443h-.017l.077-1.445.017.002z"/><path d="M338.832 188.07l-.077 1.445-.017-.002.077-1.443h.017z"/><path d="M338.846 188.073l-.075 1.442h-.016l.077-1.445.014.003z"/><path d="M338.863 188.073l-.075 1.445-.017-.003.075-1.442h.017z"/><use xlink:href="#AL" x="1.126" y="0.075"/><use xlink:href="#AE" x="1.429" y="0.096"/><use xlink:href="#AD" x="1.464" y="0.098"/><path d="M338.928 188.077l-.075 1.445-.017-.002.075-1.445.017.002z"/><use xlink:href="#AK" x="1.255" y="0.084"/><use xlink:href="#AN" x="1.11" y="0.074"/><path d="M338.977 188.08l-.077 1.445h-.017l.077-1.445h.017z"/><use xlink:href="#AN" x="1.142" y="0.077"/><use xlink:href="#AH" x="1.416" y="0.096"/><path d="M339.023 188.084l-.075 1.443h-.016l.075-1.445.016.002z"/><use xlink:href="#AM" x="1.254" y="0.084"/><path d="M339.055 188.087l-.074 1.442h-.017l.075-1.445.016.003z"/><path d="M339.072 188.087l-.075 1.445-.016-.003.075-1.442h.016z"/><use xlink:href="#AL" x="1.336" y="0.089"/><path d="M339.105 188.089l-.077 1.445-.014-.002.075-1.445.016.002z"/><use xlink:href="#AG" x="1.576" y="0.105"/><path d="M339.137 188.091l-.077 1.445-.017-.002.078-1.445.016.002z"/><use xlink:href="#AH" x="1.56" y="0.105"/><use xlink:href="#AE" x="1.702" y="0.114"/><use xlink:href="#AF" x="1.672" y="0.111"/><path d="M339.2 188.096l-.074 1.445-.017-.003.075-1.445.016.003z"/><use xlink:href="#AF" x="1.705" y="0.114"/><use xlink:href="#AJ" x="1.56" y="0.105"/><use xlink:href="#AL" x="1.497" y="0.1"/><path d="M339.266 188.101l-.077 1.442h-.014l.075-1.445.016.003z"/><path d="M339.282 188.101l-.077 1.445-.017-.003.078-1.442h.016z"/><path d="M339.299 188.101l-.078 1.445h-.016l.077-1.445h.017z"/><path d="M339.313 188.103l-.075 1.445-.016-.002.077-1.445.014.002z"/><use xlink:href="#AL" x="1.576" y="0.105"/><use xlink:href="#AJ" x="1.672" y="0.112"/><use xlink:href="#AF" x="1.849" y="0.123"/><use xlink:href="#AI" x="1.77" y="0.119"/><use xlink:href="#AL" x="1.641" y="0.11"/><path d="M339.41 188.11l-.077 1.445-.014-.002.075-1.445.016.002z"/><use xlink:href="#AG" x="1.881" y="0.126"/><use xlink:href="#AO" x="1.559" y="0.105"/><use xlink:href="#AG" x="1.914" y="0.128"/><path d="M339.473 188.115l-.074 1.442h-.017l.077-1.445.014.003z"/><path d="M339.49 188.115l-.075 1.445-.017-.003.075-1.442h.017z"/><use xlink:href="#AL" x="1.753" y="0.117"/><path d="M339.522 188.117l-.074 1.445-.017-.002.075-1.445.016.002z"/><use xlink:href="#AL" x="1.786" y="0.119"/><use xlink:href="#AJ" x="1.882" y="0.126"/><path d="M339.572 188.119l-.078 1.445h-.014l.075-1.445h.017z"/><use xlink:href="#AO" x="1.704" y="0.114"/><use xlink:href="#AG" x="2.059" y="0.138"/><use xlink:href="#AO" x="1.736" y="0.117"/><path d="M339.635 188.124l-.075 1.445h-.017l.078-1.445h.014z"/><use xlink:href="#AE" x="2.185" y="0.147"/><use xlink:href="#AD" x="2.22" y="0.149"/><path d="M339.683 188.129l-.074 1.442h-.017l.075-1.445.016.003z"/><path d="M339.699 188.129l-.074 1.445-.017-.003.075-1.442h.016z"/><use xlink:href="#AL" x="1.963" y="0.131"/><path d="M339.732 188.131l-.077 1.445-.014-.002.074-1.445.017.002z"/><use xlink:href="#AG" x="2.203" y="0.147"/><use xlink:href="#AN" x="1.914" y="0.128"/><use xlink:href="#AG" x="2.236" y="0.149"/><path d="M339.796 188.136l-.075 1.444-.016-.002.077-1.445.014.003z"/><use xlink:href="#AD" x="2.364" y="0.159"/><use xlink:href="#AJ" x="2.155" y="0.145"/><use xlink:href="#AF" x="2.332" y="0.156"/><path d="M339.86 188.14l-.149.7-.049.736.107.007.075-1.445.016.002zm-.044.706l.035-.558h.003l-.038.558zm-7.426-13.493s3.869-8.124 9.557-7.708c0 0-1.131-1.204-2.948-.797s-6.996 3.712-8.034 8.41c1.017.615 1.425.095 1.425.095z"/><path d="M331.588 174.601c-3.169-.117-3.72 3.779-3.72 3.779-.886 2.709-.41 4.273.469 5.174.6.616 1.483.871 2.321.676a2.45 2.45 0 0 0 1.777-1.633l.592-1.678c.285-.583 1.73-6.202-1.439-6.318z"/></g><path d="M331.632 175.63a1.41 1.41 0 0 0-1.693.446c-2.815 3.733-1.255 6.976-.179 7.294 1.133.335 2.441-5.166 2.539-6.635.04-.615-.282-.938-.667-1.105z" class="K"/><g fill="#ffbd63"><path d="M148.385 125.111c0 9.39-7.642 17.003-17.068 17.003H99.713c-9.426 0-17.068-7.613-17.068-17.003v-.228c0-9.39 7.642-17.003 17.069-17.003h31.606c9.427 0 17.069 7.613 17.069 17.003v.228h-.003z"/><path d="M108.589 138.074l-12.624 1.059 19.765 22.365c.072.081.193.102.289.049s.14-.168.105-.272l-7.535-23.201z"/></g><path d="M98.188 129.436c1.878 0 3.4-1.516 3.4-3.387s-1.522-3.387-3.4-3.387-3.4 1.517-3.4 3.387 1.522 3.387 3.4 3.387zm20.466-3.387c0 1.87-1.522 3.387-3.4 3.387s-3.4-1.517-3.4-3.387 1.523-3.387 3.403-3.387c1.875 0 3.397 1.517 3.397 3.387zm13.669 3.387c1.877 0 3.4-1.516 3.4-3.387s-1.523-3.387-3.4-3.387-3.401 1.517-3.401 3.387 1.523 3.387 3.401 3.387z" class="E" opacity=".9" fill="#fff"/><g fill="#ffbd63"><path d="M376.494 121.638c0 9.39-7.643 17.003-17.069 17.003h-31.606c-9.427 0-17.069-7.613-17.069-17.003v-.228c0-9.39 7.642-17.003 17.069-17.003h31.606c9.426 0 17.069 7.613 17.069 17.003v.228z"/><path d="M336.874 134.354l-12.624 1.06 19.764 22.365c.073.081.194.102.29.048s.139-.167.104-.271l-7.534-23.202z"/></g><path d="M329.873 122.33c0 1.87-1.523 3.387-3.4 3.387s-3.4-1.517-3.4-3.387 1.523-3.387 3.4-3.387 3.4 1.517 3.4 3.387zm17.069 0c0 1.87-1.523 3.387-3.4 3.387s-3.4-1.517-3.4-3.387 1.522-3.387 3.4-3.387 3.4 1.517 3.4 3.387zm17.068 0c0 1.87-1.523 3.387-3.4 3.387s-3.401-1.517-3.401-3.387 1.523-3.387 3.401-3.387 3.4 1.517 3.4 3.387z" class="E" opacity=".9" fill="#fff"/><g class="J"><path d="M201.179 139.768c0-9.39-7.642-17.003-17.068-17.003h-31.607c-9.426 0-17.068 7.613-17.068 17.003v.227c0 9.39 7.642 17.003 17.068 17.003h31.607c9.426 0 17.068-7.613 17.068-17.003v-.227z"/><path d="M174.192 152.951l12.624 1.059-19.764 22.365c-.073.081-.194.102-.29.049s-.139-.167-.107-.272l7.537-23.201z"/></g><path d="M181.195 140.927c0 1.87 1.523 3.387 3.4 3.387s3.401-1.517 3.401-3.387-1.523-3.388-3.401-3.388-3.4 1.517-3.4 3.388zm-17.068 0c0 1.87 1.523 3.387 3.401 3.387s3.4-1.517 3.4-3.387-1.523-3.388-3.4-3.388-3.401 1.517-3.401 3.388zm-17.068 0c0 1.87 1.522 3.387 3.4 3.387s3.4-1.517 3.4-3.387-1.523-3.388-3.4-3.388-3.4 1.517-3.4 3.388z" class="E" fill="#fff"/><g class="J"><path d="M423.016 142.114c0-8.554-7.782-15.382-17.381-15.382H373.59c-9.599 0-17.381 6.826-17.381 15.382s7.782 15.379 17.381 15.379h32.045c9.599 0 17.381-6.825 17.381-15.379z"/><path d="M396.13 154.008l12.854.967-20.126 20.373a.26.26 0 0 1-.294.045c-.097-.049-.142-.154-.107-.249l7.673-21.136z"/></g><g fill="#fff"><path d="M406.722 146.137c1.911 0 3.461-1.381 3.461-3.085s-1.55-3.085-3.461-3.085-3.461 1.381-3.461 3.085 1.55 3.085 3.461 3.085z" class="E"/><use xlink:href="#AP" class="E"/><use xlink:href="#AP" x="-17.378" class="E"/></g><path d="M234.799 142.188c-.602 0-1.15-.358-1.383-.915l-2.169-5.144a27.78 27.78 0 0 1-7.486-2.532l-4.867 2.769a1.51 1.51 0 0 1-1.735-.174l-5.546-4.841c-.48-.421-.643-1.099-.401-1.689l2.118-5.169c-1.505-2.184-2.68-4.553-3.503-7.06l-5.404-1.468a1.5 1.5 0 0 1-1.103-1.345l-.485-7.33c-.042-.636.327-1.229.917-1.477l5.163-2.163a27.56 27.56 0 0 1 2.542-7.457l-2.78-4.848c-.317-.553-.247-1.248.175-1.728l4.86-5.524c.422-.479 1.106-.639 1.698-.4l5.189 2.109a27.78 27.78 0 0 1 7.087-3.489l1.474-5.383a1.5 1.5 0 0 1 1.348-1.099l7.36-.483a1.51 1.51 0 0 1 1.483.913l2.169 5.143a27.8 27.8 0 0 1 7.486 2.532l4.867-2.769a1.51 1.51 0 0 1 1.735.174l5.548 4.841c.48.421.641 1.099.401 1.689l-2.117 5.169a27.58 27.58 0 0 1 3.502 7.06l5.404 1.468a1.5 1.5 0 0 1 1.103 1.345l.485 7.33c.042.636-.327 1.229-.917 1.477l-5.163 2.163a27.52 27.52 0 0 1-2.542 7.457l2.78 4.849c.317.553.247 1.247-.175 1.728l-4.86 5.525c-.422.48-1.103.641-1.698.399l-5.189-2.109a27.76 27.76 0 0 1-7.087 3.489l-1.474 5.383a1.5 1.5 0 0 1-1.348 1.099l-7.36.483-.102.002zm-11.078-10.853l.485.257a25.79 25.79 0 0 0 7.911 2.674l.543.091 2.458 5.826 6.661-.436 1.669-6.099.528-.16c2.681-.813 5.2-2.054 7.49-3.687l.448-.318 5.877 2.39 4.398-5.001-3.148-5.49.259-.483a25.57 25.57 0 0 0 2.684-7.88l.091-.541 5.849-2.449-.439-6.635-6.122-1.663-.16-.525a25.59 25.59 0 0 0-3.701-7.462l-.32-.446 2.4-5.854-5.021-4.381-5.511 3.139-.485-.258a25.82 25.82 0 0 0-7.91-2.674l-.544-.091-2.458-5.826-6.66.437-1.67 6.098-.527.16c-2.682.813-5.201 2.054-7.491 3.687l-.447.318-5.877-2.391-4.399 5.002 3.149 5.49-.259.483a25.51 25.51 0 0 0-2.684 7.88l-.091.542-5.849 2.448.438 6.635 6.12 1.663.161.525a25.53 25.53 0 0 0 3.701 7.462l.319.446-2.4 5.855 5.021 4.381 5.513-3.138zm12.741-3.973c-.922 0-1.843-.067-2.748-.2-.543-.079-.921-.585-.839-1.127s.585-.915 1.131-.836c1.175.172 2.379.221 3.575.142 9.242-.606 16.266-8.591 15.658-17.798s-8.622-16.203-17.867-15.597-16.266 8.591-15.657 17.8c.2 3.027 1.217 5.938 2.943 8.416a.99.99 0 0 1-.252 1.38c-.452.314-1.073.2-1.385-.251a18.64 18.64 0 0 1-3.293-9.417c-.331-4.991 1.311-9.809 4.617-13.567a18.7 18.7 0 0 1 12.897-6.342c10.336-.678 19.305 7.148 19.986 17.447s-7.176 19.231-17.514 19.909a18.72 18.72 0 0 1-1.252.042zm-.087-11.074a7.54 7.54 0 0 1-3.424-.827c-1.793-.913-3.125-2.468-3.745-4.379a7.52 7.52 0 0 1 4.855-9.465c1.917-.618 3.96-.455 5.756.458s3.125 2.467 3.745 4.377c1.281 3.942-.895 8.189-4.855 9.464a7.56 7.56 0 0 1-2.332.372zm.014-13.054c-.576 0-1.152.091-1.717.272-2.912.938-4.515 4.063-3.572 6.965a5.51 5.51 0 0 0 2.756 3.222c1.32.671 2.824.792 4.235.337 2.913-.939 4.515-4.064 3.573-6.965-.457-1.406-1.437-2.549-2.757-3.222a5.52 5.52 0 0 0-2.518-.609zm36.164-25.243c-.29 0-.569-.126-.763-.356l-1.63-1.956a13.76 13.76 0 0 1-3.589-.116l-1.754 1.849a.99.99 0 0 1-1.129.221l-3.229-1.457c-.385-.172-.616-.569-.579-.99l.236-2.532c-.933-.76-1.759-1.635-2.458-2.609l-2.549.072a1 1 0 0 1-.954-.636l-1.252-3.306c-.15-.393-.031-.836.293-1.106l1.964-1.624a13.47 13.47 0 0 1 .117-3.575l-1.854-1.745a.98.98 0 0 1-.222-1.124l1.462-3.218c.175-.383.576-.616.994-.576l2.542.235a13.57 13.57 0 0 1 2.619-2.448l-.073-2.539c-.011-.421.245-.804.642-.95l3.318-1.245c.394-.149.842-.03 1.113.293l1.627 1.954a13.67 13.67 0 0 1 3.59.116l1.751-1.847a.99.99 0 0 1 1.129-.221l3.23 1.457a.99.99 0 0 1 .578.99l-.236 2.532c.933.76 1.759 1.636 2.458 2.609l2.549-.072c.425-.012.807.244.954.639l1.25 3.306c.149.393.03.839-.296 1.108l-1.961 1.621a13.51 13.51 0 0 1-.117 3.575l1.854 1.745a.98.98 0 0 1 .222 1.124l-1.463 3.218c-.174.383-.573.618-.993.576l-2.542-.235a13.6 13.6 0 0 1-2.619 2.448l.072 2.539c.012.421-.244.804-.641.953l-3.318 1.245a1.07 1.07 0 0 1-.343.058zm-1.763-3.889l1.921 2.307 2.647-.994-.086-2.995.343-.23a12.11 12.11 0 0 0 2.866-2.678l.252-.325 2.996.279 1.166-2.567-2.187-2.058.079-.402c.257-1.294.299-2.611.129-3.915l-.054-.407 2.316-1.914-.999-2.637-3.006.086-.23-.341c-.735-1.092-1.64-2.051-2.689-2.855l-.327-.251.28-2.985-2.577-1.162-2.066 2.179-.406-.079a12.23 12.23 0 0 0-3.929-.128l-.409.053-1.921-2.307-2.647.994.086 2.995-.343.23a12.11 12.11 0 0 0-2.866 2.679l-.252.325-2.996-.279-1.166 2.567 2.187 2.058-.079.402a12.02 12.02 0 0 0-.128 3.914l.053.407-2.316 1.914.999 2.637 3.006-.086.23.341c.735 1.092 1.64 2.051 2.689 2.855l.327.251-.28 2.985 2.577 1.162 2.066-2.179.406.079c1.299.256 2.621.297 3.93.128l.408-.053zm-6.484 2.174h0zm-9.235-7.648h0zm28.23-10.096h0zm.152-.562h0zm-13.37 13.23c-.364 0-.683-.265-.737-.634-.061-.407.219-.785.627-.846.546-.081 1.087-.223 1.612-.418 4.03-1.515 6.073-6.012 4.552-10.027s-6.035-6.049-10.065-4.537-6.073 6.012-4.555 10.027c.499 1.32 1.348 2.479 2.451 3.35a.74.74 0 0 1 .122 1.045.75.75 0 0 1-1.05.121 9.26 9.26 0 0 1-2.92-3.991c-1.809-4.783.623-10.14 5.425-11.943a9.28 9.28 0 0 1 7.117.228c2.264 1.02 3.995 2.86 4.872 5.176s.795 4.834-.229 7.09a9.22 9.22 0 0 1-5.195 4.853 9.4 9.4 0 0 1-1.917.497.57.57 0 0 1-.11.009z" class="B"/><path d="M323.437 295.419c-.485 0-.882-.156-.882-.641s.394-.76.88-.762l1.571.051c.467-.019.884.416.889.899s-.387.66-.875.664c-.527.007-1.056-.211-1.583-.211zm-3.683 0c-.543 0-1.07.207-1.597.195-.487-.012-.872-.3-.863-.785s.418-.823.9-.802l1.572.056c.488.007.875.195.868.681s-.397.655-.88.655zm8.939 0c-.475 0-.867-.177-.881-.655-.012-.486.373-.785.86-.799l1.572.007c.485-.012.893.39.907.875s-.366.7-.853.716c-.527.016-1.057-.146-1.584-.146-.007.002-.014.002-.021.002zm-14.193.311h-.035l-1.583-.065a.88.88 0 0 1-.84-.917.88.88 0 0 1 .921-.837l1.57.065a.88.88 0 0 1 .847.911.88.88 0 0 1-.88.843zm19.448-.093a.88.88 0 0 1-.88-.836.88.88 0 0 1 .84-.918l1.569-.079c.499-.016.901.346.926.83a.88.88 0 0 1-.832.922l-1.581.079c-.014.002-.029.002-.042.002zm-24.7-.169c-.018 0-.037 0-.055-.003l-1.579-.104a.88.88 0 0 1-.819-.936c.035-.484.455-.848.94-.816l1.567.102a.88.88 0 0 1 .826.932c-.031.467-.418.825-.88.825zm29.947-.133a.88.88 0 0 1-.879-.817.88.88 0 0 1 .818-.937l1.567-.111a.88.88 0 0 1 .945.811.88.88 0 0 1-.814.94l-1.579.114h-.058zm-35.189-.258c-.026 0-.051 0-.077-.002l-1.577-.142a.88.88 0 0 1-.795-.957c.047-.483.474-.831.961-.792l1.565.142a.88.88 0 0 1 .802.95c-.042.458-.427.801-.879.801zm40.431-.155c-.45 0-.835-.344-.877-.799a.88.88 0 0 1 .798-.953l1.565-.146a.88.88 0 0 1 .961.79.88.88 0 0 1-.793.957l-1.577.146-.077.005zm-45.662-.363c-.033 0-.065-.002-.098-.004l-1.574-.182a.88.88 0 0 1-.77-.975c.059-.481.492-.827.98-.767l1.56.181a.88.88 0 0 1 .779.969c-.051.446-.434.778-.877.778zm50.893-.162a.88.88 0 0 1-.874-.781c-.054-.481.293-.915.778-.969l1.563-.176c.485-.051.921.288.977.769a.88.88 0 0 1-.772.973l-1.572.179-.1.005zm-56.107-.486c-.04 0-.082-.002-.122-.009l-1.567-.221a.88.88 0 0 1-.744-.994.88.88 0 0 1 .998-.741l1.554.218a.88.88 0 0 1 .753.99c-.063.437-.441.757-.872.757zm61.326-.144c-.436 0-.814-.32-.872-.764a.88.88 0 0 1 .76-.985l1.558-.209a.88.88 0 0 1 .994.75.88.88 0 0 1-.754.99l-1.569.209c-.04.007-.079.009-.117.009zm-66.525-.636c-.046 0-.095-.005-.144-.012l-1.563-.26c-.48-.082-.802-.537-.718-1.013a.88.88 0 0 1 1.017-.716l1.548.258a.88.88 0 0 1 .728 1.009.88.88 0 0 1-.868.734zm71.73-.098c-.429 0-.804-.311-.869-.746a.88.88 0 0 1 .739-.999l1.553-.239a.88.88 0 0 1 1.007.73c.077.478-.251.929-.732 1.003l-1.565.242a.84.84 0 0 1-.133.009zm-76.905-.818a.79.79 0 0 1-.165-.016l-1.553-.302c-.478-.095-.789-.558-.693-1.031a.88.88 0 0 1 1.036-.69l1.539.299c.478.091.793.551.699 1.027-.077.421-.447.713-.863.713zm82.094-.032c-.419 0-.79-.298-.865-.723a.88.88 0 0 1 .711-1.02l1.544-.283a.88.88 0 0 1 1.029.699c.091.477-.224.936-.702 1.025l-1.56.286a.76.76 0 0 1-.157.016zm5.164-.999a.88.88 0 0 1-.861-.697.88.88 0 0 1 .681-1.039l1.537-.327a.88.88 0 0 1 1.049.671.88.88 0 0 1-.674 1.046l-1.548.33c-.065.009-.124.016-.184.016zm-92.404-.014a.87.87 0 0 1-.189-.021l-1.546-.342c-.476-.106-.772-.576-.665-1.05a.88.88 0 0 1 1.054-.662l1.532.34a.88.88 0 0 1 .674 1.045c-.091.409-.457.69-.86.69zm97.534-1.129a.88.88 0 0 1-.856-.674.88.88 0 0 1 .653-1.057l1.525-.369a.88.88 0 0 1 1.066.641c.117.472-.172.945-.643 1.062l-1.54.371a.83.83 0 0 1-.205.026zm-102.653-.051c-.07 0-.14-.01-.21-.026l-1.535-.381c-.471-.118-.758-.597-.636-1.066a.88.88 0 0 1 1.07-.634l1.523.378c.473.116.762.59.646 1.062a.89.89 0 0 1-.858.667zm107.753-1.232c-.389 0-.746-.26-.851-.652a.88.88 0 0 1 .625-1.076l1.516-.409a.88.88 0 0 1 1.082.614.88.88 0 0 1-.616 1.08l-1.529.413c-.075.021-.152.03-.227.03zm-112.84-.081c-.077 0-.154-.009-.233-.032l-1.525-.421c-.469-.132-.742-.615-.609-1.082s.621-.739 1.087-.607l1.511.418c.469.128.747.611.618 1.078a.88.88 0 0 1-.849.646zm117.903-1.333a.88.88 0 0 1-.844-.63c-.137-.464.128-.952.595-1.089l1.504-.449a.88.88 0 0 1 1.098.586c.143.464-.121.954-.587 1.094l-1.518.453a.9.9 0 0 1-.248.035zm-122.952-.114a.89.89 0 0 1-.254-.037l-1.511-.46a.88.88 0 0 1-.581-1.099c.145-.462.639-.723 1.103-.579l1.5.458c.466.139.73.63.588 1.094-.117.379-.467.623-.845.623zm127.978-1.433a.88.88 0 0 1-.271-1.715l1.493-.488a.88.88 0 0 1 1.115.555.88.88 0 0 1-.558 1.111l-1.504.492a.87.87 0 0 1-.275.045zm-132.985-.145c-.09 0-.184-.013-.277-.044l-1.5-.499c-.461-.156-.709-.655-.552-1.113a.88.88 0 0 1 1.117-.55l1.488.497c.461.153.713.648.559 1.108a.88.88 0 0 1-.835.601zm137.966-1.535a.88.88 0 0 1-.83-.586c-.161-.457.079-.959.539-1.119l1.478-.528c.457-.165.964.072 1.129.528a.88.88 0 0 1-.529 1.124l-1.493.53c-.098.035-.196.051-.294.051zm-142.928-.174a.92.92 0 0 1-.299-.051l-1.485-.539c-.457-.168-.691-.672-.523-1.127s.674-.688 1.131-.521l1.472.535a.88.88 0 0 1 .532 1.124.88.88 0 0 1-.828.579zm147.865-1.634a.88.88 0 0 1-.823-.564c-.175-.453.054-.959.508-1.134l1.465-.564c.452-.177.963.046 1.143.497a.88.88 0 0 1-.499 1.138l-1.479.569c-.105.04-.21.058-.315.058zm-152.784-.204a.87.87 0 0 1-.319-.06l-1.147-.449-.327-.13c-.452-.179-.672-.69-.492-1.14s.695-.669 1.145-.491l.324.128 1.136.446c.452.177.679.686.501 1.136-.135.349-.468.56-.821.56zm-169.502-.922a.76.76 0 0 1-.205-.026l-.462-.114a.88.88 0 0 1-.639-1.066c.119-.469.599-.755 1.07-.636l.441.109c.473.114.765.587.651 1.057a.88.88 0 0 1-.856.676zm327.172-.811a.88.88 0 0 1-.814-.541.88.88 0 0 1 .478-1.148l1.448-.604c.448-.188.966.019 1.155.467s-.019.962-.469 1.15l-1.462.609a.87.87 0 0 1-.336.067zm-162.548-.216c-.112 0-.224-.021-.334-.065l-1.462-.599a.88.88 0 0 1-.478-1.148c.187-.448.702-.662 1.152-.476l1.455.597c.45.183.667.697.481 1.145a.88.88 0 0 1-.814.546zm-168.605-.13a.9.9 0 0 1-.285-.047l-1.514-.546c-.455-.174-.681-.68-.508-1.133a.88.88 0 0 1 1.138-.507l1.455.525c.459.158.707.655.548 1.115-.126.365-.469.593-.835.593zm335.992-1.724a.88.88 0 0 1-.804-.52c-.199-.444.002-.962.445-1.16l1.437-.645a.88.88 0 0 1 1.166.434c.202.441.007.962-.437 1.164l-1.448.65c-.116.052-.238.077-.359.077zm-172.24-.158c-.115 0-.231-.023-.343-.07l-1.455-.615c-.448-.191-.656-.706-.464-1.152s.708-.653 1.156-.463l1.448.614c.448.188.658.703.469 1.149-.14.335-.466.537-.811.537zm-168.617-.109c-.131 0-.261-.028-.385-.088l-1.437-.737c-.427-.23-.588-.764-.355-1.189a.88.88 0 0 1 1.194-.353l1.371.701c.439.212.618.739.406 1.173-.154.312-.469.493-.795.493zm345.64-1.938a.88.88 0 0 1-.795-.499c-.21-.437-.026-.962.413-1.171l1.415-.683c.436-.214.966-.032 1.18.402a.88.88 0 0 1-.403 1.176l-1.43.69a.88.88 0 0 1-.38.085zm-181.853-.016c-.117 0-.236-.023-.35-.072l-1.448-.627a.88.88 0 0 1-.455-1.157c.194-.444.714-.646 1.162-.453l1.443.625c.446.193.651.711.457 1.155a.88.88 0 0 1-.809.529zm-168.316-.697c-.177 0-.357-.053-.511-.162l-1.301-.99c-.375-.307-.431-.86-.121-1.236a.88.88 0 0 1 1.241-.121l1.206.918c.396.281.487.829.205 1.224-.172.239-.443.367-.718.367zm163.5-1.405c-.119 0-.24-.023-.357-.075l-1.443-.636a.88.88 0 0 1-.448-1.159c.198-.444.718-.642 1.164-.446l1.439.636c.445.195.646.716.45 1.157-.143.328-.467.523-.805.523zm191.385-.216a.88.88 0 0 1-.784-.477c-.224-.429-.054-.959.38-1.182l1.392-.722a.88.88 0 0 1 1.19.367c.226.429.06.959-.369 1.184l-1.408.73a.83.83 0 0 1-.401.1zm-196.187-1.915c-.121 0-.242-.025-.359-.076l-1.439-.644a.88.88 0 0 1-.443-1.161c.201-.442.723-.639 1.166-.442l1.437.644c.443.197.644.718.443 1.159a.88.88 0 0 1-.805.52zm-162.546-.006a.88.88 0 0 1-.69-.333 13.2 13.2 0 0 1-.965-1.38c-.252-.415-.119-.954.299-1.205s.958-.116 1.21.297c.242.4.525.802.837 1.196.303.381.238.932-.142 1.234-.163.128-.357.191-.548.191zm363.374-.549a.88.88 0 0 1-.772-.453c-.236-.425-.082-.957.345-1.192l1.369-.761a.88.88 0 0 1 1.201.332c.24.423.091.957-.334 1.196l-1.383.771a.91.91 0 0 1-.426.107zM218.925 269.7c-.122 0-.245-.026-.362-.079l-1.439-.646c-.443-.2-.641-.72-.44-1.162s.722-.639 1.166-.439l1.436.646a.88.88 0 0 1-.361 1.68zm210.181-1.011a.88.88 0 0 1-.758-.43c-.25-.416-.112-.955.308-1.203l1.343-.804c.417-.251.958-.118 1.21.295a.88.88 0 0 1-.296 1.206l-1.357.813c-.142.084-.296.123-.45.123zm-214.971-1.145c-.122 0-.245-.026-.362-.079l-1.436-.646c-.444-.2-.642-.72-.441-1.162s.723-.639 1.166-.439l1.439.646c.443.2.641.72.44 1.162-.151.327-.471.518-.806.518zm-155.137-.398a.88.88 0 0 1-.87-.748c-.065-.432-.098-.873-.098-1.31l.009-.425c.023-.483.438-.85.921-.834a.88.88 0 0 1 .837.918l-.007.339a7.26 7.26 0 0 0 .077 1.055c.072.478-.261.927-.742.996a.79.79 0 0 1-.128.009zm374.578-1.198a.88.88 0 0 1-.744-.407c-.261-.409-.142-.952.269-1.212l1.315-.846c.408-.265.954-.149 1.22.255s.151.951-.257 1.215l-1.329.855c-.147.093-.31.14-.474.14zm-224.234-.555a.91.91 0 0 1-.361-.077l-1.439-.644a.88.88 0 0 1-.443-1.161c.2-.442.72-.639 1.163-.442l1.439.644a.88.88 0 0 1 .443 1.161c-.144.326-.466.519-.802.519zm-4.799-2.14c-.119 0-.24-.026-.357-.077l-1.441-.636c-.446-.198-.646-.716-.448-1.16s.718-.643 1.164-.446l1.443.639c.446.198.646.716.448 1.16a.89.89 0 0 1-.809.52zm233.411-.191a.88.88 0 0 1-.728-.381c-.275-.399-.173-.945.229-1.219l1.285-.888c.398-.278.946-.181 1.226.216s.182.944-.217 1.222l-1.299.899c-.149.1-.324.151-.496.151zM59.84 262.059c-.126 0-.252-.028-.373-.084-.441-.207-.63-.729-.422-1.168a13.98 13.98 0 0 1 .812-1.471c.259-.411.805-.532 1.215-.274s.534.801.275 1.21c-.27.428-.508.858-.707 1.28-.152.321-.469.507-.8.507zm139.892-.92c-.119 0-.238-.023-.352-.074l-1.444-.628c-.445-.193-.651-.711-.457-1.154s.711-.648 1.159-.456l1.448.63a.88.88 0 0 1 .455 1.157c-.145.327-.469.525-.809.525zm242.496-1.108a.88.88 0 0 1-.709-.356c-.289-.39-.207-.938.185-1.226l1.252-.932a.88.88 0 0 1 1.234.172c.293.386.217.936-.173 1.229l-1.266.943c-.159.114-.341.17-.523.17zm-247.321-.971c-.117 0-.234-.024-.346-.072l-1.448-.616c-.448-.19-.657-.704-.466-1.15a.88.88 0 0 1 1.154-.465l1.453.616c.448.191.655.706.464 1.152a.88.88 0 0 1-.811.535zm-132.022-1.241a.88.88 0 0 1-.609-.244.87.87 0 0 1-.026-1.24l.863-.855.303-.284c.359-.327.916-.304 1.245.051a.88.88 0 0 1-.051 1.241l-.282.262-.804.797c-.175.182-.408.272-.639.272zm127.178-.794a.87.87 0 0 1-.338-.068l-1.456-.599c-.45-.184-.664-.697-.48-1.145s.7-.662 1.15-.479l1.462.602c.45.186.662.699.476 1.147a.88.88 0 0 1-.814.542zm256.323-.172a.89.89 0 0 1-.69-.33c-.303-.379-.24-.932.14-1.234l1.215-.975c.376-.307.933-.251 1.241.125s.252.929-.126 1.236l-1.231.99c-.161.125-.355.188-.549.188zm-261.193-1.803a.89.89 0 0 1-.326-.063l-1.462-.578c-.453-.179-.674-.688-.495-1.139a.88.88 0 0 1 1.143-.492l1.469.581c.453.179.672.69.492 1.14a.89.89 0 0 1-.821.551zm-118.313-.623a.88.88 0 0 1-.508-1.596l1.348-.896a.89.89 0 0 1 1.217.271c.261.409.14.953-.273 1.213l-1.278.85c-.154.107-.331.158-.506.158zm383.541-.908c-.247 0-.494-.102-.667-.304-.317-.367-.278-.923.091-1.239l1.175-1.022c.364-.32.921-.288 1.243.077s.29.918-.077 1.238l-1.191 1.036c-.166.144-.371.214-.574.214zm-270.123-.379a.87.87 0 0 1-.314-.058l-1.47-.555c-.454-.172-.685-.676-.513-1.131s.681-.681 1.136-.511l1.479.559a.88.88 0 0 1 .508 1.134c-.138.349-.471.562-.826.562zm-108.903-1.391a.88.88 0 0 1-.786-.481c-.219-.432-.047-.962.387-1.18l1.451-.699c.441-.205.965-.012 1.171.427s.012.962-.429 1.166l-1.392.672c-.131.065-.266.095-.401.095zm103.978-.437c-.1 0-.2-.016-.301-.053l-1.478-.53c-.457-.163-.698-.664-.534-1.122a.88.88 0 0 1 1.126-.532l1.488.534c.457.165.695.669.527 1.125a.88.88 0 0 1-.828.578zm278.952-1.289c-.236 0-.471-.093-.644-.279-.333-.353-.315-.908.042-1.241l1.136-1.073a.88.88 0 0 1 1.245.026c.338.348.327.906-.025 1.24l-1.152 1.09c-.171.16-.385.237-.602.237zm-378.114-.379a.88.88 0 0 1-.823-.564c-.175-.453.054-.96.508-1.134l1.502-.551a.88.88 0 0 1 1.124.535c.163.457-.077.959-.536 1.119l-1.46.537a.89.89 0 0 1-.315.058zm94.204-.072c-.093 0-.189-.016-.284-.046l-1.488-.5c-.462-.153-.712-.65-.558-1.11s.653-.709 1.115-.556l1.5.505c.461.155.706.655.55 1.112-.126.365-.469.595-.835.595zm-89.225-1.615a.88.88 0 0 1-.842-.622c-.142-.465.121-.955.588-1.094l1.525-.449c.469-.132.956.137 1.089.602a.88.88 0 0 1-.604 1.085l-1.499.441c-.084.026-.17.037-.257.037zm84.234-.02c-.088 0-.177-.014-.265-.042l-1.498-.467a.88.88 0 0 1-.583-1.099c.145-.462.637-.723 1.103-.581l1.512.472c.464.146.72.639.573 1.101-.121.376-.468.616-.842.616zm-79.169-1.383a.88.88 0 0 1-.854-.659.88.88 0 0 1 .634-1.069l1.534-.386c.471-.116.951.17 1.068.639a.88.88 0 0 1-.641 1.064l-1.52.383a.9.9 0 0 1-.222.028zm74.141-.139c-.081 0-.163-.012-.244-.035l-1.507-.425c-.469-.13-.744-.613-.613-1.08s.615-.739 1.084-.611l1.528.432a.88.88 0 0 1 .601 1.087.89.89 0 0 1-.849.632zm297.688-.054c-.221 0-.445-.083-.615-.25-.348-.34-.355-.895-.015-1.241l1.087-1.122c.336-.351.893-.365 1.246-.03s.366.89.03 1.24l-1.103 1.139a.88.88 0 0 1-.63.264zM91.36 245.304a.88.88 0 0 1-.856-.673.88.88 0 0 1 .653-1.057l1.535-.365c.471-.111.949.179 1.061.65a.88.88 0 0 1-.651 1.058l-1.534.364a1.07 1.07 0 0 1-.208.023zm63.96-.253a1 1 0 0 1-.215-.025l-1.523-.37a.88.88 0 0 1-.655-1.057c.112-.471.587-.762 1.061-.652l1.541.374c.471.116.761.592.642 1.064-.096.399-.455.666-.851.666zm-58.848-.971a.88.88 0 0 1-.858-.678.88.88 0 0 1 .658-1.055l1.551-.348a.88.88 0 0 1 1.049.669c.105.474-.196.941-.672 1.045l-1.528.344a.96.96 0 0 1-.201.023zm53.724-.197c-.061 0-.121-.007-.182-.019l-1.537-.311a.88.88 0 0 1-.695-1.032c.096-.476.562-.783 1.036-.692l1.555.316c.476.1.781.565.681 1.038-.081.414-.45.7-.858.7zm-48.577-.876a.88.88 0 0 1-.866-.718.88.88 0 0 1 .707-1.022l1.565-.277a.88.88 0 0 1 1.017.718.88.88 0 0 1-.721 1.013l-1.541.272a1.02 1.02 0 0 1-.161.014zm43.414-.098a1.04 1.04 0 0 1-.147-.011l-1.546-.251a.88.88 0 0 1-.735-1.004.88.88 0 0 1 1.007-.732l1.568.256a.88.88 0 0 1 .723 1.013c-.075.427-.448.729-.87.729zm316.64-.371a.88.88 0 0 1-.585-.223c-.364-.323-.394-.879-.07-1.241l1.033-1.171c.32-.367.875-.406 1.243-.088s.408.871.089 1.238l-1.05 1.19a.88.88 0 0 1-.66.295zm-354.865-.363a.88.88 0 0 1-.873-.757.88.88 0 0 1 .754-.99l1.576-.204a.88.88 0 0 1 .984.762.88.88 0 0 1-.765.98l-1.553.202c-.044.005-.084.007-.123.007zm33.024-.037c-.037 0-.074-.002-.114-.007l-1.556-.19a.88.88 0 0 1-.772-.974.88.88 0 0 1 .978-.769l1.576.193c.483.063.823.502.76.983a.88.88 0 0 1-.872.764zm-27.803-.56a.88.88 0 0 1-.877-.797.88.88 0 0 1 .798-.954l1.583-.135a.88.88 0 0 1 .947.806.88.88 0 0 1-.809.943l-1.56.133-.082.004zm22.577-.007c-.026 0-.051 0-.079-.004l-1.563-.128a.88.88 0 0 1-.811-.943c.037-.484.466-.844.946-.809l1.582.13a.88.88 0 0 1 .799.953c-.037.457-.422.801-.874.801zm-5.245-.358h-.042l-1.565-.065a.88.88 0 0 1-.849-.908.88.88 0 0 1 .912-.846l1.586.068c.485.023.861.434.837.917-.021.467-.41.834-.879.834zm-12.087-.002a.88.88 0 0 1-.879-.836.88.88 0 0 1 .837-.92l1.588-.068a.88.88 0 0 1 .912.846.88.88 0 0 1-.849.908l-1.565.065c-.016.005-.03.005-.044.005zm6.833-.367c-.287 0-.564-.002-.844-.002l-.73.002c-.49 0-.884-.279-.886-.762s.389-.825.876-.827l.74.026.849.016c.487.002.879.293.874.778s-.396.769-.879.769zm340.964-2.284c-.193 0-.392-.065-.553-.195-.377-.304-.436-.857-.13-1.233l.972-1.213c.301-.381.856-.448 1.239-.149s.45.851.149 1.234l-.987 1.234c-.179.211-.433.322-.69.322zm3.193-4.139a.89.89 0 0 1-.518-.168c-.394-.285-.48-.834-.194-1.226l.908-1.262c.279-.395.83-.49 1.229-.211s.492.827.212 1.224l-.924 1.283c-.172.234-.44.36-.713.36zm2.973-4.3a.88.88 0 0 1-.478-.142c-.408-.265-.525-.809-.259-1.215l.837-1.308c.259-.411.803-.534 1.215-.279s.537.799.28 1.21l-.853 1.334a.89.89 0 0 1-.742.4zm2.736-4.461c-.15 0-.299-.037-.439-.116-.422-.242-.569-.778-.326-1.199l.762-1.354a.88.88 0 0 1 1.197-.346c.426.234.583.766.347 1.191l-.779 1.383c-.161.283-.457.441-.762.441zm2.476-4.611c-.13 0-.266-.03-.391-.093-.437-.216-.614-.744-.397-1.178l.683-1.399c.21-.436.735-.624 1.173-.415s.628.731.418 1.168l-.697 1.427c-.152.311-.465.49-.789.49zm2.202-4.758a.89.89 0 0 1-.343-.07c-.448-.188-.658-.704-.466-1.15l.597-1.438c.181-.45.695-.666 1.147-.488a.88.88 0 0 1 .49 1.143l-.609 1.469c-.149.334-.473.534-.816.534zm1.903-4.89c-.098 0-.196-.016-.292-.051a.88.88 0 0 1-.538-1.12l.506-1.478c.154-.46.653-.708 1.112-.557a.88.88 0 0 1 .56 1.11l-.518 1.508c-.126.362-.466.588-.83.588zm1.593-4.993a.95.95 0 0 1-.241-.032c-.468-.133-.741-.616-.608-1.083l.41-1.498c.124-.469.604-.748 1.075-.627a.88.88 0 0 1 .63 1.071l-.42 1.531a.88.88 0 0 1-.846.638zm1.271-5.08a.87.87 0 0 1-.189-.021.88.88 0 0 1-.674-1.046l.317-1.521a.88.88 0 0 1 1.035-.69c.478.095.789.557.693 1.031l-.324 1.552c-.089.416-.453.695-.858.695zm.963-5.146c-.045 0-.091-.002-.138-.012-.48-.074-.809-.522-.734-1.001l.226-1.538c.065-.481.51-.818.993-.75a.88.88 0 0 1 .753.99l-.23 1.57a.88.88 0 0 1-.87.741zm.648-5.194c-.028 0-.054-.003-.082-.005-.485-.044-.842-.472-.795-.955l.128-1.549c.035-.484.455-.853.945-.811a.88.88 0 0 1 .814.941l-.131 1.582c-.046.455-.429.797-.879.797zm.317-5.214h-.025c-.488 0-.87-.425-.856-.908l.03-1.624c.005-.481.399-.941.881-.941.497 0 .887.47.882.955l-.03 1.626c-.014.474-.406.892-.882.892zm-.016-5.459c-.474 0-.863-.267-.879-.741l-.07-1.501c-.026-.483.345-.871.832-.896a.89.89 0 0 1 .928.843l.073 1.487c.016.485-.364.808-.849.808h-.035zm-.352-5.009c-.448 0-.831-.339-.877-.789l-.168-1.545a.882.882 0 1 1 1.751-.207l.173 1.577c.049.484-.306.913-.791.96l-.088.004zm-.684-5.187a.88.88 0 0 1-.867-.737l-.266-1.53c-.086-.477.231-.934.709-1.023a.88.88 0 0 1 1.026.707l.271 1.563a.88.88 0 0 1-.728 1.008c-.049.007-.098.012-.145.012zm-1.002-5.137a.88.88 0 0 1-.859-.683l-.356-1.507c-.117-.472.172-.946.646-1.062a.88.88 0 0 1 1.065.644l.364 1.538c.107.473-.189.943-.664 1.05-.068.014-.133.02-.196.02zm-1.309-5.057c-.382 0-.734-.251-.846-.634l-.446-1.489a.88.88 0 0 1 .583-1.097c.464-.142.959.119 1.101.581l.455 1.517a.88.88 0 0 1-.602 1.087c-.081.023-.165.035-.245.035zm-1.599-4.983a.88.88 0 0 1-.833-.588l-.529-1.466c-.168-.455.065-.959.522-1.126a.88.88 0 0 1 1.131.52l.539 1.491a.88.88 0 0 1-.539 1.12.91.91 0 0 1-.291.049zm-1.875-4.895a.88.88 0 0 1-.817-.543l-.606-1.439c-.191-.446.014-.961.462-1.152a.88.88 0 0 1 1.156.46l.618 1.464c.185.448-.03.962-.48 1.145a.92.92 0 0 1-.333.065zm-2.127-4.802a.88.88 0 0 1-.798-.504l-.679-1.41c-.214-.434-.032-.962.404-1.173a.88.88 0 0 1 1.178.402l.69 1.433c.207.439.019.962-.422 1.169a.85.85 0 0 1-.373.083zm-2.36-4.695a.88.88 0 0 1-.779-.467l-.742-1.373c-.233-.425-.077-.959.35-1.191s.963-.077 1.196.348l.754 1.394c.228.427.065.959-.367 1.187-.13.07-.272.102-.412.102zm-2.561-4.572c-.303 0-.597-.155-.76-.434l-.8-1.341c-.252-.415-.117-.954.298-1.205s.959-.116 1.211.297l.811 1.359c.247.418.105.955-.315 1.201a.86.86 0 0 1-.445.123zm-2.75-4.462c-.289 0-.573-.142-.741-.405l-.854-1.308c-.268-.404-.154-.95.252-1.215s.954-.153 1.22.251l.865 1.327c.264.409.145.95-.266 1.213a.92.92 0 0 1-.476.137zm-2.922-4.354c-.279 0-.552-.132-.725-.376l-.902-1.278c-.283-.395-.189-.943.207-1.224s.947-.188 1.229.206l.912 1.294c.278.398.18.946-.222 1.222-.149.105-.324.156-.499.156zm-3.076-4.247c-.268 0-.534-.12-.706-.353l-.945-1.247a.88.88 0 0 1 .166-1.232c.387-.295.94-.218 1.236.165l.956 1.262c.291.388.212.938-.18 1.229-.158.118-.342.176-.527.176zm-3.213-4.144a.89.89 0 0 1-.691-.33l-.984-1.217c-.308-.377-.249-.93.129-1.236s.932-.249 1.24.128l.994 1.229c.303.378.24.931-.14 1.233a.87.87 0 0 1-.548.193zm-3.34-4.047c-.249 0-.499-.105-.674-.311l-1.024-1.194c-.317-.367-.275-.923.094-1.239s.926-.274 1.243.093l1.033 1.206c.315.369.268.925-.103 1.238-.165.14-.368.207-.569.207zm-3.463-3.963a.88.88 0 0 1-.658-.293l-1.054-1.166c-.326-.358-.301-.913.061-1.241s.916-.299 1.245.058l1.064 1.176c.324.362.294.915-.07 1.24-.17.154-.378.226-.588.226zm-3.563-3.871c-.236 0-.469-.092-.642-.276l-1.084-1.141c-.336-.35-.322-.906.03-1.24s.91-.321 1.246.03l1.091 1.148c.333.353.317.908-.037 1.24a.88.88 0 0 1-.604.239zm-3.655-3.782a.88.88 0 0 1-.627-.262l-1.108-1.115c-.343-.344-.343-.899.003-1.241a.88.88 0 0 1 1.245.003l1.115 1.122c.34.346.338.901-.01 1.24a.87.87 0 0 1-.618.253zm-3.731-3.698a.89.89 0 0 1-.616-.249l-1.131-1.09c-.35-.337-.361-.892-.023-1.241a.88.88 0 0 1 1.245-.023l1.138 1.099c.348.339.355.894.017 1.241-.173.174-.401.263-.63.263zm-3.806-3.619a.88.88 0 0 1-.602-.237l-1.149-1.069c-.357-.33-.378-.885-.047-1.241s.888-.376 1.245-.046l1.157 1.076c.355.332.373.887.04 1.24-.173.183-.408.276-.644.276zm-3.867-3.545a.87.87 0 0 1-.59-.228l-1.168-1.048c-.364-.323-.394-.878-.07-1.241s.882-.393 1.245-.07l1.176 1.052c.361.325.389.88.063 1.241a.88.88 0 0 1-.656.293zm-3.922-3.475c-.205 0-.413-.072-.581-.216l-1.185-1.027c-.368-.318-.408-.871-.088-1.238s.874-.404 1.243-.088l1.189 1.032c.366.318.404.873.084 1.238a.88.88 0 0 1-.662.3zm-3.974-3.413a.87.87 0 0 1-.569-.209l-1.196-1.008c-.374-.311-.42-.867-.108-1.236s.87-.418 1.241-.107l1.203 1.013c.371.314.418.867.103 1.238a.89.89 0 0 1-.674.309zm-4.028-3.359c-.198 0-.396-.065-.559-.202l-1.215-.997c-.376-.307-.432-.86-.124-1.236s.863-.43 1.241-.123l1.22 1.001c.375.309.429.862.118 1.236a.87.87 0 0 1-.681.321zm-4.076-3.31c-.194 0-.389-.063-.553-.195l-1.229-.983c-.38-.302-.44-.855-.137-1.234s.858-.439 1.238-.137l1.231.985c.38.304.439.857.133 1.233a.86.86 0 0 1-.683.33zm-4.114-3.264a.88.88 0 0 1-.546-.188l-1.238-.969c-.382-.3-.45-.85-.151-1.231s.853-.448 1.236-.151l1.243.971c.382.3.447.853.146 1.234-.17.221-.429.334-.69.334zm-4.149-3.222a.87.87 0 0 1-.536-.184l-1.248-.957c-.384-.295-.459-.846-.16-1.231a.88.88 0 0 1 1.235-.16l1.253.959c.385.295.457.848.158 1.231-.177.225-.436.341-.702.341zm-4.176-3.183c-.187 0-.373-.058-.532-.179l-1.257-.948c-.389-.293-.466-.843-.173-1.229s.847-.462 1.234-.172l1.259.95a.87.87 0 0 1 .168 1.229c-.17.23-.433.349-.699.349zm-4.203-3.15a.88.88 0 0 1-.527-.174l-1.264-.939c-.389-.29-.471-.839-.179-1.229a.88.88 0 0 1 1.233-.179l1.267.941a.88.88 0 0 1 .179 1.229.89.89 0 0 1-.709.351zm-4.221-3.125a.87.87 0 0 1-.522-.172l-1.269-.931c-.392-.288-.476-.836-.186-1.227a.88.88 0 0 1 1.231-.186l1.271.934c.392.288.476.839.186 1.227a.89.89 0 0 1-.711.355zm-6.308-18.742l-3.421 9.483-4.975-6.386 8.396-3.097z" fill="#7d97f4"/><path d="M350.067 23.237l17.6 31.662c.336.606.907 1.05 1.579 1.229s1.387.077 1.985-.281l31.247-18.801c.357-.216.548-.625.483-1.036s-.376-.741-.784-.834l-52.11-11.939z" class="B"/><g fill="#7d97f4"><path d="M390.902 44.003l-40.835-20.766 35.8 23.817-.835 2.669 5.87-5.72z"/><path d="M382.87 48.84l4.612 4.646-1.616-6.433-2.996 1.786z"/></g><defs><linearGradient id="A" x1="199.513" y1="16.719" x2="161.363" y2="38.134" xlink:href="#AQ"><stop stop-color="#0f6eff"/><stop offset="1" stop-color="#609fff"/></linearGradient><linearGradient id="B" x1="312.974" y1="16.719" x2="274.824" y2="38.134" xlink:href="#AQ"><stop stop-color="#0f6eff"/><stop offset="1" stop-color="#609fff"/></linearGradient><linearGradient id="C" x1="289.516" y1="-4.335" x2="275.236" y2="51.426" xlink:href="#AQ"><stop stop-color="#0f6eff"/><stop offset="1" stop-color="#609fff"/></linearGradient><linearGradient id="D" x1="259.174" y1="149.993" x2="252.649" y2="168.968" xlink:href="#AQ"><stop stop-color="#0f6eff"/><stop offset="1" stop-color="#609fff"/></linearGradient><linearGradient id="E" x1="166.057" y1="93.929" x2="157.584" y2="110.923" xlink:href="#AQ"><stop stop-color="#0f6eff"/><stop offset="1" stop-color="#609fff"/></linearGradient><linearGradient id="F" x1="257.073" y1="295.376" x2="263.896" y2="294.997" xlink:href="#AQ"><stop stop-color="#f9b776"/><stop offset="1" stop-color="#f47960"/></linearGradient><linearGradient id="G" x1="246.634" y1="277.912" x2="273.234" y2="235.742" xlink:href="#AQ"><stop stop-color="#2b3582"/><stop offset=".231" stop-color="#252a70"/><stop offset=".729" stop-color="#19164f"/><stop offset="1" stop-color="#150e42"/></linearGradient><linearGradient id="H" x1="237.105" y1="295.878" x2="235.776" y2="244.202" xlink:href="#AQ"><stop stop-color="#2b3582"/><stop offset="1" stop-color="#150e42"/></linearGradient><linearGradient id="I" x1="267.973" y1="227.285" x2="290.31" y2="226.046" xlink:href="#AQ"><stop stop-color="#ff928e"/><stop offset="1" stop-color="#feb3b1"/></linearGradient><linearGradient id="J" x1="255.003" y1="184.407" x2="246.204" y2="214.625" xlink:href="#AQ"><stop stop-color="#ff928e"/><stop offset="1" stop-color="#feb3b1"/></linearGradient><linearGradient id="K" x1="232.709" y1="198.09" x2="233.326" y2="238.513" xlink:href="#AQ"><stop stop-color="#ff928e"/><stop offset="1" stop-color="#feb3b1"/></linearGradient><linearGradient id="L" x1="268.917" y1="177.746" x2="250.461" y2="190.201" xlink:href="#AQ"><stop stop-color="#ff928e"/><stop offset="1" stop-color="#feb3b1"/></linearGradient><linearGradient id="M" x1="248.543" y1="187.959" x2="269.652" y2="181.224" xlink:href="#AQ"><stop stop-color="#09005d"/><stop offset="1" stop-color="#1a0f91"/></linearGradient><linearGradient id="N" x1="240.245" y1="204.717" x2="249.746" y2="185.7" xlink:href="#AQ"><stop stop-color="#f9b776"/><stop offset="1" stop-color="#f47960"/></linearGradient><linearGradient id="O" x1="329.559" y1="225.194" x2="462.163" y2="222.976" xlink:href="#AQ"><stop stop-color="#ff928e"/><stop offset="1" stop-color="#feb3b1"/></linearGradient><linearGradient id="P" x1="338.895" y1="184.115" x2="314.361" y2="220.152" xlink:href="#AQ"><stop stop-color="#ff928e"/><stop offset="1" stop-color="#feb3b1"/></linearGradient><linearGradient id="Q" x1="314.01" y1="236.149" x2="248.475" y2="236.89" xlink:href="#AQ"><stop stop-color="#53d8ff"/><stop offset="1" stop-color="#3840f7"/></linearGradient><linearGradient id="R" x1="396.651" y1="185.779" x2="364.48" y2="231.893" xlink:href="#AQ"><stop stop-color="#0f6eff"/><stop offset="1" stop-color="#609fff"/></linearGradient><linearGradient id="S" x1="360.756" y1="190.778" x2="360.756" y2="229.303" xlink:href="#AQ"><stop stop-color="#0f6eff"/><stop offset="1" stop-color="#3082ff"/></linearGradient><linearGradient id="T" x1="380.154" y1="232.374" x2="380.154" y2="235.266" xlink:href="#AQ"><stop stop-color="#0f6eff"/><stop offset="1" stop-color="#3082ff"/></linearGradient><linearGradient id="U" x1="382.463" y1="232.381" x2="382.463" y2="235.266" xlink:href="#AQ"><stop stop-color="#0f6eff"/><stop offset="1" stop-color="#3082ff"/></linearGradient><linearGradient id="V" x1="380.697" y1="207.784" x2="380.697" y2="232.376" xlink:href="#AQ"><stop stop-color="#0f6eff"/><stop offset="1" stop-color="#3082ff"/></linearGradient><linearGradient id="W" x1="382.329" y1="207.784" x2="382.329" y2="232.376" xlink:href="#AQ"><stop stop-color="#0f6eff"/><stop offset="1" stop-color="#3082ff"/></linearGradient><linearGradient id="X" x1="339.057" y1="197.321" x2="333.965" y2="238.987" xlink:href="#AQ"><stop stop-color="#ff928e"/><stop offset="1" stop-color="#feb3b1"/></linearGradient><linearGradient id="Y" x1="305.535" y1="185.78" x2="273.364" y2="231.894" xlink:href="#AQ"><stop stop-color="#0f6eff"/><stop offset="1" stop-color="#609fff"/></linearGradient><linearGradient id="Z" x1="269.636" y1="190.778" x2="269.636" y2="229.303" xlink:href="#AQ"><stop stop-color="#0f6eff"/><stop offset="1" stop-color="#3082ff"/></linearGradient><linearGradient id="a" x1="289.034" y1="232.374" x2="289.034" y2="235.266" xlink:href="#AQ"><stop stop-color="#0f6eff"/><stop offset="1" stop-color="#3082ff"/></linearGradient><linearGradient id="b" x1="291.341" y1="232.381" x2="291.341" y2="235.266" xlink:href="#AQ"><stop stop-color="#0f6eff"/><stop offset="1" stop-color="#3082ff"/></linearGradient><linearGradient id="c" x1="291.206" y1="207.784" x2="291.206" y2="232.376" xlink:href="#AQ"><stop stop-color="#0f6eff"/><stop offset="1" stop-color="#3082ff"/></linearGradient><linearGradient id="d" x1="329.56" y1="225.194" x2="462.164" y2="222.976" xlink:href="#AQ"><stop stop-color="#ff928e"/><stop offset="1" stop-color="#feb3b1"/></linearGradient><linearGradient id="e" x1="138.959" y1="181.907" x2="122.67" y2="222.313" xlink:href="#AQ"><stop stop-color="#ff928e"/><stop offset="1" stop-color="#feb3b1"/></linearGradient><linearGradient id="f" x1="138.634" y1="162.407" x2="137.554" y2="192.453" xlink:href="#AQ"><stop stop-color="#ff928e"/><stop offset="1" stop-color="#feb3b1"/></linearGradient><linearGradient id="g" x1="135.092" y1="165.018" x2="144.193" y2="193.83" xlink:href="#AQ"><stop stop-color="#09005d"/><stop offset="1" stop-color="#1a0f91"/></linearGradient><linearGradient id="h" x1="142.892" y1="177.292" x2="118.884" y2="184.742" xlink:href="#AQ"><stop stop-color="#f9b776"/><stop offset="1" stop-color="#f47960"/></linearGradient><linearGradient id="i" x1="198.804" y1="185.78" x2="166.632" y2="231.894" xlink:href="#AQ"><stop stop-color="#0f6eff"/><stop offset="1" stop-color="#609fff"/></linearGradient><linearGradient id="j" x1="162.905" y1="190.778" x2="162.905" y2="229.303" xlink:href="#AQ"><stop stop-color="#0f6eff"/><stop offset="1" stop-color="#3082ff"/></linearGradient><linearGradient id="k" x1="182.304" y1="232.374" x2="182.304" y2="235.266" xlink:href="#AQ"><stop stop-color="#0f6eff"/><stop offset="1" stop-color="#3082ff"/></linearGradient><linearGradient id="l" x1="184.611" y1="232.381" x2="184.611" y2="235.266" xlink:href="#AQ"><stop stop-color="#0f6eff"/><stop offset="1" stop-color="#3082ff"/></linearGradient><linearGradient id="m" x1="184.478" y1="207.784" x2="184.478" y2="232.376" xlink:href="#AQ"><stop stop-color="#0f6eff"/><stop offset="1" stop-color="#3082ff"/></linearGradient><linearGradient id="n" x1="137.579" y1="202.191" x2="137.579" y2="228.674" xlink:href="#AQ"><stop stop-color="#ff928e"/><stop offset="1" stop-color="#feb3b1"/></linearGradient><linearGradient id="o" x1="334.463" y1="157.909" x2="338.321" y2="187.649" xlink:href="#AQ"><stop stop-color="#ff928e"/><stop offset="1" stop-color="#feb3b1"/></linearGradient><linearGradient id="p" x1="339.608" y1="164.865" x2="335.75" y2="186.243" xlink:href="#AQ"><stop stop-color="#09005d"/><stop offset="1" stop-color="#1a0f91"/></linearGradient><linearGradient id="q" x1="333.913" y1="191.216" x2="328.245" y2="172.449" xlink:href="#AQ"><stop stop-color="#ff928e"/><stop offset="1" stop-color="#feb3b1"/></linearGradient><path id="r" d="M346.338 217.362s3.454 17.509 4.701 17.509 24.392-2.757 24.392-2.757v-4.993l-18.305.669-4.422-13.011-6.366 2.583z"/><path id="s" d="M341.991 236.351h-30.83l1.873-21.837s-2.304-16.459 8.211-18.283l6.194-1.684s7.924-1.239 14.552 1.675 12.101 20.422 12.101 20.422l-7.924 3.157-2.017-6.435-2.16 22.985z"/><path id="t" d="M376.347 207.784c-.837 0-1.278.836-1.278 1.67v22.922h11.255v-24.59h-9.977v-.002z"/><path id="u" d="M138.831 188.255l.021 1.445h-.016l-.021-1.445h.016z"/><path id="v" d="M138.895 188.255l.024 1.445h-.017l-.021-1.445h.014z"/><path id="w" d="M138.91 188.255l.023 1.445h-.016l-.023-1.445h.016z"/><path id="x" d="M138.944 188.255l.021 1.445h-.014l-.024-1.445h.017z"/><path id="y" d="M138.96 188.255l.021 1.445h-.017l-.021-1.445h.017z"/><path id="z" d="M139.104 188.255l.024 1.445h-.017l-.023-1.445h.016z"/><path id="AA" d="M139.121 188.255l.023 1.445h-.016l-.024-1.445h.017z"/><path id="AB" d="M139.137 188.255l.021 1.445h-.014l-.023-1.445h.016z"/><path id="AC" d="M139.636 188.255l.023 1.445h-.016l-.021-1.445h.014z"/><path id="AD" d="M337.447 187.977l-.074 1.445h-.017l.075-1.445h.016z"/><path id="AE" d="M337.466 187.979l-.075 1.445-.016-.002.074-1.445.017.002z"/><path id="AF" d="M337.512 187.982l-.075 1.445h-.016l.075-1.445h.016z"/><path id="AG" d="M337.545 187.984l-.077 1.445h-.016l.077-1.445h.016z"/><path id="AH" d="M337.591 187.986l-.075 1.445h-.016l.077-1.445h.014z"/><path id="AI" d="M337.608 187.989l-.075 1.445-.016-.003.074-1.445.017.003z"/><path id="AJ" d="M337.673 187.993l-.075 1.445-.016-.002.075-1.445.016.002z"/><path id="AK" d="M337.689 187.993l-.077 1.445h-.014l.075-1.445h.016z"/><path id="AL" d="M337.753 187.998l-.075 1.445h-.016l.074-1.445h.017z"/><path id="AM" d="M337.785 188l-.074 1.445-.017-.002.075-1.443h.016z"/><path id="AN" d="M337.851 188.005l-.077 1.445-.017-.002.077-1.445.017.002z"/><path id="AO" d="M337.884 188.007l-.077 1.445-.016-.002.077-1.445.016.002z"/><path id="AP" d="M389.341 146.137c1.911 0 3.461-1.381 3.461-3.085s-1.55-3.085-3.461-3.085-3.461 1.381-3.461 3.085 1.549 3.085 3.461 3.085z"/><linearGradient id="AQ" gradientUnits="userSpaceOnUse"/></defs></svg>